<?xml version="1.0" encoding="UTF-8"?>
<svg width="50px" height="50px" viewBox="0 0 50 50" version="1.1" xmlns="http://www.w3.org/2000/svg" xmlns:xlink="http://www.w3.org/1999/xlink">
    <!-- Generator: Sketch 53.2 (72643) - https://sketchapp.com -->
    <title>Group 36</title>
    <desc>Created with Sketch.</desc>
    <g id="Page-1" stroke="none" stroke-width="1" fill="none" fill-rule="evenodd">
        <g id="Wadoox" transform="translate(-996.000000, -2146.000000)">
            <g id="Group-21" transform="translate(996.000000, 1934.000000)">
                <g id="Group-16" transform="translate(0.000000, 212.000000)">
                    <g id="Group-36">
                        <circle id="Oval" fill="#6038F0" cx="25" cy="25" r="25"></circle>
                        <g id="chat" transform="translate(17.000000, 13.000000)" fill="#FFFFFF" fill-rule="nonzero">
                            <circle id="Oval" cx="4.5" cy="12.5" r="2.5"></circle>
                            <path d="M7.50034092,17 L2.49965908,17 C1.12096004,17 0,18.2331233 0,19.749775 L0,21.249925 C0,21.6639664 0.30546843,22 0.681849175,22 L9.31815083,22 C9.69453157,22 10,21.6639664 10,21.249925 L10,19.749775 C10,18.2331233 8.87903996,17 7.50034092,17 Z" id="Path"></path>
                            <path d="M19.4338044,0 L5.56619563,0 C4.70727086,0 4,0.702666667 4,1.556 L4,8.916 C4.14360148,8.89866667 4.29525539,8.88933333 4.44690929,8.88933333 C6.51369701,8.88933333 8.22215205,10.4453333 8.44627773,12.4453333 L10.2634404,12.4453333 L10.2634404,15.3333333 C10.2634404,15.6266667 10.4513302,15.884 10.7371911,15.9733333 C10.8002684,15.9906667 10.8713981,16 10.9344754,16 C11.1492066,16 11.3639378,15.8933333 11.4887503,15.7066667 L13.7434278,12.444 L19.4338044,12.444 C20.2927291,12.444 21,11.7413333 21,10.888 L21,1.55466667 C21,0.702666667 20.2927291,0 19.4338044,0 Z M12.1651535,5.556 L12.3892792,5.556 C13.3139654,5.556 14.0668667,6.304 14.0668667,7.22266667 C14.0668667,7.94533333 13.5984843,8.55733333 12.9489224,8.78666667 L12.9489224,9.11066667 C12.9489224,9.47866667 12.6482987,9.77733333 12.2778874,9.77733333 C11.9074761,9.77733333 11.6068525,9.47866667 11.6068525,9.11066667 L11.6068525,8.888 L11.1599432,8.888 C10.7895319,8.888 10.4889082,8.58933333 10.4889082,8.22133333 C10.4889082,7.85333333 10.7895319,7.55466667 11.1599432,7.55466667 L12.3906213,7.55466667 C12.575827,7.55466667 12.7261388,7.40533333 12.7261388,7.22133333 C12.7261388,7.03733333 12.575827,6.888 12.3906213,6.888 L12.1664956,6.888 C11.2418094,6.888 10.4889082,6.14 10.4889082,5.22133333 C10.4889082,4.49866667 10.9572906,3.88666667 11.6068525,3.65733333 L11.6068525,3.33333333 C11.6068525,2.96533333 11.9074761,2.66666667 12.2778874,2.66666667 C12.6482987,2.66666667 12.9489224,2.96533333 12.9489224,3.33333333 L12.9489224,3.556 L13.3958317,3.556 C13.766243,3.556 14.0668667,3.85466667 14.0668667,4.22266667 C14.0668667,4.59066667 13.766243,4.88933333 13.3958317,4.88933333 L12.1651535,4.88933333 C11.9799479,4.88933333 11.8296361,5.03866667 11.8296361,5.22266667 C11.8296361,5.40533333 11.9799479,5.556 12.1651535,5.556 Z" id="Shape"></path>
                        </g>
                    </g>
                </g>
            </g>
        </g>
    </g>
</svg>