<?xml version="1.0" encoding="UTF-8"?>
<svg width="50px" height="50px" viewBox="0 0 50 50" version="1.1" xmlns="http://www.w3.org/2000/svg" xmlns:xlink="http://www.w3.org/1999/xlink">
    <!-- Generator: Sketch 53.2 (72643) - https://sketchapp.com -->
    <title>Group 37</title>
    <desc>Created with Sketch.</desc>
    <g id="Page-1" stroke="none" stroke-width="1" fill="none" fill-rule="evenodd">
        <g id="Wadoox" transform="translate(-1302.000000, -2146.000000)">
            <g id="Group-21" transform="translate(996.000000, 1934.000000)">
                <g id="Group-17" transform="translate(306.000000, 212.000000)">
                    <g id="Group-37">
                        <circle id="Oval" fill="#F6CB52" cx="25" cy="25" r="25"></circle>
                        <g id="browser" transform="translate(12.000000, 12.000000)" fill="#FFFFFF" fill-rule="nonzero">
                            <g id="Group" transform="translate(0.750000, 6.531250)">
                                <path d="M3.55884375,15.9622813 C3.20821875,15.9622813 2.86396875,15.7885625 2.6615625,15.4698125 C2.346,14.9741563 2.492625,14.3175313 2.9866875,14.0019688 C3.82659375,13.4664688 4.7461875,13.005875 5.7215625,12.6313438 C7.60696875,11.9077813 9.6135,11.526875 11.6821875,11.5029688 C13.7460938,11.4774688 15.7669688,11.8105625 17.6699063,12.4895 C18.6548438,12.8417188 19.5855938,13.2815938 20.4366563,13.7947813 C20.9386875,14.0975938 21.0996563,14.7510313 20.79525,15.2530625 C20.4924375,15.7550938 19.839,15.9160625 19.3369688,15.6116563 C18.608625,15.1717813 17.8069688,14.7940625 16.9559063,14.4896563 C15.2920313,13.8951875 13.5134063,13.5955625 11.7092813,13.6258438 C9.89240625,13.6481563 8.1345,13.9796563 6.48496875,14.6139688 C5.64346875,14.9375 4.851375,15.3343438 4.12940625,15.7933438 C3.9525,15.9080938 3.754875,15.9622813 3.55884375,15.9622813 Z" id="Path"></path>
                                <path d="M13.5357188,4.61 C13.2695625,4.641875 13.0145625,4.66259375 12.75,4.67375 C12.4105313,4.705625 12.0694688,4.72634375 11.73,4.72634375 L11.5275938,4.72634375 C11.22,4.72634375 10.9219688,4.7151875 10.6239375,4.705625 C9.3808125,4.641875 8.1695625,4.43946875 7.00134375,4.12071875 C6.5758125,4.0139375 6.1614375,3.8864375 5.7470625,3.73821875 C5.48090625,3.64259375 5.22590625,3.54696875 4.97090625,3.4401875 C4.52465625,3.2489375 4.0895625,3.04653125 3.6751875,2.82340625 C3.44090625,2.69590625 3.20821875,2.56840625 2.98509375,2.42975 C2.47509375,2.12215625 2.31571875,1.4735 2.6233125,0.9635 C2.92134375,0.46465625 3.5795625,0.30528125 4.07840625,0.612875 C4.39715625,0.804125 4.7270625,0.97465625 5.06653125,1.14359375 C5.25778125,1.23921875 5.4601875,1.33484375 5.661,1.4193125 C5.916,1.52609375 6.18215625,1.63128125 6.457875,1.72690625 C6.86109375,1.8655625 7.26590625,1.9930625 7.669125,2.10940625 C8.63653125,2.35325 9.62465625,2.512625 10.6223438,2.5668125 C10.984125,2.5986875 11.3443125,2.5986875 11.7060938,2.5986875 C12.0248438,2.58753125 12.3324375,2.57796875 12.641625,2.55565625 C12.6735,2.65128125 12.705375,2.7580625 12.7484063,2.8536875 C12.9619688,3.4625 13.228125,4.04740625 13.5357188,4.61 L13.5357188,4.61 Z" id="Path"></path>
                                <path d="M16.8092813,8.913125 C16.861875,8.95615625 16.9049063,9.00875 16.9479375,9.05178125 L16.8092813,9.0629375 L12.75,9.08365625 L10.6255313,9.104375 L6.57740625,9.12509375 L4.44178125,9.1458125 L2.199375,9.15696875 L1.20009375,9.168125 C1.20009375,9.168125 1.20009375,9.168125 1.1889375,9.168125 C0.6151875,9.168125 0.1370625,8.70115625 0.12590625,8.11625 C0.12590625,7.53134375 0.592875,7.05321875 1.17778125,7.04365625 L2.1770625,7.0325 L4.4401875,7.01178125 L6.5758125,6.97990625 L10.6239375,6.936875 L11.8033125,6.92571875 L12.75,6.92571875 L15.0561563,6.9145625 C15.6617813,7.701875 16.288125,8.38240625 16.8092813,8.913125 L16.8092813,8.913125 Z" id="Path"></path>
                            </g>
                            <path d="M23.9757187,14.6682187 C23.9119687,15.0825937 23.5932187,15.4220625 23.1788437,15.5176875 C23.4242812,15.2738437 23.7,14.9869687 23.9757187,14.6682187 Z" id="Path"></path>
                            <path d="M13.5,9.388125 L13.5,25.1869688 C13.5,25.771875 13.021875,26.25 12.4369687,26.25 C11.8520625,26.25 11.3739375,25.771875 11.3739375,25.1869688 L11.3739375,3.9375 C11.3739375,3.35259375 11.8520625,2.87446875 12.4369687,2.87446875 C12.99,2.87446875 13.43625,3.3 13.4888437,3.83071875 C13.3294687,4.21321875 13.2019687,4.6164375 13.1175,5.0308125 C13.1175,5.05153125 13.1175,5.07384375 13.1063437,5.0945625 C13.021875,5.56153125 12.9676875,6.03965625 12.9676875,6.5289375 C12.9676875,7.40071875 13.1270625,8.26134375 13.3932187,9.09009375 C13.4250937,9.18571875 13.4569687,9.2925 13.5,9.388125 L13.5,9.388125 Z" id="Path"></path>
                            <path d="M23.9757188,14.6682188 C23.7,14.9869688 23.4226875,15.2738438 23.1788438,15.5176875 C22.5620625,16.1344688 22.0839375,16.5376875 21.9357188,16.6651875 C21.8719688,16.7177813 21.8082188,16.7608125 21.7333125,16.8038438 C21.4671563,17.9194688 21.0001875,18.9601875 20.3738438,19.8845625 C19.970625,20.4901875 19.4925,21.0432188 18.9601875,21.5420625 C18.6095625,21.8719688 18.2270625,22.1795625 17.8334063,22.4457188 C16.5711562,23.3175 15.09375,23.89125 13.5,24.0617813 C13.2338438,24.0936563 12.9692813,24.114375 12.703125,24.114375 C12.6075,24.1255313 12.5230313,24.1255313 12.4369688,24.1255313 C12.3509063,24.1255313 12.2664375,24.1255313 12.1708125,24.114375 C11.9046563,24.114375 11.6400938,24.0936563 11.3739375,24.0617813 C9.7801875,23.89125 8.30278125,23.3175 7.0389375,22.4473125 C6.69946875,22.2130313 6.35840625,21.9580313 6.0508125,21.6711563 C5.5089375,21.181875 5.01965625,20.64 4.60528125,20.034375 C3.71278125,18.7705313 3.127875,17.293125 2.94778125,15.6882188 C2.8951875,15.316875 2.872875,14.9439375 2.872875,14.5614375 C2.872875,14.2219688 2.89359375,13.8920625 2.92546875,13.5621563 C3.08484375,12.021 3.6155625,10.586625 4.42359375,9.35465625 C4.81725,8.737875 5.28421875,8.17528125 5.8149375,7.6764375 C6.1974375,7.30509375 6.60065625,6.9751875 7.03734375,6.67715625 C8.3011875,5.805375 9.77859375,5.231625 11.3723437,5.0626875 C11.6385,5.0308125 11.9030625,5.01009375 12.1692187,5.01009375 C12.2648437,4.9989375 12.3493125,4.9989375 12.435375,4.9989375 C12.5214375,4.9989375 12.6059062,4.9989375 12.7015312,5.01009375 C12.8401875,5.01009375 12.97725,5.01009375 13.1159062,5.0308125 C13.200375,4.6164375 13.327875,4.21321875 13.48725,3.83071875 C13.582875,3.5645625 13.6992187,3.32071875 13.8267187,3.076875 C13.8474375,3.045 13.86975,3.00196875 13.8793125,2.97009375 C13.531875,2.9175 13.18125,2.89678125 12.8194688,2.885625 C12.6919688,2.87446875 12.5644688,2.87446875 12.4369688,2.87446875 C12.3094687,2.87446875 12.1819688,2.87446875 12.0544687,2.885625 C5.78625,3.08803125 0.75,8.240625 0.75,14.5630313 C0.75,17.38875 1.74928125,19.970625 3.41634375,22.0010625 L3.60759375,22.2241875 C5.67946875,24.6036563 8.686875,26.1336563 12.0544687,26.2404375 C12.1819688,26.25 12.3094687,26.25 12.4369688,26.25 C12.5644688,26.25 12.6919688,26.25 12.8194688,26.2388438 C19.0876875,26.0364375 24.1239375,20.8838438 24.1239375,14.5614375 L24.1239375,14.5088438 C24.0825,14.5630313 24.0299062,14.615625 23.9757188,14.6682188 L23.9757188,14.6682188 Z" id="Path"></path>
                            <path d="M18.8757187,16.6667813 C18.7275,16.5392813 18.2908125,16.1679375 17.7075,15.5830313 L17.6963437,15.5830313 C17.6533125,15.54 17.611875,15.4874063 17.5576875,15.444375 C17.5688437,15.4874063 17.5576875,15.54 17.5576875,15.5925938 C17.4939375,16.655625 17.3345625,17.675625 17.0795625,18.6095625 C16.8994687,19.3315313 16.6651875,20.0120625 16.3894687,20.6288438 C15.6563437,22.265625 14.6363437,23.4545625 13.5,23.9119688 C13.2338437,24.01875 12.9692812,24.0825 12.703125,24.114375 C12.6075,24.1255313 12.5230312,24.1255313 12.4369687,24.1255313 C12.3509062,24.1255313 12.2664375,24.1255313 12.1708125,24.114375 C11.9046562,24.0825 11.6400937,24.01875 11.3739375,23.9119688 C10.2583125,23.4545625 9.25903125,22.3070625 8.52590625,20.7133125 C8.2501875,20.1076875 8.00475,19.4383125 7.8135,18.7163438 C7.5585,17.77125 7.38796875,16.7289375 7.32421875,15.6563438 C7.29234375,15.2945625 7.2811875,14.934375 7.2811875,14.5614375 C7.2811875,14.2108125 7.29234375,13.8601875 7.32421875,13.5095625 C7.3768125,12.5102813 7.526625,11.5444688 7.74975,10.6519688 C7.92984375,9.93 8.15296875,9.260625 8.419125,8.64384375 C9.16340625,6.93375 10.204125,5.690625 11.3723437,5.2125 C11.6385,5.10571875 11.9030625,5.04196875 12.1692187,5.01009375 C12.2648437,4.9989375 12.3493125,4.9989375 12.435375,4.9989375 C12.5214375,4.9989375 12.6059062,4.9989375 12.7015312,5.01009375 C12.8401875,5.02125 12.9676875,5.053125 13.10475,5.0945625 C13.1159062,5.07384375 13.1159062,5.05153125 13.1159062,5.0308125 C13.200375,4.6164375 13.327875,4.21321875 13.48725,3.83071875 C13.582875,3.5645625 13.6992187,3.32071875 13.8267187,3.076875 C13.5,2.98125 13.1605312,2.9175 12.8194687,2.885625 C12.6919687,2.87446875 12.5644687,2.87446875 12.4369687,2.87446875 C12.3094687,2.87446875 12.1819687,2.87446875 12.0544687,2.885625 C10.0463437,3.045 8.26134375,4.46821875 7.0389375,6.67875 C6.79509375,7.08196875 6.5926875,7.5075 6.41259375,7.95375 C6.136875,8.58009375 5.90259375,9.260625 5.7225,9.97303125 C5.435625,11.0775 5.25553125,12.2791875 5.19178125,13.5430313 C5.1710625,13.8825 5.15990625,14.2235625 5.15990625,14.5630313 C5.15990625,14.934375 5.1710625,15.3073125 5.19178125,15.6786563 C5.2666875,17.0174063 5.47865625,18.28125 5.8085625,19.4399063 C5.9998125,20.1523125 6.24365625,20.8216875 6.53053125,21.4480313 C6.67875,21.7986563 6.84928125,22.1285625 7.04053125,22.4473125 C8.2629375,24.6578438 10.0479375,26.0810625 12.0560625,26.2404375 C12.1819687,26.25 12.3094687,26.25 12.4369687,26.25 C12.5644687,26.25 12.6919687,26.25 12.8194687,26.2388438 C14.8275937,26.0794688 16.6125937,24.65625 17.835,22.4457188 C18.058125,22.0839375 18.249375,21.7014375 18.40875,21.2982188 C18.695625,20.671875 18.9299062,20.0025 19.11,19.2900938 C19.3124062,18.5776875 19.460625,17.835 19.5450937,17.0476875 C19.30125,16.9632188 19.078125,16.8357188 18.8757187,16.6667812 L18.8757187,16.6667813 Z" id="Path"></path>
                            <path d="M20.4057187,0.75 C17.1831562,0.75 14.5614375,3.3414375 14.5614375,6.52734375 C14.5614375,10.9515937 19.677375,15.2595 19.8957187,15.4411875 C20.0423437,15.5639063 20.2240312,15.6260625 20.4057187,15.6260625 C20.5874062,15.6260625 20.7675,15.5655 20.9157187,15.4411875 C21.1340625,15.2595 26.25,10.9515937 26.25,6.52734375 C26.25,3.3414375 23.6282812,0.75 20.4057187,0.75 Z M20.2734375,6.328125 L20.5395937,6.328125 C21.6376875,6.328125 22.5317812,7.22221875 22.5317812,8.3203125 C22.5317812,9.184125 21.9755625,9.91565625 21.2041875,10.1897813 L21.2041875,10.5770625 C21.2041875,11.0169375 20.8471875,11.3739375 20.4073125,11.3739375 C19.9674375,11.3739375 19.6104375,11.0169375 19.6104375,10.5770625 L19.6104375,10.3125 L19.078125,10.3125 C18.63825,10.3125 18.28125,9.9555 18.28125,9.515625 C18.28125,9.07575 18.63825,8.71875 19.078125,8.71875 L20.5395937,8.71875 C20.7595312,8.71875 20.9380312,8.54025 20.9380312,8.3203125 C20.9380312,8.100375 20.7595312,7.921875 20.5395937,7.921875 L20.2734375,7.921875 C19.1753437,7.921875 18.28125,7.02778125 18.28125,5.9296875 C18.28125,5.065875 18.8374687,4.33434375 19.6088437,4.06021875 L19.6088437,3.67134375 C19.6088437,3.23146875 19.9658437,2.87446875 20.4057187,2.87446875 C20.8455937,2.87446875 21.2025937,3.23146875 21.2025937,3.67134375 L21.2025937,3.9375 L21.7333125,3.9375 C22.1731875,3.9375 22.5301875,4.2945 22.5301875,4.734375 C22.5301875,5.17425 22.1731875,5.53125 21.7333125,5.53125 L20.2734375,5.53125 C20.0535,5.53125 19.875,5.70975 19.875,5.9296875 C19.875,6.149625 20.0535,6.328125 20.2734375,6.328125 Z" id="Shape"></path>
                        </g>
                    </g>
                </g>
            </g>
        </g>
    </g>
</svg>