<?xml version="1.0" encoding="UTF-8"?>
<svg width="50px" height="50px" viewBox="0 0 50 50" version="1.1" xmlns="http://www.w3.org/2000/svg" xmlns:xlink="http://www.w3.org/1999/xlink">
    <!-- Generator: Sketch 53.2 (72643) - https://sketchapp.com -->
    <title>Group 38</title>
    <desc>Created with Sketch.</desc>
    <g id="Page-1" stroke="none" stroke-width="1" fill="none" fill-rule="evenodd">
        <g id="Wadoox" transform="translate(-996.000000, -2342.000000)">
            <g id="Group-21" transform="translate(996.000000, 1934.000000)">
                <g id="Group-18" transform="translate(0.000000, 408.000000)">
                    <g id="Group-38">
                        <circle id="Oval" fill="#32C5FF" cx="25" cy="25" r="25"></circle>
                        <g id="videocall" transform="translate(12.000000, 12.000000)" fill-rule="nonzero">
                            <g id="Group" transform="translate(0.750000, 4.937500)" fill="#FFFFFF">
                                <path d="M24.703125,5.90571875 C24.2361563,5.90571875 23.7675938,5.7575 23.3755313,5.49134375 L23.3755313,13.8744688 L2.12446875,13.8744688 L2.12446875,2.1875 L11.15625,2.1875 L11.15625,0.06303125 L1.85990625,0.06303125 C0.83990625,0.06303125 0,0.90134375 0,1.92134375 L0,16.2650938 C0,17.2850938 0.83990625,18.125 1.85990625,18.125 L23.6416875,18.125 C24.6600938,18.125 25.5,17.2850938 25.5,16.2650938 L25.5,5.7670625 C25.245,5.86428125 24.9788438,5.90571875 24.703125,5.90571875 L24.703125,5.90571875 Z" id="Path"></path>
                                <path d="M16.8443437,20.4056562 C15.4482187,19.0095312 15.4067812,17.6580312 15.4067812,17.5910937 C15.4051875,17.2994375 15.1677187,17.0635625 14.8760625,17.0635625 L10.6048125,17.0635625 C10.3115625,17.0635625 10.0740937,17.3042187 10.0740937,17.5974687 C10.0740937,17.6548437 10.0549687,19.0079375 8.65725,20.4056562 C8.50584375,20.5570625 8.459625,20.7865625 8.5425,20.9841875 C8.6221875,21.1834062 8.816625,21.3125 9.03178125,21.3125 L16.4698125,21.3125 C16.6849687,21.3125 16.8794062,21.1834062 16.9606875,20.9841875 C17.0419687,20.7865625 16.99575,20.5570625 16.8443437,20.4056562 L16.8443437,20.4056562 Z" id="Path"></path>
                                <circle id="Oval" cx="10.6255313" cy="7.49946875" r="2.12446875"></circle>
                                <path d="M14.8744688,13.6099063 L14.8744688,13.8760625 L6.375,13.8760625 L6.375,13.6099063 C6.375,11.9954375 7.681875,10.6885625 9.29634375,10.6885625 L11.953125,10.6885625 C13.5675938,10.6869688 14.8744688,11.9938438 14.8744688,13.6099063 Z" id="Path"></path>
                            </g>
                            <path d="M25.453125,9.24946875 C25.2841875,9.24946875 25.11525,9.19528125 24.975,9.09009375 L23.0449687,7.64296875 C22.92225,8.5498125 22.1429062,9.24946875 21.2025937,9.24946875 L15.3583125,9.24946875 C14.3335312,9.24946875 13.4984062,8.4159375 13.4984062,7.3895625 L13.4984062,2.34375 C13.4984062,1.60903125 13.9860937,0.75 15.3583125,0.75 L21.2025937,0.75 C22.1923125,0.75 23.005125,1.52775 23.0593125,2.50471875 L24.943125,0.934875 C25.179,0.73565625 25.5105,0.69421875 25.791,0.82490625 C26.0715,0.9571875 26.25,1.2376875 26.25,1.546875 L26.25,8.45259375 C26.25,8.7538125 26.0794687,9.031125 25.810125,9.165 C25.6969687,9.222375 25.57425,9.24946875 25.453125,9.24946875 L25.453125,9.24946875 Z" id="Path" fill="#FFFFFF"></path>
                            <g id="Group-20" transform="translate(17.000000, 2.000000)" fill="#32C5FF">
                                <path d="M1.32839063,5.79574432 C1.10845313,5.79574432 0.929953125,5.60101705 0.929953125,5.36108523 L0.929953125,4.49176705 C0.929953125,4.25183523 1.10845313,4.05710795 1.32839063,4.05710795 C1.54832813,4.05710795 1.72682813,4.25183523 1.72682813,4.49176705 L1.72682813,5.36108523 C1.72682813,5.60101705 1.54832813,5.79574432 1.32839063,5.79574432 Z" id="Path"></path>
                                <path d="M1.52760938,4.92642614 L0.3984375,4.92642614 C0.1785,4.92642614 4.54747351e-13,4.73169886 4.54747351e-13,4.49176705 C4.54747351e-13,4.25183523 0.1785,4.05710795 0.3984375,4.05710795 L1.52760938,4.05710795 C1.71089063,4.05710795 1.85990625,3.89454545 1.85990625,3.69460227 C1.85990625,3.49465909 1.71089063,3.33209659 1.52760938,3.33209659 L1.12917188,3.33209659 C0.5068125,3.33209659 4.54747351e-13,2.78007955 4.54747351e-13,2.10027273 C4.54747351e-13,1.42133523 0.506015625,0.868448864 1.12917188,0.868448864 L2.25834375,0.868448864 C2.47828125,0.868448864 2.65678125,1.06317614 2.65678125,1.30310795 C2.65678125,1.54303977 2.47828125,1.73776705 2.25834375,1.73776705 L1.12917188,1.73776705 C0.945890625,1.73776705 0.796875,1.90032955 0.796875,2.10027273 C0.796875,2.30021591 0.945890625,2.46277841 1.12917188,2.46277841 L1.52760938,2.46277841 C2.14996875,2.46277841 2.65678125,3.01479545 2.65678125,3.69460227 C2.65598438,4.37353977 2.14996875,4.92642614 1.52760938,4.92642614 Z" id="Path"></path>
                                <path d="M1.32839063,1.73863636 C1.10845313,1.73863636 0.929953125,1.54390909 0.929953125,1.30397727 L0.929953125,0.434659091 C0.929953125,0.194727273 1.10845313,0 1.32839063,0 C1.54832813,0 1.72682813,0.194727273 1.72682813,0.434659091 L1.72682813,1.30397727 C1.72682813,1.54390909 1.54832813,1.73863636 1.32839063,1.73863636 Z" id="Path"></path>
                            </g>
                        </g>
                    </g>
                </g>
            </g>
        </g>
    </g>
</svg>