<?xml version="1.0" encoding="UTF-8"?>
<svg width="50px" height="50px" viewBox="0 0 50 50" version="1.1" xmlns="http://www.w3.org/2000/svg" xmlns:xlink="http://www.w3.org/1999/xlink">
    <!-- Generator: Sketch 53.2 (72643) - https://sketchapp.com -->
    <title>Group 39</title>
    <desc>Created with Sketch.</desc>
    <g id="Page-1" stroke="none" stroke-width="1" fill="none" fill-rule="evenodd">
        <g id="Wadoox" transform="translate(-1302.000000, -2342.000000)">
            <g id="Group-21" transform="translate(996.000000, 1934.000000)">
                <g id="Group-19" transform="translate(306.000000, 408.000000)">
                    <g id="Group-39">
                        <circle id="Oval" fill="#B620E0" cx="25" cy="25" r="25"></circle>
                        <g id="weight" transform="translate(12.000000, 12.000000)">
                            <path d="M13.5,8.71875 C11.3022188,8.71875 9.515625,6.93215625 9.515625,4.734375 C9.515625,2.53659375 11.3022188,0.75 13.5,0.75 C15.6977812,0.75 17.484375,2.53659375 17.484375,4.734375 C17.484375,6.93215625 15.6977813,8.71875 13.5,8.71875 Z M13.5,2.87446875 C12.4752187,2.87446875 11.6400938,3.708 11.6400938,4.734375 C11.6400938,5.76075 12.473625,6.59428125 13.5,6.59428125 C14.526375,6.59428125 15.3599063,5.76075 15.3599063,4.734375 C15.3599063,3.708 14.5247813,2.87446875 13.5,2.87446875 Z" id="Shape" fill="#E2CAF2" fill-rule="nonzero"></path>
                            <g id="Group" transform="translate(0.750000, 7.125000)">
                                <path d="M16.6020937,6.90571875 L15.4067812,6.90571875 L15.4067812,8.765625 L16.6020937,8.765625 C17.1152812,8.765625 17.53125,8.3480625 17.53125,7.83646875 C17.53125,7.32328125 17.1136875,6.90571875 16.6020937,6.90571875 L16.6020937,6.90571875 Z" id="Path" fill="#BE63F9" fill-rule="nonzero"></path>
                                <path d="M16.6020937,10.359375 L15.4067812,10.359375 L15.4067812,12.2192813 L16.6020937,12.2192813 C17.1152812,12.2192813 17.53125,11.8017188 17.53125,11.290125 C17.53125,10.7769375 17.1136875,10.359375 16.6020937,10.359375 L16.6020937,10.359375 Z" id="Path" fill="#BE63F9" fill-rule="nonzero"></path>
                                <path d="M22.459125,1.5268125 C22.2981562,0.64228125 21.528375,0 20.6295,0 L4.87209375,0 C3.97321875,0 3.2034375,0.64228125 3.04246875,1.5268125 L0.24225,16.9335938 C0.1434375,17.4770625 0.2900625,18.0332813 0.643875,18.4572187 C0.99609375,18.8811563 1.51725,19.125 2.07028125,19.125 L23.4297187,19.125 C23.98275,19.125 24.5039062,18.8811563 24.8577187,18.4572187 C25.2115312,18.0332812 25.3581562,17.4770625 25.2593437,16.9335938 L22.459125,1.5268125 Z M10.8900937,13.8130313 L7.171875,13.8130313 C6.732,13.8130313 6.375,13.4560313 6.375,13.0161563 L6.375,6.1104375 C6.375,5.6705625 6.732,5.3135625 7.171875,5.3135625 C7.61175,5.3135625 7.96875,5.6705625 7.96875,6.1104375 L7.96875,12.2192813 L10.8900937,12.2192813 C11.3299687,12.2192813 11.6869687,12.5762813 11.6869687,13.0161563 C11.6869687,13.4560313 11.3299687,13.8130313 10.8900937,13.8130313 Z M19.125,11.2885313 C19.125,12.679875 17.9934375,13.8114375 16.6020937,13.8114375 L14.6099062,13.8114375 C14.1700312,13.8114375 13.8130312,13.4544375 13.8130312,13.0145625 L13.8130312,6.10884375 C13.8130312,5.66896875 14.1700312,5.31196875 14.6099062,5.31196875 L16.6020937,5.31196875 C17.9934375,5.31196875 19.125,6.44353125 19.125,7.834875 C19.125,8.50265625 18.8652187,9.109875 18.4396875,9.56090625 C18.8652187,10.015125 19.125,10.6223437 19.125,11.2885312 L19.125,11.2885313 Z" id="Shape" fill="#FFFFFF" fill-rule="nonzero"></path>
                                <polygon id="Path-2" fill="#FFFFFF" points="5.25 3.5 3.43729931 15.4357689 21.6532571 15.4357689 19.656752 3.5"></polygon>
                                <g id="Group-20" transform="translate(11.000000, 6.000000)" fill="#B620E0" fill-rule="nonzero">
                                    <path d="M1.7711875,7.72765909 C1.4779375,7.72765909 1.2399375,7.46802273 1.2399375,7.14811364 L1.2399375,5.98902273 C1.2399375,5.66911364 1.4779375,5.40947727 1.7711875,5.40947727 C2.0644375,5.40947727 2.3024375,5.66911364 2.3024375,5.98902273 L2.3024375,7.14811364 C2.3024375,7.46802273 2.0644375,7.72765909 1.7711875,7.72765909 Z" id="Path"></path>
                                    <path d="M2.0368125,6.56856818 L0.53125,6.56856818 C0.238,6.56856818 4.54747351e-13,6.30893182 4.54747351e-13,5.98902273 C4.54747351e-13,5.66911364 0.238,5.40947727 0.53125,5.40947727 L2.0368125,5.40947727 C2.2811875,5.40947727 2.479875,5.19272727 2.479875,4.92613636 C2.479875,4.65954545 2.2811875,4.44279545 2.0368125,4.44279545 L1.5055625,4.44279545 C0.67575,4.44279545 4.54747351e-13,3.70677273 4.54747351e-13,2.80036364 C4.54747351e-13,1.89511364 0.6746875,1.15793182 1.5055625,1.15793182 L3.011125,1.15793182 C3.304375,1.15793182 3.542375,1.41756818 3.542375,1.73747727 C3.542375,2.05738636 3.304375,2.31702273 3.011125,2.31702273 L1.5055625,2.31702273 C1.2611875,2.31702273 1.0625,2.53377273 1.0625,2.80036364 C1.0625,3.06695455 1.2611875,3.28370455 1.5055625,3.28370455 L2.0368125,3.28370455 C2.866625,3.28370455 3.542375,4.01972727 3.542375,4.92613636 C3.5413125,5.83138636 2.866625,6.56856818 2.0368125,6.56856818 Z" id="Path"></path>
                                    <path d="M1.7711875,2.31818182 C1.4779375,2.31818182 1.2399375,2.05854545 1.2399375,1.73863636 L1.2399375,0.579545455 C1.2399375,0.259636364 1.4779375,0 1.7711875,0 C2.0644375,0 2.3024375,0.259636364 2.3024375,0.579545455 L2.3024375,1.73863636 C2.3024375,2.05854545 2.0644375,2.31818182 1.7711875,2.31818182 Z" id="Path"></path>
                                </g>
                            </g>
                        </g>
                    </g>
                </g>
            </g>
        </g>
    </g>
</svg>