<svg xmlns="http://www.w3.org/2000/svg" xmlns:xlink="http://www.w3.org/1999/xlink" width="1260.407" height="972" viewBox="0 0 1260.407 972">
  <defs>
    <clipPath id="clip-path">
      <path id="Mask" d="M.388,690.328a89.647,89.647,0,0,0,19.855,65.119A87.827,87.827,0,0,0,79.857,787.3a89.988,89.988,0,0,0,14.831.136c15.29.845,192.914-15.013,244.338,91.2a169.429,169.429,0,0,0,272.356,42.533l74.372-67.056a233.9,233.9,0,0,1,127.09-61.279l139.63-20a250.72,250.72,0,0,0,27.263-4.005h.351c129.206-26.157,216.135-149.159,198.687-281.135s-133.283-227.609-264.753-218.58l-137.391-1.88A234.216,234.216,0,0,1,587.868,166.69c-11.649-16.675-24.755-40.162-26.292-44.549h-.135C520.419,35.121,426.941-13.511,333.01,3.3S167.817,98.22,158.867,194.183c-.162,1.608-13.483,238.441-13.483,238.441v1.035a236.77,236.77,0,0,1-67.172,149.86l-50.4,50.271A89.154,89.154,0,0,0,.388,690.328Z" transform="translate(0.57)" fill="#6038f0"/>
    </clipPath>
    <clipPath id="clip-path-2">
      <path id="Clip_15" data-name="Clip 15" d="M29.834,0,0,.337S.616,13.093,14.428,13.093C28.16,13.093,29.834,0,29.834,0" transform="translate(0.801 0.201)" fill="none"/>
    </clipPath>
    <clipPath id="clip-path-3">
      <path id="Clip_118" data-name="Clip 118" d="M0,0,26.349,1.076S25.77,13.364,12.825,13.364C-.048,13.364,0,0,0,0" transform="translate(0.578 0.398)" fill="none"/>
    </clipPath>
  </defs>
  <g id="Group_3" data-name="Group 3" transform="translate(-919.163 -4650)">
    <g id="Group_30" data-name="Group 30" transform="translate(998 4650)">
      <g id="Path">
        <path id="Mask-2" data-name="Mask" d="M.388,690.328a89.647,89.647,0,0,0,19.855,65.119A87.827,87.827,0,0,0,79.857,787.3a89.988,89.988,0,0,0,14.831.136c15.29.845,192.914-15.013,244.338,91.2a169.429,169.429,0,0,0,272.356,42.533l74.372-67.056a233.9,233.9,0,0,1,127.09-61.279l139.63-20a250.72,250.72,0,0,0,27.263-4.005h.351c129.206-26.157,216.135-149.159,198.687-281.135s-133.283-227.609-264.753-218.58l-137.391-1.88A234.216,234.216,0,0,1,587.868,166.69c-11.649-16.675-24.755-40.162-26.292-44.549h-.135C520.419,35.121,426.941-13.511,333.01,3.3S167.817,98.22,158.867,194.183c-.162,1.608-13.483,238.441-13.483,238.441v1.035a236.77,236.77,0,0,1-67.172,149.86l-50.4,50.271A89.154,89.154,0,0,0,.388,690.328Z" transform="translate(0.57)" fill="#6038f0"/>
        <g id="Path-2" data-name="Path" clip-path="url(#clip-path)">
          <path id="Path-3" data-name="Path" d="M.388,690.328a89.647,89.647,0,0,0,19.855,65.119A87.827,87.827,0,0,0,79.857,787.3a89.988,89.988,0,0,0,14.831.136c15.29.845,192.914-15.013,244.338,91.2a169.429,169.429,0,0,0,272.356,42.533l74.372-67.056a233.9,233.9,0,0,1,127.09-61.279l139.63-20a250.72,250.72,0,0,0,27.263-4.005h.351c129.206-26.157,216.135-149.159,198.687-281.135s-133.283-227.609-264.753-218.58l-137.391-1.88A234.216,234.216,0,0,1,587.868,166.69c-11.649-16.675-24.755-40.162-26.292-44.549h-.135C520.419,35.121,426.941-13.511,333.01,3.3S167.817,98.22,158.867,194.183c-.162,1.608-13.483,238.441-13.483,238.441v1.035a236.77,236.77,0,0,1-67.172,149.86l-50.4,50.271A89.154,89.154,0,0,0,.388,690.328Z" transform="matrix(-0.839, 0.545, -0.545, -0.839, 1483.859, 960.188)" fill="#df215c"/>
        </g>
      </g>
      <g id="Group_29" data-name="Group 29" transform="translate(232 463)">
        <path id="Fill_7" data-name="Fill 7" d="M34-11.169,20.867-22.029,17.8-32.452,15.323-34,11.277-20.723,0-13.873l13.063-.878Q13.527-7.366,14.232,0c2.4-4.618,4.89-9.36,7.03-14.106L34-11.169" transform="translate(117 -344)" fill="#fff"/>
        <path id="Fill_8" data-name="Fill 8" d="M34-11.168,20.869-22.028,17.8-32.454,15.323-34,11.28-20.724,0-13.872l13.066-.879Q13.53-7.363,14.233,0c2.4-4.617,4.888-9.359,7.027-14.106L34-11.168" transform="translate(569 -110)" fill="#fff"/>
        <path id="Fill_9" data-name="Fill 9" d="M21.259-14.348C19.119-9.519,16.633-4.7,14.232,0q-.71-7.49-1.172-15L0-14.109l11.277-6.967L16.348-38l4.515,15.6L34-11.357,21.259-14.348" transform="translate(99 -203)" fill="#fff"/>
        <path id="Fill_14" data-name="Fill 14" d="M15-7.5A7.5,7.5,0,0,0,7.5-15,7.5,7.5,0,0,0,0-7.5,7.5,7.5,0,0,0,7.5,0,7.5,7.5,0,0,0,15-7.5" transform="translate(38 -280)" fill="#f9d673"/>
        <path id="Fill_17" data-name="Fill 17" d="M15-7.5A7.5,7.5,0,0,0,7.5-15,7.5,7.5,0,0,0,0-7.5,7.5,7.5,0,0,0,7.5,0,7.5,7.5,0,0,0,15-7.5" transform="translate(432)" fill="#ffe471"/>
        <path id="Fill_18" data-name="Fill 18" d="M15-7.5A7.5,7.5,0,0,0,7.5-15,7.5,7.5,0,0,0,0-7.5,7.5,7.5,0,0,0,7.5,0,7.5,7.5,0,0,0,15-7.5" transform="translate(0 -341)" fill="#fff"/>
      </g>
    </g>
    <g id="Group_31" data-name="Group 31" transform="translate(919 4896)">
      <g id="Group">
        <path id="Fill_2" data-name="Fill 2" d="M42.861,34.133s4.464,27.451-2.75,34.679C26.348,82.6-15.923,89.019,6.376,148h194.5s9.624-23.485-12.1-37.137c0,0-7.565-5.288-2.925-21.212S178.927,62.41,164.744,45.4L136.845,0,42.861,34.133" transform="translate(94 77)" fill="#130b0a"/>
        <path id="Fill_3" data-name="Fill 3" d="M0,63c0,34.793,29.55,63,66,63s66-28.207,66-63S102.45,0,66,0,0,28.207,0,63" transform="translate(137 44)" fill="#130b0a"/>
        <path id="Fill_4" data-name="Fill 4" d="M.735,21.93A17,17,0,1,0,12.07.736,17,17,0,0,0,.735,21.93" transform="translate(246 114)" fill="#ea8e62"/>
        <path id="Fill_5" data-name="Fill 5" d="M57,38.955,55.339,115,0,111.92,11.293,0,57,38.955" transform="translate(170 132)" fill="#ee9d74"/>
        <path id="Fill_6" data-name="Fill 6" d="M25.555,31S1.057,28.427,0,0L26,14.021,25.555,31" transform="translate(200 163)" fill="#1d0b19"/>
        <path id="Fill_7-2" data-name="Fill 7" d="M88.474,14.2a25.159,25.159,0,0,1,8.234,14.392c3.3,16.49,9.781,45.54,3.941,63.043-7.6,22.762-26.1,38.9-55.992,33.222,0,0-35.824-3.613-43.191-48.948C-10.272,3.674,51.212-17.265,88.474,14.2" transform="translate(170 55)" fill="#ee9d74"/>
        <path id="Fill_8-2" data-name="Fill 8" d="M.133,5.018A4,4,0,1,0,2.983.133,4,4,0,0,0,.133,5.018" transform="translate(260 113)" fill="#1d0b19"/>
        <path id="Fill_9-2" data-name="Fill 9" d="M.133,5.017A4,4,0,1,0,2.984.132,4,4,0,0,0,.133,5.017" transform="translate(227 114)" fill="#1d0b19"/>
        <path id="Fill_10" data-name="Fill 10" d="M3.126,1.131,6.148,8.559l.874-.29-.909.179.025.205a.967.967,0,0,1-.776.911l.242.811L5.435,9.55l-4.672.781a.851.851,0,0,0-.747.981.93.93,0,0,0,1.085.674L5.775,11.2l.071-.015A2.686,2.686,0,0,0,8,8.654a2.386,2.386,0,0,0-.067-.565L7.9,7.98,4.873.551a.961.961,0,0,0-1.2-.5.82.82,0,0,0-.553,1.079" transform="translate(249 127)" fill="#1d0b19"/>
        <path id="Fill_11" data-name="Fill 11" d="M13.483.4S25.366-1.7,26,3.749c0,0,.336,3.7-10.052,5.3S1.405,10.389.123,7,7.867.9,13.483.4" transform="translate(211 87)" fill="#1d0b19"/>
        <path id="Fill_12" data-name="Fill 12" d="M12.463.47S1.59-1.72.028,3.355c0,0-.981,3.47,8.576,5.145,6.957,1.218,9.552.111,10.26-2.217C19.7,3.527,16.573.98,12.463.47" transform="translate(256 88)" fill="#1d0b19"/>
        <path id="Fill_13" data-name="Fill 13" d="M30,0,0,.361S.62,14,14.508,14C28.316,14,30,0,30,0" transform="translate(228 144)" fill="#130b0a"/>
        <g id="Group_17" data-name="Group 17" transform="translate(228 144)">
          <path id="Clip_15-2" data-name="Clip 15" d="M29.834,0,0,.337S.616,13.093,14.428,13.093C28.16,13.093,29.834,0,29.834,0" transform="translate(0.801 0.201)" fill="none"/>
          <g id="Group_17-2" data-name="Group 17" clip-path="url(#clip-path-2)">
            <path id="Fill_14-2" data-name="Fill 14" d="M.961,14.742A10.559,10.559,0,0,0,14.9,19.854,10.355,10.355,0,0,0,20.065,6.063,10.558,10.558,0,0,0,6.128.951,10.356,10.356,0,0,0,.961,14.742" transform="translate(-1.254 6.747)" fill="#d06fa0"/>
            <path id="Fill_16" data-name="Fill 16" d="M33.862,6.943,0,6.893V1.229L33.862,0V6.943" transform="translate(-1.214 -2.767)" fill="#fffffe"/>
          </g>
        </g>
        <path id="Fill_18-2" data-name="Fill 18" d="M20.993,42h-.24A20.773,20.773,0,0,1,5.976,35.627,21.318,21.318,0,0,1,3.724,8.789a21.058,21.058,0,0,1,9.321-7.567c.189,0,.4.007.66.007A66.549,66.549,0,0,0,23.34.259C23.869.179,24.381.092,24.862,0a21.1,21.1,0,0,1,15.9,13.62,21.344,21.344,0,0,1-5.006,22.266A20.792,20.792,0,0,1,20.993,42ZM27.6,17.86a4.07,4.07,0,0,0-1.008.13,3.925,3.925,0,0,0-2.425,1.829,3.835,3.835,0,0,0-.4,2.94A3.949,3.949,0,0,0,27.6,25.671a4.016,4.016,0,0,0,1.01-.13,3.92,3.92,0,0,0,2.422-1.827,3.833,3.833,0,0,0,.4-2.94A3.946,3.946,0,0,0,27.6,17.86Z" transform="translate(204 97)" fill="#efa67f"/>
        <path id="Fill_19" data-name="Fill 19" d="M4,8A4,4,0,0,1,2.984.133,4.055,4.055,0,0,1,4,0,4,4,0,0,1,4,8" transform="translate(227 114)" fill="#382832"/>
        <path id="Fill_20" data-name="Fill 20" d="M.669,1.843c-.23,0-.455,0-.669-.008A20.261,20.261,0,0,1,8.084.157H8.33A20.367,20.367,0,0,1,12,.535q-.731.147-1.546.276A65.791,65.791,0,0,1,.669,1.843" transform="translate(216 97)" fill="#382832"/>
        <path id="Fill_21" data-name="Fill 21" d="M8.839,40a17.187,17.187,0,0,0,.687-11.781,16.958,16.958,0,0,0-6.841-9.287C2.047,12.686,1.048,6.443,0,.684A15.243,15.243,0,0,1,4.522,0H4.7C14.382.113,22.126,9.3,22,20.531,21.893,29.912,16.319,37.747,8.839,40" transform="translate(270 97)" fill="#f2b8ab"/>
        <path id="Fill_22" data-name="Fill 22" d="M1.833,22l-.19,0Q.92,21.99.21,21.922A96.375,96.375,0,0,0,0,0,17.255,17.255,0,0,1,7.23,9.407,16.738,16.738,0,0,1,6.5,21.34,16.84,16.84,0,0,1,1.833,22" transform="translate(272 116)" fill="#ec986d"/>
        <path id="Fill_23" data-name="Fill 23" d="M16.476,40h0A17.339,17.339,0,0,1,4.689,33.424,21.761,21.761,0,0,1,0,19.49,21.875,21.875,0,0,1,3.912,7.1,19.29,19.29,0,0,1,8.165,2.7,17.168,17.168,0,0,1,13.5,0c1.3,6.931,2.208,12.916,2.775,18.3A95.013,95.013,0,0,1,16.476,40ZM8.146,15.651a4.123,4.123,0,0,0-1.016.13,3.942,3.942,0,0,0-2.442,1.836,3.832,3.832,0,0,0-.4,2.944,4.009,4.009,0,0,0,7.305.953,3.833,3.833,0,0,0,.4-2.943A3.972,3.972,0,0,0,8.146,15.651Z" transform="translate(256 98)" fill="#efa67f"/>
        <path id="Fill_24" data-name="Fill 24" d="M4,8A4,4,0,0,1,2.983.133,4.059,4.059,0,0,1,4,0,4,4,0,0,1,4,8" transform="translate(260 113)" fill="#382832"/>
        <path id="Fill_25" data-name="Fill 25" d="M42.809,22.74l-1.191-.013A19.877,19.877,0,0,1,21.992,42.615l-.225,0a19.865,19.865,0,0,1-19.389-20.1l0-.242v0A19.879,19.879,0,0,1,22.006,2.385l.225,0a19.865,19.865,0,0,1,19.389,20.1l0,.246v0l1.191.013L44,22.752l0-.269A22.25,22.25,0,0,0,22.259,0l-.253,0A22.26,22.26,0,0,0,0,22.247v0l0,.274A22.248,22.248,0,0,0,21.741,45l.251,0A22.26,22.26,0,0,0,44,22.753v0l-1.189-.011" transform="translate(202 95)" fill="#fffffe"/>
        <path id="Fill_26" data-name="Fill 26" d="M36.81,21.706l-1.188-.015A20.6,20.6,0,0,1,30.6,35.158a15.57,15.57,0,0,1-11.65,5.474h-.17A15.533,15.533,0,0,1,7.217,35.037a20.541,20.541,0,0,1-4.84-13.469l0-.257v0A20.608,20.608,0,0,1,7.4,7.844a15.581,15.581,0,0,1,11.65-5.476l.168,0A15.518,15.518,0,0,1,30.783,7.964a20.543,20.543,0,0,1,4.842,13.467l0,.263v0l1.188.015,1.19.009v-.284A22.89,22.89,0,0,0,32.581,6.415,17.914,17.914,0,0,0,19.248,0l-.2,0A17.973,17.973,0,0,0,5.622,6.274,22.964,22.964,0,0,0,0,21.283v0l0,.289A22.9,22.9,0,0,0,5.419,36.585,17.907,17.907,0,0,0,18.752,43l.2,0a17.954,17.954,0,0,0,13.43-6.274A22.961,22.961,0,0,0,38,21.719v0l-1.19-.009" transform="translate(255 97)" fill="#fffffe"/>
        <path id="Fill_27" data-name="Fill 27" d="M2.2,4.575,1.84,4.256l.357.323,0,0L1.84,4.256l.357.323A6.759,6.759,0,0,1,3.539,3.511a6.343,6.343,0,0,1,3.334-.994A7.8,7.8,0,0,1,11.93,4.669a1.259,1.259,0,0,0,1.623-1.924A10.319,10.319,0,0,0,6.874,0,8.9,8.9,0,0,0,2.11,1.437,8.906,8.906,0,0,0,.317,2.907,1.259,1.259,0,0,0,2.2,4.575" transform="translate(243 115)" fill="#fffffe"/>
        <path id="Fill_28" data-name="Fill 28" d="M19.386.074.768,6.808a1.117,1.117,0,0,0-.69,1.461,1.209,1.209,0,0,0,1.536.656L20.232,2.191A1.117,1.117,0,0,0,20.922.73,1.211,1.211,0,0,0,19.386.074" transform="translate(183 116)" fill="#fffffe"/>
        <path id="Fill_29" data-name="Fill 29" d="M8.954,63.967C11.8,65.151,64.017,33.953,37.525,0,37.525,0-2.191,9.259.1,63.941l8.859.026" transform="translate(167 56)" fill="#130b0a"/>
        <path id="Fill_30" data-name="Fill 30" d="M20.717,24.035S55.662,15.561,76,32.877C76,32.877,66.146,1.6,18.087,0L0,40,20.717,24.035" transform="translate(188 44)" fill="#130b0a"/>
        <path id="Fill_31" data-name="Fill 31" d="M0,26.5A26.5,26.5,0,1,0,26.5,0,26.5,26.5,0,0,0,0,26.5" transform="translate(126 17)" fill="#130b0a"/>
        <path id="Fill_32" data-name="Fill 32" d="M16,0,12.558,36,0,3.045,16,0" transform="translate(172 102)" fill="#111"/>
        <path id="Fill_33" data-name="Fill 33" d="M.909,27.088a20.994,20.994,0,1,0,14-26.18,20.991,20.991,0,0,0-14,26.18" transform="translate(145 114)" fill="#ee9d74"/>
        <path id="Fill_34" data-name="Fill 34" d="M1.077,2.08l.062-.016a17.577,17.577,0,0,1,4.019-.445,14.644,14.644,0,0,1,7.846,2.094c2.622,1.662,5.03,4.54,6.329,9.669a.846.846,0,0,0,1.018.6A.808.808,0,0,0,20.976,13c-1.366-5.44-4.042-8.753-7.043-10.641A16.413,16.413,0,0,0,5.159,0,18.653,18.653,0,0,0,.611.527a.8.8,0,0,0-.578,1,.851.851,0,0,0,1.045.554" transform="translate(156 128)" fill="#1d0b19"/>
        <path id="Fill_35" data-name="Fill 35" d="M38.109,0S68,17.632,68,63.439V194.747a33.412,33.412,0,0,1-66.821.227L0,21.97,38.109,0" transform="translate(237 256)" fill="#232325"/>
        <path id="Fill_36" data-name="Fill 36" d="M137.759,0,152,18.474l-109.231,97.3A26.886,26.886,0,1,1,15.135,69.9L137.759,0" transform="translate(244 366)" fill="#ee9d74"/>
        <path id="Fill_37" data-name="Fill 37" d="M0,39.75l7.8-13.5a51.959,51.959,0,0,1,16.573-17.5L36.385.9a5.526,5.526,0,0,1,8.077,2.392,7.027,7.027,0,0,1-1.421,7.752L32.375,21.9,89.755,5.514a4.274,4.274,0,0,1,5.471,3.337l.3,1.694a4.259,4.259,0,0,1-2.653,4.7L59.2,26.014l40.4-7.035a4.272,4.272,0,0,1,5.238,3.666l.142,1.256a4.261,4.261,0,0,1-3.248,4.62L59.911,37.08l34.67-.7a4.262,4.262,0,0,1,4.4,4.984l-.095.543a4.268,4.268,0,0,1-3.662,3.49l-36.092,4.65,22.157.006a4.258,4.258,0,0,1,.394,8.5L.982,66,0,39.75" transform="translate(381 326)" fill="#ee9d74"/>
        <path id="Fill_38" data-name="Fill 38" d="M86.439,4.579S32.071,16.372,11.25,66.912,4.887,291.135,4.887,291.135s103.411,48.555,193.674-6.156L216,23.784S195.816,9.3,179.36,0L86.439,4.579" transform="translate(59 233)" fill="#232325"/>
        <path id="Fill_39" data-name="Fill 39" d="M41.641,0S26.418,3.411,0,16.2c0,0,39.5,30.777,70.721,67.8,0,0,24.288-25.02,22.145-72.395L62.019,0H41.641" transform="translate(145 221)" fill="#ee9d74"/>
        <path id="Fill_40" data-name="Fill 40" d="M7.7,1.49,0,113.3A1.615,1.615,0,0,0,1.541,115,1.63,1.63,0,0,0,3.3,113.51L11,1.7A1.65,1.65,0,0,0,7.7,1.49" transform="translate(261 317)" fill="#7f3558"/>
        <path id="Fill_49" data-name="Fill 49" d="M6.9,64.38S-7.912,53.128,5.867,34.3L26.534,4.919a5.406,5.406,0,0,1,7.986-.775A5.234,5.234,0,0,1,35.882,9.9L29.509,27.292,68.7,1.124A5.851,5.851,0,0,1,77.315,3.1a5.674,5.674,0,0,1-1.531,7.1L50.543,29.517l.492,1.524L80.007,14.764A5.61,5.61,0,0,1,87.782,18.5a5.5,5.5,0,0,1-3.093,6.291L56.71,42.462l.407,1.939,27.3-11.528c6.758-3.2,8.864-.07,9.529,2.4.622,2.3-4.463,5.438-6.755,6.189L58.952,55.537l.308,1.8,26.186-9.912a3.977,3.977,0,0,1,1.267,7.853L56.836,67.828s-27.286,18.366-39.656,8L6.9,64.38" transform="translate(193 295)" fill="#e9895b"/>
        <path id="Fill_50" data-name="Fill 50" d="M2.155,1.768l.027.049A27.984,27.984,0,0,1,5.474,14.682,22.232,22.232,0,0,1,.261,29.088a1.141,1.141,0,0,0,.232,1.665,1.316,1.316,0,0,0,1.772-.218A24.538,24.538,0,0,0,8,14.682,30.038,30.038,0,0,0,4.359.607,1.306,1.306,0,0,0,2.639.152a1.15,1.15,0,0,0-.485,1.616" transform="translate(219 320)" fill="#e5743e"/>
        <path id="Fill_51" data-name="Fill 51" d="M0,18.479,45.382,0,65,26.565,14.126,53,0,18.479" transform="translate(159 343)" fill="#e9895b"/>
        <path id="Fill_52" data-name="Fill 52" d="M16.02,44.911,128.491,0,151,48.131,52.836,112.165a34.453,34.453,0,0,1-45.6-9.531c-11.8-16.612-9.364-48.2,8.785-57.723" transform="translate(54 344)" fill="#232325"/>
        <path id="Fill_52-2" data-name="Fill 52" d="M16.012,44.9,128.529,0l22.55,48.2-98.19,64.052a34.484,34.484,0,0,1-45.634-9.568C-4.567,86.045-2.142,54.418,16.012,44.9" transform="matrix(-0.616, 0.788, -0.788, -0.616, 185.436, 342.172)" fill="#232325"/>
        <path id="Fill_53" data-name="Fill 53" d="M17.794.117,1,6.907a1.6,1.6,0,0,0,1.2,2.975L19,3.093a1.6,1.6,0,0,0-1.2-2.975" transform="translate(91 374)" fill="#fff"/>
        <path id="Fill_76" data-name="Fill 76" d="M134.447,0s7.977,49.328,25.848,77.032a11.444,11.444,0,0,1-3.606,15.609c-20.179,12.967-76.955,37.555-149.466,9.4A11.5,11.5,0,0,1,.074,89.991c1.484-13.335,13.124-39.517,30.233-63L134.447,0" transform="translate(372 77)" fill="#111"/>
        <path id="Fill_77" data-name="Fill 77" d="M33.266,21.285a17.09,17.09,0,0,1-21.194,11A16.418,16.418,0,0,1,.735,11.716,17.087,17.087,0,0,1,21.93.714,16.42,16.42,0,0,1,33.266,21.285" transform="translate(373 102)" fill="#ed9c74"/>
        <path id="Fill_78" data-name="Fill 78" d="M0,38.1,1.6,106,54,99.824,44.068,0,0,38.1" transform="translate(425 120)" fill="#efa781"/>
        <path id="Fill_79" data-name="Fill 79" d="M.393,29S23.984,27.768,25,0L0,13.695.393,29" transform="translate(426 154)" fill="#1d0b19"/>
        <path id="Fill_80" data-name="Fill 80" d="M14.093,13.794a24.476,24.476,0,0,0-7.988,14c-3.2,16.034-9.492,49.38-3.824,66.4,7.371,22.131,25.315,36.126,54.316,30.6,0,0,33.61-1.532,41.9-51,11.765-70.173-48.258-90.6-84.4-60" transform="translate(380 45)" fill="#efa781"/>
        <path id="Fill_81" data-name="Fill 81" d="M7.868,5.017A4,4,0,1,1,5.017.132,4,4,0,0,1,7.868,5.017" transform="translate(384 105)" fill="#1d0b19"/>
        <path id="Fill_82" data-name="Fill 82" d="M7.867,5.017A4,4,0,1,1,5.017.132a4,4,0,0,1,2.85,4.885" transform="translate(417 106)" fill="#1d0b19"/>
        <path id="Fill_83" data-name="Fill 83" d="M3.955.532.064,10.077a.874.874,0,0,0,.023.711.844.844,0,0,0,.539.452l6.306,1.73a.846.846,0,0,0,1.038-.608.862.862,0,0,0-.6-1.057L2,9.832,5.521,1.194A.871.871,0,0,0,5.063.066.843.843,0,0,0,3.955.532" transform="translate(394 118)" fill="#1d0b19"/>
        <path id="Fill_84" data-name="Fill 84" d="M12.516.4S.632-1.7,0,3.748c0,0-.338,3.7,10.052,5.3S24.6,10.389,25.877,6.995,18.134.9,12.516.4" transform="translate(412 87)" fill="#170e36"/>
        <path id="Fill_85" data-name="Fill 85" d="M6.193.47s10.3-2.19,11.78,2.884c0,0,.93,3.471-8.123,5.145C3.256,9.718.8,8.609.13,6.284-.665,3.526,2.3.981,6.193.47" transform="translate(378 88)" fill="#170e36"/>
        <path id="Fill_86" data-name="Fill 86" d="M0,0,21,.32S21.048,8.1,10.346,8,0,0,0,0" transform="translate(398 137)" fill="#fffffe"/>
        <path id="Fill_87" data-name="Fill 87" d="M79.727,80.381S62.069,64.839,65.584,34.6A295.885,295.885,0,0,1,0,37.267S7.944-9.473,75.637,1.736C145.976,13.382,120.03,94.3,93.891,118L79.727,80.381" transform="translate(386 33)" fill="#170e36"/>
        <path id="Fill_88" data-name="Fill 88" d="M40.114,26.445A20.495,20.495,0,1,1,26.444.886,20.494,20.494,0,0,1,40.114,26.445" transform="translate(459 101)" fill="#efa781"/>
        <path id="Fill_89" data-name="Fill 89" d="M19.418.526A17.058,17.058,0,0,0,15.085,0,15.052,15.052,0,0,0,6.73,2.362C3.87,4.248,1.322,7.56.022,13a.8.8,0,1,0,1.563.38c1.237-5.128,3.53-8.006,6.028-9.668a13.454,13.454,0,0,1,7.472-2.1,17.146,17.146,0,0,1,2.823.235c.346.059.619.119.8.161l.206.05.059.017A.808.808,0,0,0,19.418.526" transform="translate(470 114)" fill="#1d0b19"/>
        <path id="Fill_90" data-name="Fill 90" d="M65.65,0C65.742-.084,7.309,1.01,0,47.907L92.461,50,98,18.778,65.65,0" transform="translate(370 33)" fill="#111"/>
        <path id="Fill_91" data-name="Fill 91" d="M29.808,0l6.465,87.677L0,198H40.247L103,137.525,96.259,5.627,29.808,0" transform="translate(331 340)" fill="#efa781"/>
        <path id="Fill_92" data-name="Fill 92" d="M34.6,0S-10.94,33.03,2.472,139H77L34.6,0" transform="translate(341 234)" fill="#fa6400"/>
        <path id="Fill_93" data-name="Fill 93" d="M25.273.76,0,112.136c94.315,26.693,182,0,182,0S177.088,69.364,144.306,0L25.273.76" transform="translate(370 425)" fill="#1d0b19"/>
        <path id="Fill_94" data-name="Fill 94" d="M126.617,0,34.442,1.538S14.248,8.3,0,20L2.889,97.6,18.711,212l118.908-.757L161,33.475,126.617,0" transform="translate(376 214)" fill="#fa6400"/>
        <path id="Fill_95" data-name="Fill 95" d="M42.352,0A196.6,196.6,0,0,1,93,13.272S85.251,42.869,40.684,43A58.643,58.643,0,0,1,18.84,39.166C9.58,35.486-1.25,28.266.118,14.8L42.352,0" transform="translate(411 200)" fill="#efa781"/>
        <path id="Fill_96" data-name="Fill 96" d="M11.984,64.123,3.325,1.429A1.667,1.667,0,0,0,1.445.015,1.656,1.656,0,0,0,.016,1.877l8.66,62.694a1.67,1.67,0,0,0,3.309-.448" transform="translate(376 307)" fill="#cfcfca"/>
        <path id="Fill_97" data-name="Fill 97" d="M55.993,110c.206-2.343-4.2-110-4.2-110H.8L0,80.222,55.993,110" transform="translate(512 320)" fill="#efa781"/>
        <path id="Fill_98" data-name="Fill 98" d="M0,0S63.727,17.549,71.486,56.847,98,161.72,98,161.72L0,162,7.369,30.021,0,0" transform="translate(502 214)" fill="#fa6400"/>
        <path id="Fill_99" data-name="Fill 99" d="M11.983,60.108,3.421,1.43A1.71,1.71,0,0,0,1.48.016,1.674,1.674,0,0,0,.017,1.893L8.579,60.572a1.707,1.707,0,0,0,1.941,1.411,1.671,1.671,0,0,0,1.463-1.875" transform="translate(497 322)" fill="#cfcfca"/>
        <path id="Fill_100" data-name="Fill 100" d="M12.17,0,0,23.434,103.723,126.8a27.112,27.112,0,0,0,41.381-8.546,26.7,26.7,0,0,0-10.876-35.431L12.17,0" transform="translate(420 320)" fill="#efa781"/>
        <path id="Fill_101" data-name="Fill 101" d="M83,73.558l-.055-15.68A52.477,52.477,0,0,0,77.29,34.344l-6.5-12.836a5.473,5.473,0,0,0-8.169-1.929,7.108,7.108,0,0,0-2.615,7.479l3.84,14.794L26.682,1.251C24.931-.636,20.806-.3,19.168,1.683c-1.291,1.57-1.765,4.4-.492,5.985l19.94,24.422L11.338,7.874C9.474,6.112,5.805,6.6,4.3,8.679A5.543,5.543,0,0,0,4.819,15.2L36.354,43.149,6.714,25.278A4.244,4.244,0,0,0,.44,27.446l-.187.52a4.3,4.3,0,0,0,1.435,4.871L30.6,54.865,11.433,43.842A4.278,4.278,0,0,0,6.878,51.07L69.132,96,83,73.558" transform="translate(357 253)" fill="#efa781"/>
        <path id="Fill_102" data-name="Fill 102" d="M.65,2.741l29.02,20a1.483,1.483,0,0,0,2.069-.392,1.509,1.509,0,0,0-.387-2.087L2.332.261A1.484,1.484,0,0,0,.261.654,1.508,1.508,0,0,0,.65,2.741" transform="translate(515 376)" fill="#ec956b"/>
        <path id="Fill_107" data-name="Fill 107" d="M37.529,23.185A19,19,0,1,1,23.184.471,19,19,0,0,1,37.529,23.185" transform="translate(615 80)" fill="#83473e"/>
        <path id="Fill_108" data-name="Fill 108" d="M0,52.279,1.717,128,70,123.06,56.129,0,0,52.279" transform="translate(673 93)" fill="#92574a"/>
        <path id="Fill_109" data-name="Fill 109" d="M.705,48S38.193,44.886,40,0L0,18.388.705,48" transform="translate(672 130)" fill="#130b0a"/>
        <path id="Fill_110" data-name="Fill 110" d="M32.954,4.158c-17.292,6.8-28.926,23.1-30.852,41.5C-.117,66.857-2.088,99.705,4.532,115.8c10.232,24.876,31.962,39.46,64.823,30.592,0,0,38.473-4.667,44.037-62.4,6.581-68.314-41.6-95.09-80.438-79.828" transform="translate(625 13)" fill="#92574a"/>
        <path id="Fill_111" data-name="Fill 111" d="M7.931,4.736A4,4,0,1,1,4.735.069a4,4,0,0,1,3.2,4.667" transform="translate(630 83)" fill="#130b0a"/>
        <path id="Fill_112" data-name="Fill 112" d="M7.931,4.734A4,4,0,1,1,4.733.069a4,4,0,0,1,3.2,4.665" transform="translate(667 81)" fill="#130b0a"/>
        <path id="Fill_113" data-name="Fill 113" d="M3.014.749.094,13.8A3.746,3.746,0,0,0,0,14.631a3.427,3.427,0,0,0,2.579,3.427l4.357.925A.9.9,0,0,0,7.984,18.2a.981.981,0,0,0-.708-1.15l-4.357-.927a1.5,1.5,0,0,1-1.129-1.5l.041-.365L4.753,1.219A1,1,0,0,0,4.1.028.9.9,0,0,0,3.014.749" transform="translate(643 89)" fill="#1d0b19"/>
        <path id="Fill_114" data-name="Fill 114" d="M14.924.556S.753-2.382,0,5.247c0,0-.4,5.177,11.985,7.423s17.34,1.874,18.867-2.877S21.622,1.258,14.924.556" transform="translate(664 56)" fill="#130b0a"/>
        <path id="Fill_115" data-name="Fill 115" d="M7.732.877S20.363-2.657,21.976,4.464c0,0,1,4.875-10.089,7.623-8.079,2-11.03.538-11.762-2.726-.864-3.87,2.842-7.6,7.606-8.485" transform="translate(621 57)" fill="#130b0a"/>
        <path id="Fill_116" data-name="Fill 116" d="M0,0,27,1.047S26.407,13,13.141,13C-.049,13,0,0,0,0" transform="translate(644 115)" fill="#130b0a"/>
        <g id="Group_119" data-name="Group 119" transform="translate(644 115)">
          <path id="Clip_118-2" data-name="Clip 118" d="M0,0,26.349,1.076S25.77,13.364,12.825,13.364C-.048,13.364,0,0,0,0" transform="translate(0.578 0.398)" fill="none"/>
          <g id="Group_119-2" data-name="Group 119" clip-path="url(#clip-path-3)">
            <path id="Fill_117" data-name="Fill 117" d="M18.81,15.047c-2.27,5.328-8.121,7.666-13.066,5.22S-1.369,11.517.9,6.189,9.022-1.475,13.967.971,21.08,9.719,18.81,15.047" transform="translate(8.868 6.463)" fill="#d06fa0"/>
          </g>
        </g>
        <path id="Fill_120" data-name="Fill 120" d="M84.944,96.029s-15.569-29.15-9.924-60.858c0,0-47.534,7.928-75.019-.776C0,34.4,6.455-4.592,70.386.45,157.933,7.354,132.349,100.126,90.6,116L84.944,96.029" transform="translate(635)" fill="#130b0a"/>
        <path id="Fill_121" data-name="Fill 121" d="M46.418,28.675A23.5,23.5,0,1,1,28.678.582,23.5,23.5,0,0,1,46.418,28.675" transform="translate(717 77)" fill="#92574a"/>
        <path id="Fill_122" data-name="Fill 122" d="M22.225.308A19.2,19.2,0,0,0,18.606,0,19.2,19.2,0,0,0,8.138,2.9C4.456,5.288,1.211,9.607.013,16.863a.977.977,0,1,0,1.927.32C3.092,10.347,5.993,6.641,9.2,4.531a17.265,17.265,0,0,1,9.4-2.581,19.661,19.661,0,0,1,2.359.137c.284.033.5.067.65.093l.164.029.042.008a.975.975,0,1,0,.4-1.908" transform="translate(728 92)" fill="#1d0b19"/>
        <path id="Fill_123" data-name="Fill 123" d="M52.894,0V111.986L0,204l51.982-6.092L115,137.462,108.231,5.624,52.894,0" transform="translate(526 340)" fill="#92574a"/>
        <path id="Fill_124" data-name="Fill 124" d="M46.926,0S6.485,23.754,0,82.485V166l66-2.272L46.926,0" transform="translate(567 229)" fill="#fff"/>
        <path id="Fill_125" data-name="Fill 125" d="M55.151,0S21.739,6.375,4.961,19.1L0,319.739c107.311,64.718,230,1.888,230,1.888L196.718,20.657S192.375,3.691,145.742.059L55.151,0" transform="translate(610 210)" fill="#fff"/>
        <path id="Fill_126" data-name="Fill 126" d="M91,3.788S52.415-4.7.182,3.729c0,0-4.962,30.925,36.989,32.227C82.6,37.369,91,3.788,91,3.788" transform="translate(665 206)" fill="#92574a"/>
        <path id="Fill_127" data-name="Fill 127" d="M3,107.382,2.672,1.6A1.49,1.49,0,0,0,1.329,0,1.5,1.5,0,0,0,0,1.616L.328,107.4a1.49,1.49,0,0,0,1.34,1.6A1.5,1.5,0,0,0,3,107.382" transform="translate(611 288)" fill="#de4784"/>
        <path id="Fill_128" data-name="Fill 128" d="M106,67.121S98.552,45.68,71.988,40.171L53.3,21.868a8.142,8.142,0,0,0-12.326,10.55l9.2,12.751L45.13,43A38.721,38.721,0,0,1,26.359,25.858l-11.79-21.8A7.743,7.743,0,0,0,.526,10.507L12.338,41.035A44.079,44.079,0,0,0,38.32,66.518L98,93l8-25.879" transform="translate(598 320)" fill="#92574a"/>
        <path id="Fill_129" data-name="Fill 129" d="M7.985,0l165.75,63.528c14.335,6.209,21.275,30.649,14.871,44.919a27.976,27.976,0,0,1-41.2,11.741L0,25.953,7.985,0" transform="translate(696 387)" fill="#92574a"/>
        <path id="Fill_130" data-name="Fill 130" d="M98,140,80.616,5.948,0,0,28.249,119.447,98,140" transform="translate(788 339)" fill="#92574a"/>
        <path id="Fill_131" data-name="Fill 131" d="M19.4,0S120.116,16.586,132,180H8.145L0,74.253,19.4,0" transform="translate(767 215)" fill="#fff"/>
        <path id="Fill_132" data-name="Fill 132" d="M39.392,83.806H17.437L3.192,1.327a1.607,1.607,0,0,0-3.168.541L14.5,85.672A1.61,1.61,0,0,0,16.083,87H39.392a1.6,1.6,0,1,0,0-3.194" transform="translate(763 310)" fill="#de4784"/>
      </g>
      <path id="Fill_87-2" data-name="Fill 87" d="M0,30H966V0H0Z" transform="translate(35 529)" fill="#0091ff"/>
    </g>
  </g>
</svg>
