<svg xmlns="http://www.w3.org/2000/svg" xmlns:xlink="http://www.w3.org/1999/xlink" width="1181" height="972" viewBox="0 0 1181 972">
  <defs>
    <clipPath id="clip-path">
      <path id="Mask" d="M.388,690.328a89.647,89.647,0,0,0,19.855,65.119A87.827,87.827,0,0,0,79.857,787.3a89.988,89.988,0,0,0,14.831.136c15.29.845,192.914-15.013,244.338,91.2a169.429,169.429,0,0,0,272.356,42.533l74.372-67.056a233.9,233.9,0,0,1,127.09-61.279l139.63-20a250.72,250.72,0,0,0,27.263-4.005h.351c129.206-26.157,216.135-149.159,198.687-281.135s-133.283-227.609-264.753-218.58l-137.391-1.88A234.216,234.216,0,0,1,587.868,166.69c-11.649-16.675-24.755-40.162-26.292-44.549h-.135C520.419,35.121,426.941-13.511,333.01,3.3S167.817,98.22,158.867,194.183c-.162,1.608-13.483,238.441-13.483,238.441v1.035a236.77,236.77,0,0,1-67.172,149.86l-50.4,50.271A89.154,89.154,0,0,0,.388,690.328Z" fill="#f6cb52"/>
    </clipPath>
  </defs>
  <g id="Group_4" data-name="Group 4" transform="translate(262 -1734)">
    <g id="Path" transform="translate(-262 1734)">
      <path id="Mask-2" data-name="Mask" d="M.388,690.328a89.647,89.647,0,0,0,19.855,65.119A87.827,87.827,0,0,0,79.857,787.3a89.988,89.988,0,0,0,14.831.136c15.29.845,192.914-15.013,244.338,91.2a169.429,169.429,0,0,0,272.356,42.533l74.372-67.056a233.9,233.9,0,0,1,127.09-61.279l139.63-20a250.72,250.72,0,0,0,27.263-4.005h.351c129.206-26.157,216.135-149.159,198.687-281.135s-133.283-227.609-264.753-218.58l-137.391-1.88A234.216,234.216,0,0,1,587.868,166.69c-11.649-16.675-24.755-40.162-26.292-44.549h-.135C520.419,35.121,426.941-13.511,333.01,3.3S167.817,98.22,158.867,194.183c-.162,1.608-13.483,238.441-13.483,238.441v1.035a236.77,236.77,0,0,1-67.172,149.86l-50.4,50.271A89.154,89.154,0,0,0,.388,690.328Z" fill="#f6cb52"/>
      <g id="Path-2" data-name="Path" clip-path="url(#clip-path)">
        <path id="Mask-3" data-name="Mask" d="M.388,690.328a89.647,89.647,0,0,0,19.855,65.119A87.827,87.827,0,0,0,79.857,787.3a89.988,89.988,0,0,0,14.831.136c15.29.845,192.914-15.013,244.338,91.2a169.429,169.429,0,0,0,272.356,42.533l74.372-67.056a233.9,233.9,0,0,1,127.09-61.279l139.63-20a250.72,250.72,0,0,0,27.263-4.005h.351c129.206-26.157,216.135-149.159,198.687-281.135s-133.283-227.609-264.753-218.58l-137.391-1.88A234.216,234.216,0,0,1,587.868,166.69c-11.649-16.675-24.755-40.162-26.292-44.549h-.135C520.419,35.121,426.941-13.511,333.01,3.3S167.817,98.22,158.867,194.183c-.162,1.608-13.483,238.441-13.483,238.441v1.035a236.77,236.77,0,0,1-67.172,149.86l-50.4,50.271A89.154,89.154,0,0,0,.388,690.328Z" transform="translate(-284 -319)" fill="#e0215d"/>
      </g>
    </g>
    <g id="Group" transform="translate(20 1830)">
      <path id="Fill_201" data-name="Fill 201" d="M133.673,287s-9.229-74.449-47.258-104.578-90.541-55.063-66.349-65.276S36.131,94.56,13.921,98.684s-22.2-18.168,32.4-29.7S175.209,56.413,176.182,46.1s-26.232-16.5-59.5-9.279S86.708,8.821,150.407,2.8s286.047-4,364.475,22.744S470.45,18.884,387.3,16.005s-220.413-9.477-222.489,0,56.64,3.952,57.671,26.819-97.87,32.587-119.506,34.43,16.288,35.08-7.364,39.328,49.275,30.64,72.177,58.642,65.5,87.579,65.5,87.579l-92.03,20.825L133.673,287" transform="translate(85 31)" fill="#0091ff" opacity="0.243"/>
      <path id="Fill_218" data-name="Fill 218" d="M61.3,1.432l245.252,80.8A28.326,28.326,0,0,1,325.48,114.52L285.4,322.032a28.279,28.279,0,0,1-41.99,19.108L14.065,207.608A28.335,28.335,0,0,1,.342,178.743L24.516,23.963A28.275,28.275,0,0,1,61.3,1.432" transform="translate(531 56)" fill="#0290fe"/>
      <path id="Fill_219" data-name="Fill 219" d="M61.3,1.432l245.252,80.8A28.326,28.326,0,0,1,325.48,114.52L285.4,322.032a28.28,28.28,0,0,1-41.99,19.109L14.065,207.608A28.336,28.336,0,0,1,.342,178.743L24.516,23.961A28.284,28.284,0,0,1,61.3,1.432" transform="translate(511 28)" fill="#fff"/>
      <path id="Fill_220" data-name="Fill 220" d="M13.731.525,120.258,39.132a8.719,8.719,0,0,1,5.571,9.914l-2.621,12.961a8.7,8.7,0,0,1-11.66,6.407L5.573,27.614A8.718,8.718,0,0,1,.155,17.848L2.212,7.079A8.708,8.708,0,0,1,13.731.525" transform="translate(567 74)" fill="#d9225f"/>
      <path id="Fill_221" data-name="Fill 221" d="M38.181.4,107.42,24.9a6.861,6.861,0,0,1,4.453,7.782L77.566,207.456a6.879,6.879,0,0,1-10.05,4.7L3.579,177.215a6.851,6.851,0,0,1-3.476-7.2L29.109,5.672A6.88,6.88,0,0,1,38.181.4" transform="translate(687 125)" fill="#fff"/>
      <path id="Fill_222" data-name="Fill 222" d="M12.561.333,60.654,18.5a5.2,5.2,0,0,1,3.259,5.813L57.278,59.774a5.145,5.145,0,0,1-6.9,3.88L3.31,45.458A5.2,5.2,0,0,1,.062,39.8L5.669,4.37A5.147,5.147,0,0,1,12.561.333" transform="translate(720 138)" fill="#6774ff"/>
      <path id="Fill_223" data-name="Fill 223" d="M7.076.394,50.814,18.662a5.25,5.25,0,0,1,3.1,5.793l-.047.269A5.128,5.128,0,0,1,46.84,28.6L3.16,10.058A5.238,5.238,0,0,1,.071,4.373a5.119,5.119,0,0,1,7-3.978" transform="translate(717 199)" fill="#eaeaea"/>
      <path id="Fill_224" data-name="Fill 224" d="M.392,4.434.063,6.58A5.25,5.25,0,0,0,3.08,12.189L46.362,31.551a5.156,5.156,0,0,0,7.173-3.886l.387-2.212a5.265,5.265,0,0,0-3.017-5.711L7.576.446A5.164,5.164,0,0,0,.392,4.434" transform="translate(712 219)" fill="#eaeaea"/>
      <path id="Fill_225" data-name="Fill 225" d="M14.638.486,59.011,21.078a5.167,5.167,0,0,1,2.9,5.608L54.226,68.757A5.179,5.179,0,0,1,46.6,72.332L2.645,47.669A5.15,5.15,0,0,1,.094,42.2L7.36,4.2A5.188,5.188,0,0,1,14.638.486" transform="translate(700 245)" fill="#eaeaea"/>
      <path id="Fill_226" data-name="Fill 226" d="M28.7.9,125.745,41.1a11.709,11.709,0,0,1,7.124,12.555l-14.448,97.322a11.772,11.772,0,0,1-17.317,8.556L6.091,107.309A11.747,11.747,0,0,1,.119,95.348L12.546,10.054A11.766,11.766,0,0,1,28.7.9" transform="translate(547 118)" fill="#0091ff"/>
      <path id="Fill_227" data-name="Fill 227" d="M40.884,90h0c-8.727,0-17.146-3.316-24.347-9.59A49.392,49.392,0,0,1,.737,51.327,49.081,49.081,0,0,1,6.168,18.735C11.94,8.7,20.943,2.2,31.519.455A33.6,33.6,0,0,1,37.014,0c9.27,0,18.451,3.88,25.853,10.925a47.172,47.172,0,0,1,9.2,12.24,51.487,51.487,0,0,1,5.2,15.5,49.087,49.087,0,0,1-5.419,32.592C66.058,81.3,57.055,87.789,46.491,89.537A34.485,34.485,0,0,1,40.884,90ZM37.091,17.813a16.063,16.063,0,0,0-2.627.214c-5.134.851-9.648,4.241-12.711,9.545a31.423,31.423,0,0,0-3.3,20.824A31.525,31.525,0,0,0,28.4,67.029a19.18,19.18,0,0,0,12.582,5.143,15.821,15.821,0,0,0,2.556-.208c5.145-.851,9.659-4.241,12.711-9.545a31.354,31.354,0,0,0,3.3-20.824C57.273,28.037,47.621,17.813,37.091,17.813Z" transform="translate(572 148)" fill="#fff" opacity="0.451"/>
      <path id="Fill_228" data-name="Fill 228" d="M31.208.452C20.754,2.214,11.816,8.706,6.1,18.742A49.455,49.455,0,0,0,.732,51.323,49.527,49.527,0,0,0,16.367,80.4C23.5,86.694,31.9,90,40.5,90a32.99,32.99,0,0,0,5.554-.476c.653-.118,1.307-.237,1.937-.375l-3.7-17.42a10.573,10.573,0,0,1-1.167.237c-5.1.832-10.431-.91-14.993-4.947A31.466,31.466,0,0,1,18.28,48.393,31.624,31.624,0,0,1,21.547,27.57c3.022-5.3,7.491-8.69,12.589-9.541a16.4,16.4,0,0,1,2.59-.219c5.157,0,10.139,2.515,14.13,6.75a32.412,32.412,0,0,1,7.841,15.6l17.3-4.2C70.913,12.862,51.311-2.913,31.208.452" transform="translate(564 152)" fill="#d9225f"/>
      <path id="Fill_231" data-name="Fill 231" d="M136.215,75.35c-6.139-19.666-35.132-42.68-60.979-49.156S-12.258-13.658,2.156,6.268s8.663,73.8,10.94,106.605c1.08,15.693,20.236,37.782,20.236,37.782C44.577,161.693,62.794,169,78.382,169a64.787,64.787,0,0,0,57.833-93.65" transform="translate(200 217)" fill="#febb46"/>
      <path id="Fill_232" data-name="Fill 232" d="M74.806,106.519s-38.78,23.054-60.941.78S19.9,26.519,2.778,7.4s49.866,2.942,65.989,19.584S99.492,71.3,74.806,106.519" transform="translate(235 252)" fill="#ff911d"/>
      <path id="Fill_233" data-name="Fill 233" d="M3.959.321S30.372,4.6,43.756,20.733s9.357,33.574-4.015,28.31S27.363,25.014,15.329,16.784-5.422-1.979,3.959.321" transform="translate(250 262)" fill="#fff"/>
      <path id="Fill_234" data-name="Fill 234" d="M64.172,15.443,46.2,1.281S32.81-4.459,19.043,8.362-6.2,38.79,3.754,49.888,27.073,74,27.073,74L68,20.418l-3.828-4.975" transform="translate(281 325)" fill="#020089"/>
      <path id="Fill_235" data-name="Fill 235" d="M547.764,455.548a19.4,19.4,0,0,1-18.088,7.249L337.318,435.585a65.173,65.173,0,0,1-36.8-18.286C252.151,369.174,102.77,219.36,41.024,143.22c-12.051-14.9-32.911-37.454-37.3-49.971-8.856-25.214-.763-44.984,12.356-59.708C36.443,10.691,68.919,0,68.919,0l39.594,13.076L478.641,250.833a72.453,72.453,0,0,1,30.468,40.916l42.12,146.31a19.312,19.312,0,0,1-3.465,17.488" transform="translate(297 325)" fill="#fff"/>
      <path id="Fill_236" data-name="Fill 236" d="M247.773,215.535a19.405,19.405,0,0,0,3.458-17.519L209.2,51.445A72.555,72.555,0,0,0,179.83,11.157l-1.289-.273c-.422-.266-42.029-26.389-88.009,3.265C36.595,45.406,15.287,88.058,6.9,118.35.847,140.17-.067,163.188,0,176.16l1.055,1.057a64.939,64.939,0,0,0,36.72,18.318L229.724,222.8a19.319,19.319,0,0,0,18.049-7.262" transform="translate(597 565)" fill="#d9225f"/>
      <path id="Fill_237" data-name="Fill 237" d="M545.768,419.535a55.7,55.7,0,0,1-32.842-10.715L347.791,288.28q-20.268-14.8-39.07-31.486L135.727,103.128c5.09-14.411,13.618-24.845,15.142-32.976,2.569-13.615,55.444-11.733,55.444-11.733l2.8-2.753-3.155-.572,3.155-22.2H124.7L112.351,82.364,21.649,1.805A7.106,7.106,0,0,0,11.163,2.932C1.123,16.9-3.968,34.713,3.715,56.638,8.1,69.176,28.933,91.765,40.967,106.692,102.627,182.958,251.8,333.019,300.1,381.223a65.009,65.009,0,0,0,36.748,18.316L528.937,426.8A19.342,19.342,0,0,0,547,419.535h-1.232" transform="translate(298 361)" fill="#d9d8d6"/>
      <path id="Fill_238" data-name="Fill 238" d="M248,145.548h-1.232a55.82,55.82,0,0,1-32.847-10.686L48.758,14.646Q39.01,7.546,29.6,0A163.107,163.107,0,0,0,6.9,48.637C.848,70.4-.067,93.349,0,106.285l1.056,1.055a65.229,65.229,0,0,0,21.632,14.224c1.009.41,2.029.773,3.05,1.125a64.544,64.544,0,0,0,8.951,2.39c.305.059.622.117.938.164.727.129,1.443.258,2.182.363l192.121,27.183a21.787,21.787,0,0,0,2.722.211,19.418,19.418,0,0,0,4.915-.621,5.218,5.218,0,0,0,.61-.176,19.335,19.335,0,0,0,6.311-3.2c.328-.246.645-.516.962-.785A19.6,19.6,0,0,0,248,145.548" transform="translate(597 635)" fill="#d9225f"/>
      <path id="Fill_239" data-name="Fill 239" d="M279.994,265.272S246.639,151.3,206.335,124.312,13.482.8,13.482.8s-37.2-7.872,11.995,25.928S142.5,107.7,174.518,129.4,282.822,320.937,289.406,320s-9.413-54.724-9.413-54.724" transform="translate(542 441)" fill="#fff"/>
      <path id="Fill_240" data-name="Fill 240" d="M324.4,246,0,.794.6,0,325,245.209l-.6.791" transform="translate(356 337)" fill="#febb46"/>
      <path id="Fill_241" data-name="Fill 241" d="M5.629,118.989c8.45-30.445,29.916-73.312,84.2-104.7,46.57-29.978,88.763-3.52,89.174-3.25l-.528.835c-.423-.265-42.087-26.37-88.129,3.263C36.332,46.369,14.995,88.99,6.591,119.259-2.5,152.04,1.2,177.742,1.24,178c0,0-4.765-26.03,4.389-59.011" transform="translate(597 564)" fill="#febb46"/>
      <path id="Fill_242" data-name="Fill 242" d="M71.33,381a.7.7,0,0,1-.376-1.284l.341-.22a.709.709,0,0,1,.381-.112.7.7,0,0,1,.383,1.282l-.352.225A.7.7,0,0,1,71.33,381Zm3.842-2.555a.694.694,0,0,1-.388-1.271c1.092-.75,2.246-1.556,3.431-2.395a.677.677,0,0,1,.4-.128.7.7,0,0,1,.412,1.262c-1.553,1.1-2.586,1.816-3.454,2.409A.7.7,0,0,1,75.172,378.445Zm6.838-4.862a.718.718,0,0,1-.564-.281.7.7,0,0,1-.125-.527.683.683,0,0,1,.278-.447c1.207-.9,2.3-1.718,3.336-2.512a.694.694,0,0,1,.423-.144.723.723,0,0,1,.564.275.712.712,0,0,1-.141.977c-.943.723-2.01,1.525-3.36,2.523A.683.683,0,0,1,82.01,373.583Zm6.662-5.089a.7.7,0,0,1-.435-1.242c1.193-.95,2.2-1.76,3.254-2.623a.692.692,0,0,1,.975.1.679.679,0,0,1,.157.5.7.7,0,0,1-.25.477c-1,.82-2.064,1.682-3.266,2.637A.694.694,0,0,1,88.672,368.493Zm6.474-5.32a.7.7,0,0,1-.458-1.225c.946-.805,1.946-1.677,3.148-2.743a.688.688,0,0,1,.464-.177.7.7,0,0,1,.465,1.216c-1.074.96-2.142,1.889-3.173,2.763A.676.676,0,0,1,95.145,363.173Zm6.25-5.571a.7.7,0,0,1-.695-.71.69.69,0,0,1,.225-.494c1.171-1.094,2.127-2.009,3.008-2.88a.714.714,0,0,1,.5-.2.668.668,0,0,1,.491.208.7.7,0,0,1,0,.985c-1.128,1.1-2.219,2.129-3.043,2.9A.707.707,0,0,1,101.4,357.6Zm5.98-5.858a.694.694,0,0,1-.493-1.181c1.028-1.066,1.958-2.059,2.843-3.037a.7.7,0,0,1,1.034.935c-.888.98-1.856,2.012-2.879,3.07A.7.7,0,0,1,107.376,351.744Zm5.628-6.2a.7.7,0,0,1-.528-1.148c.9-1.067,1.762-2.122,2.62-3.225a.722.722,0,0,1,.559-.268.7.7,0,0,1,.545,1.125c-.78,1-1.648,2.068-2.655,3.269A.716.716,0,0,1,113,345.549Zm5.146-6.6a.643.643,0,0,1-.4-.129.706.706,0,0,1-.176-.97c.847-1.2,1.622-2.36,2.3-3.448a.7.7,0,0,1,1.187.739c-.734,1.17-1.525,2.352-2.35,3.513A.689.689,0,0,1,118.15,338.945Zm4.418-7.093a.7.7,0,0,1-.611-1.025c.673-1.26,1.282-2.508,1.809-3.708a.7.7,0,0,1,.642-.417.753.753,0,0,1,.274.055.7.7,0,0,1,.353.917c-.52,1.2-1.141,2.478-1.845,3.811A.72.72,0,0,1,122.568,331.852Zm3.313-7.666h0l-.212-.031a.7.7,0,0,1-.458-.876,31.649,31.649,0,0,0,1.011-3.957.7.7,0,0,1,.685-.57.567.567,0,0,1,.125.012.693.693,0,0,1,.564.814,36.541,36.541,0,0,1-1.057,4.126A.689.689,0,0,1,125.881,324.185Zm1.492-8.176h-.023a.694.694,0,0,1-.67-.724c.012-.286.012-.576.012-.856a23.8,23.8,0,0,0-.212-3.188.667.667,0,0,1,.128-.511.688.688,0,0,1,.46-.275.454.454,0,0,1,.093-.006.7.7,0,0,1,.694.6,24.9,24.9,0,0,1,.235,3.382c0,.11,0,.227,0,.392v.061c0,.121-.006.256-.006.454A.712.712,0,0,1,127.373,316.009Zm-1.163-8.228h0a.71.71,0,0,1-.67-.473,22.655,22.655,0,0,0-1.633-3.694.7.7,0,0,1,.258-.948.788.788,0,0,1,.342-.087.7.7,0,0,1,.609.357,24.377,24.377,0,0,1,1.751,3.927.7.7,0,0,1-.435.882Zm-4.019-7.278a.7.7,0,0,1-.553-.263,30.069,30.069,0,0,0-2.749-3.017.7.7,0,0,1-.012-.986.671.671,0,0,1,.5-.212.709.709,0,0,1,.491.2,32.111,32.111,0,0,1,2.867,3.155.7.7,0,0,1-.117.979A.652.652,0,0,1,122.192,300.5Zm-96.826-4c-.908,0-1.852-.029-2.808-.087a.7.7,0,0,1,.032-1.394l.061,0c.88.057,1.788.085,2.7.085.347,0,.809-.007,1.413-.021a.748.748,0,0,1,.716.676.691.691,0,0,1-.191.5.7.7,0,0,1-.49.219C26.279,296.5,25.81,296.506,25.367,296.506Zm5.593-.284h0a.7.7,0,0,1-.07-1.391c1.288-.118,2.675-.284,4.124-.491a.621.621,0,0,1,.084-.005.715.715,0,0,1,.7.6.7.7,0,0,1-.6.788c-1.376.2-2.784.367-4.183.5Zm-12.5-.328h0l-.13-.014a24.467,24.467,0,0,1-4.135-1.177.7.7,0,0,1-.385-.368.683.683,0,0,1-.014-.532.706.706,0,0,1,.653-.445.669.669,0,0,1,.252.049,23.286,23.286,0,0,0,3.9,1.109.681.681,0,0,1,.443.3.67.67,0,0,1,.1.521A.687.687,0,0,1,18.458,295.894Zm20.773-.826h0a.693.693,0,0,1-.682-.577.708.708,0,0,1,.564-.806c1.274-.224,2.577-.469,4.1-.771a.638.638,0,0,1,.139-.015.7.7,0,0,1,.13,1.38c-1.348.273-2.736.535-4.124.779Zm76.981-.373a.664.664,0,0,1-.423-.144,35.5,35.5,0,0,0-3.4-2.294.7.7,0,0,1,.358-1.3.7.7,0,0,1,.359.1,35.364,35.364,0,0,1,3.524,2.387.695.695,0,0,1-.423,1.247Zm-68.768-1.255h0a.692.692,0,0,1-.681-.552.683.683,0,0,1,.094-.524.692.692,0,0,1,.446-.3c1.437-.31,2.733-.594,4.077-.891a.948.948,0,0,1,.15-.015.693.693,0,0,1,.684.546.672.672,0,0,1-.1.524.716.716,0,0,1-.443.305c-1.4.31-2.621.577-4.089.895Zm-36.693-.6a.693.693,0,0,1-.388-.117,17.831,17.831,0,0,1-3.29-2.816.7.7,0,0,1,.035-.985.726.726,0,0,1,.479-.182.682.682,0,0,1,.508.222,16.653,16.653,0,0,0,3.043,2.6.7.7,0,0,1-.388,1.273Zm44.859-1.2h0a.709.709,0,0,1-.681-.544.687.687,0,0,1,.094-.525.7.7,0,0,1,.446-.306c.9-.2,2.232-.5,4.077-.9a.79.79,0,0,1,.155-.016.7.7,0,0,1,.585,1.075.683.683,0,0,1-.434.3c-1.441.312-2.778.607-4.089.9Zm53.436-1.206h0l-.283-.059a37.954,37.954,0,0,0-3.842-1.467.7.7,0,0,1-.446-.878.693.693,0,0,1,.661-.482.978.978,0,0,1,.22.034,40.162,40.162,0,0,1,3.972,1.519.7.7,0,0,1-.282,1.333Zm-45.258-.566h0a.7.7,0,0,1-.681-.555.676.676,0,0,1,.094-.517.7.7,0,0,1,.446-.307c1.644-.336,2.951-.6,4.112-.819a.473.473,0,0,1,.132-.013.715.715,0,0,1,.69.567.689.689,0,0,1-.112.522.708.708,0,0,1-.452.293c-1.2.228-2.534.494-4.089.814Zm8.224-1.556h0a.7.7,0,0,1-.117-1.382c1.547-.257,2.942-.473,4.147-.641a.45.45,0,0,1,.1-.006.692.692,0,0,1,.692.6.684.684,0,0,1-.129.514.676.676,0,0,1-.459.273c-1.261.178-2.649.391-4.124.635Zm29.092-.456h0l-.141-.018c-1.32-.285-2.687-.518-4.065-.693a.7.7,0,0,1-.471-.271.7.7,0,0,1,.549-1.118.464.464,0,0,1,.1.006c1.484.193,2.891.434,4.182.716a.681.681,0,0,1,.435.3.692.692,0,0,1,.094.526A.7.7,0,0,1,101.1,287.853Zm-20.808-.686h0a.692.692,0,0,1-.693-.625.669.669,0,0,1,.142-.5.7.7,0,0,1,.48-.261c1.151-.126,2.562-.242,4.195-.346.032,0,.056,0,.075,0a.7.7,0,0,1,.665.656.676.676,0,0,1-.174.5.7.7,0,0,1-.484.233c-1.246.072-2.6.183-4.135.342Zm-75.183-.392a.7.7,0,0,1-.6-.343,26.864,26.864,0,0,1-1.833-3.871.69.69,0,0,1,.012-.535.681.681,0,0,1,.388-.363.641.641,0,0,1,.247-.046.683.683,0,0,1,.646.448,24.2,24.2,0,0,0,1.751,3.659.708.708,0,0,1-.247.954A.724.724,0,0,1,5.111,286.776Zm87.708-.006h-.035c-1.018-.063-2.216-.095-3.56-.095l-.575,0h-.012a.7.7,0,0,1,0-1.392l.587,0c1.265,0,2.487.032,3.631.1a.692.692,0,0,1,.483.229.684.684,0,0,1,.175.5A.692.692,0,0,1,92.819,286.77ZM2.1,279.024h0a.7.7,0,0,1-.681-.534c-.324-1.335-.589-2.735-.788-4.162a.687.687,0,0,1,.588-.788c.039,0,.064-.005.087-.005a.7.7,0,0,1,.7.6c.2,1.42.46,2.776.764,4.031a.69.69,0,0,1-.5.843ZM.881,270.773a.708.708,0,0,1-.7-.647c-.094-1.369-.153-2.785-.176-4.208a.7.7,0,0,1,.693-.708.683.683,0,0,1,.706.686c.023,1.429.082,2.819.176,4.134a.7.7,0,0,1-.646.743ZM.74,262.427H.7a.7.7,0,0,1-.485-.23.685.685,0,0,1-.173-.5,32.989,32.989,0,0,1,.494-4.229.7.7,0,0,1,.689-.567.539.539,0,0,1,.133.013.7.7,0,0,1,.553.813,29.925,29.925,0,0,0-.482,4.037A.687.687,0,0,1,.74,262.427ZM2.292,254.3h0l-.223-.039a.709.709,0,0,1-.435-.887,30.447,30.447,0,0,1,1.7-3.871.683.683,0,0,1,.611-.366.734.734,0,0,1,.329.08.687.687,0,0,1,.282.942,28.21,28.21,0,0,0-1.609,3.674A.686.686,0,0,1,2.292,254.3Zm3.854-7.254a.869.869,0,0,1-.411-.137.7.7,0,0,1-.274-.462.713.713,0,0,1,.133-.511,32.6,32.6,0,0,1,2.726-3.223.7.7,0,0,1,.5-.211.709.709,0,0,1,.486.194.676.676,0,0,1,.213.481.69.69,0,0,1-.2.5,30.459,30.459,0,0,0-2.608,3.081A.7.7,0,0,1,6.145,247.043Zm5.721-5.961a.7.7,0,0,1-.446-1.234c1.039-.852,2.178-1.7,3.384-2.523a.711.711,0,0,1,.975.185.7.7,0,0,1-.187.967c-1.176.8-2.279,1.619-3.279,2.445A.705.705,0,0,1,11.867,241.082ZM18.74,236.4a.692.692,0,0,1-.673-.883.688.688,0,0,1,.333-.419c1.21-.688,2.463-1.347,3.724-1.957a.653.653,0,0,1,.309-.073.707.707,0,0,1,.631.393.7.7,0,0,1-.328.93c-1.218.594-2.448,1.239-3.654,1.918A.669.669,0,0,1,18.74,236.4Zm7.5-3.656h0a.7.7,0,0,1-.27-1.34c1.284-.538,2.6-1.057,3.912-1.544a.878.878,0,0,1,.246-.045.688.688,0,0,1,.647.456.665.665,0,0,1-.014.526.694.694,0,0,1-.4.368c-1.5.559-2.795,1.071-3.854,1.522Zm7.837-2.908h0a.721.721,0,0,1-.67-.481.7.7,0,0,1,.447-.878c1.376-.446,2.728-.865,4.018-1.244a1.341,1.341,0,0,1,.2-.029.7.7,0,0,1,.2,1.366c-1.307.383-2.647.8-3.982,1.23Zm8.024-2.356h0a.694.694,0,0,1-.669-.519.678.678,0,0,1,.063-.524.692.692,0,0,1,.43-.327c1.391-.366,2.725-.7,4.077-1.021a.475.475,0,0,1,.166-.02.686.686,0,0,1,.669.535.666.666,0,0,1-.079.521.7.7,0,0,1-.437.318c-1.289.308-2.611.64-4.042,1.014Zm8.142-1.948h0a.7.7,0,0,1-.681-.548.7.7,0,0,1,.528-.829c1.161-.253,2.544-.542,4.112-.858a.379.379,0,0,1,.137-.014.7.7,0,0,1,.134,1.38c-1.665.338-3.04.625-4.089.852Zm8.2-1.643h0a.689.689,0,0,1-.681-.57.681.681,0,0,1,.11-.521.7.7,0,0,1,.454-.292c1.454-.265,2.841-.512,4.125-.733a.664.664,0,0,1,.121-.011.7.7,0,0,1,.114,1.382c-1.414.239-2.759.478-4.112.732Zm8.259-1.415h0a.7.7,0,0,1-.117-1.383c1.349-.218,2.706-.428,4.147-.642a.774.774,0,0,1,.091-.005.7.7,0,0,1,.7.591.685.685,0,0,1-.126.517.7.7,0,0,1-.462.275c-1.319.2-2.668.406-4.124.639Zm8.272-1.244h0a.691.691,0,0,1-.681-.6.669.669,0,0,1,.128-.512.688.688,0,0,1,.46-.275c1.29-.182,2.647-.368,4.147-.571a.414.414,0,0,1,.094-.006.7.7,0,0,1,.095,1.387c-1.572.209-3,.406-4.136.57Zm8.3-1.115h0a.689.689,0,0,1-.682-.609.706.706,0,0,1,.128-.507.693.693,0,0,1,.472-.272l.041-.005.575-.073h.007l.17-.022.581-.074h.008l.184-.023c1.151-.146,1.9-.239,2.593-.323a.419.419,0,0,1,.093-.006.692.692,0,0,1,.682.612.657.657,0,0,1-.143.515.7.7,0,0,1-.468.261c-2.065.258-3.395.428-3.9.492h-.005l-.048.006-.045.005h-.007l-.146.019Zm8.318-1.025h0a.7.7,0,0,1-.551-1.127.7.7,0,0,1,.469-.262l4.159-.49a.644.644,0,0,1,.086-.005.7.7,0,0,1,.067,1.39l-4.147.49Zm8.307-.968h0a.691.691,0,0,1-.681-.618.657.657,0,0,1,.143-.512.689.689,0,0,1,.468-.258l4.159-.472c.033,0,.058,0,.078,0a.7.7,0,0,1,.075,1.389l-4.16.472Zm8.319-.938h0a.7.7,0,0,1-.071-1.389l4.16-.465a.4.4,0,0,1,.072,0,.7.7,0,0,1,.691.618.681.681,0,0,1-.141.511.689.689,0,0,1-.47.258l-4.159.466Zm8.318-.931h0a.7.7,0,0,1-.07-1.389l4.159-.473a.366.366,0,0,1,.089-.006.7.7,0,0,1,.064,1.391l-4.159.472Zm8.319-.952h0a.7.7,0,0,1-.54-1.126.7.7,0,0,1,.47-.262l4.171-.492a.557.557,0,0,1,.086-.005.683.683,0,0,1,.678.614.691.691,0,0,1-.6.774l-4.182.493Zm8.342-1h0a.7.7,0,0,1-.082-1.388c.86-.106,1.8-.223,3.182-.4l.854-.107.112-.014a.385.385,0,0,1,.087-.006.7.7,0,0,1,.089,1.387c-1.364.176-2.6.33-4.16.521Zm8.3-1.06h0a.7.7,0,0,1-.094-1.386l.086-.012h.01l.413-.056.018,0,.371-.049.285-.039c.917-.123,1.749-.236,2.965-.4a.509.509,0,0,1,.1-.008.692.692,0,0,1,.676.6.691.691,0,0,1-.588.785l-.122.017-.6.083h-.007c-1.467.2-2.487.341-3.308.449l-.105.014Zm8.283-1.153h0a.7.7,0,0,1-.681-.595.682.682,0,0,1,.127-.511.7.7,0,0,1,.461-.279c1.319-.189,2.672-.392,4.136-.618a.335.335,0,0,1,.1-.007.7.7,0,0,1,.113,1.383c-1.185.183-2.5.38-4.147.621Zm8.284-1.274h0a.7.7,0,0,1-.118-1.384c1.137-.185,2.191-.361,3.524-.587l.015,0,.01,0,.137-.023h.005l.248-.042.175-.031.008,0a.433.433,0,0,1,.113-.009.693.693,0,0,1,.687.576.666.666,0,0,1-.113.517.692.692,0,0,1-.452.287c-1.63.28-2.906.494-4.135.695Zm8.248-1.427h0a.715.715,0,0,1-.693-.57.686.686,0,0,1,.112-.517.7.7,0,0,1,.453-.294c1.385-.256,2.726-.512,4.1-.781a.469.469,0,0,1,.129-.012.714.714,0,0,1,.693.563.7.7,0,0,1-.552.816c-1.1.221-2.49.484-4.124.783Zm8.2-1.615h0a.675.675,0,0,1-.669-.554.691.691,0,0,1,.094-.526.677.677,0,0,1,.435-.3c1.218-.255,2.593-.554,4.089-.89a.586.586,0,0,1,.155-.018.7.7,0,0,1,.15,1.378c-1.266.286-2.607.578-4.1.892Zm8.177-1.846h0A.706.706,0,0,1,182,205.4a.68.68,0,0,1,.079-.52.7.7,0,0,1,.438-.32c1.386-.339,2.746-.683,4.041-1.021a1.338,1.338,0,0,1,.181-.023.7.7,0,0,1,.172,1.368c-1.629.424-3,.77-4.065,1.029Zm8.084-2.127h0a.71.71,0,0,1-.669-.5.7.7,0,0,1,.482-.861c1.4-.4,2.74-.8,4-1.184a.736.736,0,0,1,.207-.03.694.694,0,0,1,.2,1.359c-1.25.389-2.6.79-4.019,1.194Zm8-2.471h0a.688.688,0,0,1-.658-.474.68.68,0,0,1,.031-.527.692.692,0,0,1,.4-.355c1.327-.447,2.61-.9,3.924-1.381a.881.881,0,0,1,.242-.042.691.691,0,0,1,.652.454.687.687,0,0,1-.411.895c-1.45.534-2.745.991-3.96,1.395Zm7.856-2.892h0l-.012,0a.679.679,0,0,1-.641-.434.668.668,0,0,1,0-.527.7.7,0,0,1,.391-.381c1.63-.668,2.915-1.212,3.818-1.619a1.067,1.067,0,0,1,.284-.06.717.717,0,0,1,.644.412.7.7,0,0,1-.353.921c-1.118.5-2.422,1.049-3.877,1.639Zm7.629-3.4h0a.694.694,0,0,1-.623-.391.685.685,0,0,1,.318-.931c1.2-.591,2.405-1.216,3.677-1.911a.718.718,0,0,1,.337-.085.7.7,0,0,1,.332,1.308c-1.052.583-2.274,1.217-3.736,1.939l-.306.072Zm7.32-4.021a.679.679,0,0,1-.587-.334.7.7,0,0,1-.085-.535.675.675,0,0,1,.308-.422c1.316-.805,2.482-1.565,3.466-2.256a.618.618,0,0,1,.4-.123.707.707,0,0,1,.578.3.645.645,0,0,1,.115.516.693.693,0,0,1-.291.453c-1.2.821-2.388,1.594-3.537,2.3A.647.647,0,0,1,221.567,191.02Zm6.862-4.752a.707.707,0,0,1-.69-.779.7.7,0,0,1,.256-.465c1.05-.82,2.113-1.713,3.161-2.654a.691.691,0,0,1,.468-.181.7.7,0,0,1,.519.23.688.688,0,0,1-.059.983c-.938.851-2.021,1.765-3.219,2.718A.636.636,0,0,1,228.428,186.268Zm6.18-5.588a.695.695,0,0,1-.5-1.178c.937-.971,1.85-2.008,2.714-3.082a.7.7,0,0,1,.543-.257.711.711,0,0,1,.445.156.694.694,0,0,1,.094.979c-.841,1.044-1.778,2.11-2.785,3.166A.692.692,0,0,1,234.608,180.68Zm5.228-6.463a.7.7,0,0,1-.575-1.087c.734-1.076,1.457-2.249,2.15-3.486a.7.7,0,0,1,.606-.359.679.679,0,0,1,.334.088.7.7,0,0,1,.282.946c-.724,1.279-1.471,2.487-2.22,3.591A.687.687,0,0,1,239.837,174.217Zm4.03-7.268h0l-.282-.059a.7.7,0,0,1-.353-.917c.531-1.181,1.019-2.428,1.492-3.811a.685.685,0,0,1,.657-.473,1.488,1.488,0,0,1,.224.037.69.69,0,0,1,.405.357.676.676,0,0,1,.03.527c-.479,1.381-.979,2.665-1.527,3.925A.707.707,0,0,1,243.867,166.95Zm2.679-7.851h0l-.165-.021a.7.7,0,0,1-.439-.323.722.722,0,0,1-.077-.52c.291-1.175.6-2.536.916-4.046a.694.694,0,0,1,.673-.56.41.41,0,0,1,.138.014.7.7,0,0,1,.552.818c-.328,1.6-.637,2.981-.916,4.108A.707.707,0,0,1,246.546,159.1Zm1.644-8.19h0l-.105-.008a.7.7,0,0,1-.588-.795c.16-.954.341-2.3.553-4.111a.7.7,0,0,1,.684-.62c.023,0,.047,0,.079,0a.705.705,0,0,1,.48.264.657.657,0,0,1,.143.506c-.154,1.4-.335,2.769-.552,4.171A.706.706,0,0,1,248.19,150.909Zm.917-8.3h-.048a.7.7,0,0,1-.646-.741c.1-1.6.158-2.957.188-4.144a.714.714,0,0,1,.717-.68.683.683,0,0,1,.48.215.693.693,0,0,1,.19.5c-.024,1.966-.1,3.229-.176,4.2A.708.708,0,0,1,249.107,142.607Zm.212-8.349h-.012a.7.7,0,0,1-.706-.682c-.022-1.116-.076-2.469-.165-4.138a.668.668,0,0,1,.159-.5.694.694,0,0,1,.488-.24h.05a.678.678,0,0,1,.689.653c.074.98.152,2.245.176,4.2A.706.706,0,0,1,249.319,134.257Zm-.541-8.329h0a.709.709,0,0,1-.693-.623c-.121-1.2-.277-2.473-.5-4.117a.68.68,0,0,1,.127-.511.694.694,0,0,1,.46-.277.376.376,0,0,1,.107-.009.7.7,0,0,1,.68.6c.17,1.128.339,2.492.517,4.17a.669.669,0,0,1-.142.5.7.7,0,0,1-.481.261Zm-1.186-8.261h0a.715.715,0,0,1-.694-.57c-.243-1.336-.5-2.623-.822-4.052a.7.7,0,0,1,.528-.832,1.024,1.024,0,0,1,.157-.018.707.707,0,0,1,.678.545c.166.711.431,2.014.834,4.1a.751.751,0,0,1-.111.523.7.7,0,0,1-.454.29Zm-1.822-8.126h0a.694.694,0,0,1-.669-.519c-.295-1.131-.674-2.473-1.128-3.99a.707.707,0,0,1,.47-.868.718.718,0,0,1,.2-.03.694.694,0,0,1,.665.5c.348,1.172.721,2.492,1.139,4.037a.7.7,0,0,1-.5.85Zm-2.382-7.987h0a.694.694,0,0,1-.66-.474c-.394-1.161-.851-2.441-1.4-3.913a.705.705,0,0,1,.423-.895.683.683,0,0,1,.238-.044.714.714,0,0,1,.655.454c.516,1.409.973,2.7,1.4,3.955a.694.694,0,0,1-.435.881Zm-2.917-7.821h0a.7.7,0,0,1-.646-.435c-.559-1.384-1.11-2.655-1.621-3.822a.7.7,0,0,1,.353-.919.646.646,0,0,1,.281-.059.69.69,0,0,1,.635.416c.567,1.28,1.1,2.543,1.644,3.86a.7.7,0,0,1-.387.907ZM237.1,86.1h0a.715.715,0,0,1-.634-.4c-.632-1.343-1.249-2.6-1.833-3.726a.667.667,0,0,1-.041-.529.7.7,0,0,1,.347-.407,1.48,1.48,0,0,1,.315-.075.7.7,0,0,1,.625.38c.428.832.992,1.973,1.678,3.391l.031.062.014.029,0,0,.022.043.033.069.014.028,0,.006.036.074.015.032.008.017a.7.7,0,0,1-.339.932Zm-3.784-7.434a.686.686,0,0,1-.611-.365c-.823-1.495-1.465-2.647-2.021-3.625a.687.687,0,0,1,.247-.95,1.449,1.449,0,0,1,.352-.093.687.687,0,0,1,.6.349c.641,1.116,1.329,2.346,2.045,3.656a.723.723,0,0,1,.059.524.7.7,0,0,1-.341.42A.711.711,0,0,1,233.316,78.664Zm-4.159-7.242a.711.711,0,0,1-.6-.336c-.753-1.254-1.471-2.411-2.2-3.538a.7.7,0,0,1,.223-.961.782.782,0,0,1,.37-.108.675.675,0,0,1,.581.321c.7,1.09,1.446,2.289,2.221,3.565a.741.741,0,0,1,.08.527.687.687,0,0,1-.316.427A.7.7,0,0,1,229.157,71.422Zm-4.488-7.055a.679.679,0,0,1-.576-.31c-.657-.981-1.425-2.106-2.35-3.44a.7.7,0,0,1,.165-.971.628.628,0,0,1,.4-.123.705.705,0,0,1,.575.3c.84,1.212,1.634,2.378,2.362,3.467a.692.692,0,0,1-.576,1.081Zm-4.782-6.858a.673.673,0,0,1-.564-.288c-.65-.891-1.441-1.955-2.491-3.348a.709.709,0,0,1,.141-.976.688.688,0,0,1,.418-.14.7.7,0,0,1,.558.276c1.327,1.776,1.925,2.578,2.5,3.37a.706.706,0,0,1-.152.974A.727.727,0,0,1,219.887,57.509Zm-5.053-6.671a.68.68,0,0,1-.54-.266c-.675-.857-1.553-1.952-2.609-3.255a.914.914,0,0,1-.156-.506.691.691,0,0,1,.25-.473.712.712,0,0,1,.445-.157.7.7,0,0,1,.541.257l.029.035.005.006.014.016.026.032.1.13.062.076.083.1.029.036,0,0,0,0,.044.055.091.113c.963,1.195,1.658,2.066,2.127,2.663a.7.7,0,0,1-.553,1.127Zm-5.287-6.484a.711.711,0,0,1-.528-.248c-.841-.993-1.754-2.058-2.714-3.165a.7.7,0,0,1,.059-.983.706.706,0,0,1,.463-.173.684.684,0,0,1,.524.24c.755.865,1.412,1.632,2.732,3.176l.005.006a.7.7,0,0,1-.541,1.146Zm-5.5-6.305a.7.7,0,0,1-.518-.23c-.891-.994-1.84-2.03-2.82-3.078a.7.7,0,0,1,.035-.984.8.8,0,0,1,.478-.186.689.689,0,0,1,.509.222c.837.9,1.816,1.959,2.831,3.094a.694.694,0,0,1-.517,1.162Zm-5.7-6.127a.719.719,0,0,1-.5-.215c-1.032-1.081-1.927-2-2.9-2.991a.7.7,0,0,1,0-.986.7.7,0,0,1,.987.007c1.15,1.169,2.107,2.153,2.926,3.006a.7.7,0,0,1-.506,1.178Zm-5.874-5.956a.691.691,0,0,1-.493-.2c-.949-.937-1.958-1.915-3-2.907a.686.686,0,0,1-.023-.984.7.7,0,0,1,.986-.021l.04.038c1.22,1.172,2.147,2.065,2.968,2.882a.688.688,0,0,1,.012.985A.7.7,0,0,1,192.476,25.966Zm-6.062-5.783a.669.669,0,0,1-.47-.186c-.862-.8-1.861-1.72-3.055-2.8l-.019-.017a.692.692,0,0,1,.457-1.216.693.693,0,0,1,.467.179c1.16,1.046,2.2,2,3.1,2.832a.7.7,0,0,1-.482,1.207ZM180.2,14.572a.676.676,0,0,1-.458-.173c-.965-.845-2-1.739-3.161-2.731a.7.7,0,0,1-.082-.982.691.691,0,0,1,.532-.245.705.705,0,0,1,.454.166l.157.134.018.015.036.031c1.382,1.186,2.3,1.977,2.962,2.566a.7.7,0,0,1,.07.983A.72.72,0,0,1,180.2,14.572Zm-6.38-5.431a.691.691,0,0,1-.446-.158c-1.318-1.08-2.287-1.868-3.243-2.636a.7.7,0,0,1-.118-.977.711.711,0,0,1,.551-.262.7.7,0,0,1,.436.151l.119.1.105.085,0,0,.019.015.1.078.124.1.01.008c1.037.837,1.79,1.447,2.777,2.262a.685.685,0,0,1,.254.465.7.7,0,0,1-.159.517A.672.672,0,0,1,173.818,9.141Zm-6.567-5.229a.71.71,0,0,1-.423-.144c-1.069-.817-2.148-1.622-3.2-2.391l-.052-.038-.054-.04-.028-.021-.022-.016A.69.69,0,0,1,163.3.293.7.7,0,0,1,163.87,0a.578.578,0,0,1,.4.126l.011.007c.585.413,1.649,1.188,3.4,2.532a.738.738,0,0,1,.267.462.693.693,0,0,1-.139.514A.676.676,0,0,1,167.251,3.912Z" transform="translate(649 159)" fill="#6774ff"/>
      <path id="Fill_243" data-name="Fill 243" d="M32.725.123S5-3.544,2.594,29.145-5.214,95.8,13.756,98.83,44.18,63.663,47.193,49.111,55.635,7.529,32.725.123" transform="translate(289 670)" fill="#170e36"/>
      <path id="Fill_244" data-name="Fill 244" d="M48,9.05S34.714,39.828,32.9,49.782,29.275,94.74,17.8,92.932-3.934,70.677,1.493,51.027,16.6,0,16.6,0L48,9.05" transform="translate(303 637)" fill="#ed9f94"/>
      <path id="Fill_245" data-name="Fill 245" d="M303,113.987l-28.867-18.56L243.812,75.914c-70.4-.5-88.794-21.2-101.673-14.565-12.856,6.637-12.457,37.992-18.486,74.178-.258,1.49-.516,3-.774,4.47-6.193,34.237-16.9,63.01-21.536,75.549-4.833,13.053-34.38,87.627-37.992,97.281s-14.486,12.07-34.38,5.431S-2.992,301.367.645,290.516c.493-1.513,2.006-5.583,4.246-11.566C18.708,241.8,60.032,131.016,58.2,102.958,56.056,70.391,42.25,84.876,40.678,46.883,40.162,34.206,47.81,24.946,58.249,18.25,79.069,4.877,110.986,1.658,110.986,1.658c35.74-8.386,91.057,17.486,122.411,22.971,31.365,5.5,42.227,27.679,47.658,39.741,5.337,11.882,21.454,48.464,21.946,49.617" transform="translate(297 349)" fill="#170e36"/>
      <path id="Fill_246" data-name="Fill 246" d="M151,48.44,120.732,28.932c-70.278-.5-88.638-21.2-101.494-14.562C6.4,21.005,6.8,52.353.785,88.531.527,90.02.269,91.529.012,93H0S6.862,9.442,19.238,3.244c12.4-6.2,55.712-2.483,85.722,2.544,30.01,5.006,39.26,24.455,39.26,24.455L151,48.44" transform="translate(420 396)" fill="#1631a4"/>
      <path id="Fill_247" data-name="Fill 247" d="M102.869,85.909l3.968,20.99s-9.815,38.495-33.225,0c0,0-4.931-9.818-7.9-5.576s-44.155,148.535-40.845,157,8.136,24.2,18.4,29.036c10.285,4.843-14.323,9.8-26.639,0C9.768,281.9,3.886,270.394,0,261.272,13.83,224.035,55.191,113.013,53.36,84.893,51.211,52.255,37.393,66.772,35.82,28.7,35.3,15.991,42.958,6.71,53.407,0L98.689,70.416,119,89.553l-16.131-3.644" transform="translate(302 367)" fill="#2d2e2e"/>
      <path id="Fill_248" data-name="Fill 248" d="M60.617,23.864c-1.893,2.267,1.134,6.012-1.917,10.15-3.05,4.158-12.1,2.267-17.775,2.621-1.963.118-5.306,2.187-8.87,4.888A187.987,187.987,0,0,0,17.541,54H15.917L0,43.772s14.012-10.88,21.6-16.537S32.967,4.981,39.395,3.641c6.439-1.319,17.05,11.53,27.276,5.5C76.7,3.227,81.746-2.173,82.868.882l.082.2c1.227,4.158-20.451,20.5-22.333,22.785" transform="translate(530 183)" fill="#ed9f94"/>
      <path id="Fill_249" data-name="Fill 249" d="M32.65,23.184c-1.89,2.287,1.132,6.065-1.914,10.24-3.046,4.2-12.078,2.287-17.749,2.645-1.96.119-5.3,2.207-8.857,4.931L0,38.535s12.941-8.272,19.581-6.861c6.663,1.412,5.625-9.146,9.989-11.97C33.105,17.438,49,4.692,54.868,0l.082.2c1.225,4.2-20.421,20.68-22.3,22.986" transform="translate(558 184)" fill="#e0857d"/>
      <path id="Fill_250" data-name="Fill 250" d="M129.718,32.484s-1.442,1.44-3.892,3.878c-12.4,12.255-50.416,49.9-54.941,54.453-5.439,5.478-18.11,8.217-26.246,0-2.661-2.679-7.514-7.376-13.047-12.833C20.153,66.707,5.852,52.274,2.324,46.338c-5.228-8.836,0-44.178,0-44.178S22.9,9.256,48.25,44.339c0,0,4.982,8.656,15.391,0S108,0,108,0s24.909,6.978,21.721,32.484" transform="translate(437 206)" fill="#6236ff"/>
      <path id="Fill_251" data-name="Fill 251" d="M124,27.354c-12.452,12.256-50.619,49.9-55.162,54.459-5.461,5.478-18.183,8.218-26.351,0-2.672-2.679-7.544-7.377-13.1-12.834L0,22.376l1.895-9.735s29.564,36.545,35.92,44.2c6.367,7.637,17.171,14.334,27.352,3.5s30.847-30.368,37.85-36.066c6.991-5.718,8.686-14.974,4.978-18.793s-.212-9.5,6.779-1.24c4.672,5.5,7.721,16.414,9.227,23.111" transform="translate(439 215)" fill="#410ff5"/>
      <path id="Fill_252" data-name="Fill 252" d="M125.638,147.44c3.023,7.19-3.433,16.288-24.29,23.459-20.845,7.191-83.684,4.37-90.234-4.151-6.55-8.5,10.276-54.606,6.386-71.649S-9.964,53.345,4.823,39.481c14.81-13.865,38.9-33.748,52.751-35.556s37.952-7.846,46.388,0c0,0,12.432,40.463,18.865,51.269a57.28,57.28,0,0,1,6.784,21.354c1.2,10.03-.164,20.917-6.784,28.921-11.577,14-1.418,32.618,2.261,40.68.2.478.4.895.551,1.292" transform="translate(338 206)" fill="#6236ff"/>
      <path id="Fill_253" data-name="Fill 253" d="M104.058,69.4c-5.787,6.716-16.889,16.8-28.369,20.54-17.172,5.585-27.7-1.7-14.874-4s23.454-15.132,7.567-7.765c-15.923,7.368-66.39,1.941-66.39,1.941L0,43.335S67.9,27.846,80.18,27.887s27.909-12.5,28.027-18.619c.059-2.772.224-6.277.4-9.268,1.2,10-.165,20.856-6.824,28.837C90.139,42.8,100.358,61.36,104.058,69.4" transform="translate(359 283)" fill="#410ff5"/>
      <path id="Fill_254" data-name="Fill 254" d="M25.566,0s9.162,18.677,18.324,25.917,13.743,16.77,9.539,15.246-14.461-9.91-13.142-6.48,5.17,16.389,0,25.917-2.826-6.631-4.958-12.653-.6,11.51-3.274,18.752-5.346-17.957-6.489-21.365-2.285,5.356-1.908,12.217S19.843,66.7,18.7,62.125s-.765-18.675-3.05-19.818-.765,16.007-2.673,17.151S7.631,47.261,8.4,41.163,0,0,0,0H25.566" transform="translate(368 415)" fill="#ed9f94"/>
      <path id="Fill_255" data-name="Fill 255" d="M75,177.971s-14.491,1.369-23.1,3.176S29.615,192,29.615,192s-.986-2.9-2.64-7.719C20.334,164.677,3.227,113.422.74,97.012c-3.1-20.459,4.494-73.737,5.186-86.853C6.383,1.388,14.08-.02,19.1,0a26.493,26.493,0,0,1,4.353.376C47.567,10.06,40.574,35.043,38.885,61.731c-1.666,26.689,5.421,45.977,10.29,58.358S75,177.971,75,177.971" transform="translate(332 245)" fill="#6236ff"/>
      <path id="Fill_256" data-name="Fill 256" d="M46.1,174.622c-8.729,1.713-15.515,6.812-19.344,10.378C20.171,165.32,3.2,113.864.734,97.391-2.339,76.852,5.191,23.366,5.878,10.2,6.332,1.394,13.967-.02,18.948,0c-2.339,21.135-8.776,82.529-5.691,98.167,3.748,19,12.256,43.167,17.621,56.2,5.389,13.009,20.6,11.653,25.513,12.112,4.935.459,3.585,5.418-10.289,8.148" transform="translate(332 244)" fill="#410ff5"/>
      <path id="Fill_257" data-name="Fill 257" d="M78.723,0s8.132,49.229-6.344,72.813S28.952,102.137,19,113.922L1.8,115,0,98.406S16.583,78.869,33.777,74.639s30.67-16.62,33.883-39.284S69.673,0,69.673,0h9.05" transform="translate(345 239)" fill="#fff"/>
      <path id="Fill_258" data-name="Fill 258" d="M15,0s10.184,9.2,1.471,15.675S-4.459,2.8,1.646,2.217L15,0" transform="translate(407 229)" fill="#d9d8d6"/>
      <path id="Fill_259" data-name="Fill 259" d="M55.542,29.626a23.181,23.181,0,0,1-13.241,3.8c-4.371-.218-9.376.622-11.867,4.849-2.738,4.63-7.519,9.306-11.279,12.587a4.554,4.554,0,0,1-7.343-2.02c-1.751-5.473-4.782-13.137-9.094-17.8-7.261-7.861.9-26.992,14.087-28.973S50.42-3.523,62.228,8.7,75.41,27.138,80.862,31.05s4.089,7.907-6.368,3.871c-8.213-3.172-13.053-8.938-18.951-5.3" transform="translate(371 200)" fill="#fff"/>
      <path id="Fill_260" data-name="Fill 260" d="M77.927,84.195H77.9a13.793,13.793,0,0,1-2.75,1.031c-9.729,2.7-13.677,4.106-13.431,13.983.012,1.19.118,2.518.259,3.986,0,0,4.536,11.364-7.732,11.78a44.047,44.047,0,0,1-21.033-4.561A28.938,28.938,0,0,1,21.09,99.526,215.285,215.285,0,0,1,7.472,69.24C1.267,52.145-3.2,33.025,2.913,24.715,13.805,9.92,33.358.855,33.358.855c7.72-1.487,23.407-2.141,35.228,7.7a30.4,30.4,0,0,1,2.444,2.241c5.158,5.2,9.342,12.772,11.386,23.622,6.192,32.882,4.148,45.516-4.489,49.78" transform="translate(361 114)" fill="#ed9f94"/>
      <g id="Group_26" data-name="Group 26" transform="translate(432 173)">
        <path id="Fill_34" data-name="Fill 34" d="M.017,2.243A.993.993,0,0,0,.06,2.4C1.087,5.245,6.681,5.645,9.454,4.136c1.617-.88,3.755-2.342,1.7-3.711C9.751-.513,6.7.478,4.874.243A11.6,11.6,0,0,0,2.513.012,2.717,2.717,0,0,0,.048,1.7a1.247,1.247,0,0,0-.031.546" transform="translate(0.507 4.203) rotate(-20)" fill="#fff"/>
      </g>
      <g id="Group_25" data-name="Group 25" transform="translate(417 148)">
        <path id="Fill_35" data-name="Fill 35" d="M3.845,2.065c.426,1.36-.055,2.656-1.073,2.9S.581,4.294.155,2.935.21.279,1.229.039s2.19.667,2.616,2.027" transform="translate(7 9)" fill="#231f20"/>
        <path id="Fill_40" data-name="Fill 40" d="M8.729,4.261A5.312,5.312,0,0,0,10.611,2.8,1.852,1.852,0,0,0,10.635.566,2.333,2.333,0,0,0,8.883,0C5.876-.012.316,2.5.015,6.133c-.4,4.767,7.134-.994,8.714-1.872" fill="#231f20"/>
      </g>
      <g id="Group_25-2" data-name="Group 25" transform="translate(430 138)">
        <path id="Fill_35-2" data-name="Fill 35" d="M3.845,2.065c.426,1.36-.055,2.656-1.073,2.9S.581,4.294.155,2.935.21.279,1.229.039s2.19.667,2.616,2.027" transform="translate(7 9)" fill="#231f20"/>
        <path id="Fill_40-2" data-name="Fill 40" d="M8.729,4.261A5.312,5.312,0,0,0,10.611,2.8,1.852,1.852,0,0,0,10.635.566,2.333,2.333,0,0,0,8.883,0C5.876-.012.316,2.5.015,6.133c-.4,4.767,7.134-.994,8.714-1.872" fill="#231f20"/>
      </g>
      <path id="Fill_261" data-name="Fill 261" d="M70,76.677a13.622,13.622,0,0,1-2.733,1.036C57.6,80.421,53.674,81.835,53.919,91.75,49.2,86.374,41.925,79.424,38.141,82.929,34.194,86.573,30.153,96.27,25.587,103A28.863,28.863,0,0,1,13.535,92.069,217.2,217.2,0,0,1,0,61.664L37.733,5.435,60.739.737,64.324,0a20.01,20.01,0,0,1-1.156,2.987c-1.343,2.907-4.017,7.128-8.642,9.258-7.416,3.405-10.8,21.584-8.432,37.632C48.453,65.945,56.757,79.584,70,76.677" transform="translate(369 121)" fill="#e0857d"/>
      <path id="Fill_262" data-name="Fill 262" d="M122.178.667c27.446-4.8,70.562,17.489,27.74,28.37-25.034,11.769-9.753,36.206-18.752,58.851s-22.858,64.985-76.233,74.141-68.739-49.09-42.21-65.69,38.6-5.131,47.339-21.73,8.106-37.436,23.07-53.118C97.414,6.536,109.378,2.905,122.178.667" transform="translate(273 100)" fill="#35246f"/>
      <path id="Fill_263" data-name="Fill 263" d="M14.511,1.194l2.961,5.419a2.294,2.294,0,0,0,.92.911l5.414,2.964a2.293,2.293,0,0,1,0,4.025l-5.414,2.964a2.3,2.3,0,0,0-.92.912l-2.961,5.42a2.292,2.292,0,0,1-4.022,0l-2.961-5.42a2.352,2.352,0,0,0-.908-.912L1.194,14.512a2.293,2.293,0,0,1,0-4.025L6.62,7.523a2.341,2.341,0,0,0,.908-.911l2.961-5.419a2.291,2.291,0,0,1,4.022,0" transform="translate(770 38)" fill="#d9d8d6"/>
      <path id="Fill_265" data-name="Fill 265" d="M14.507,1.193l2.973,5.419a2.261,2.261,0,0,0,.909.912l5.416,2.964a2.293,2.293,0,0,1,0,4.025l-5.416,2.964a2.268,2.268,0,0,0-.909.912l-2.973,5.419a2.293,2.293,0,0,1-4.024,0L7.522,18.388a2.344,2.344,0,0,0-.909-.912L1.186,14.513a2.3,2.3,0,0,1,0-4.025L6.614,7.524a2.336,2.336,0,0,0,.909-.912l2.962-5.419a2.293,2.293,0,0,1,4.024,0" transform="translate(170)" fill="#d9d8d6"/>
      <path id="Fill_266" data-name="Fill 266" d="M14.518,1.193l2.962,5.42a2.258,2.258,0,0,0,.909.911l5.417,2.965a2.292,2.292,0,0,1,0,4.024l-5.417,2.965a2.266,2.266,0,0,0-.909.911l-2.962,5.42a2.3,2.3,0,0,1-4.036,0L7.52,18.388a2.266,2.266,0,0,0-.909-.911L1.195,14.512a2.292,2.292,0,0,1,0-4.024L6.611,7.523a2.258,2.258,0,0,0,.909-.911l2.962-5.42a2.3,2.3,0,0,1,4.036,0" transform="translate(96 305)" fill="#d9d8d6"/>
      <path id="Fill_267" data-name="Fill 267" d="M14.507,1.193l2.973,5.419a2.2,2.2,0,0,0,.909.912l5.416,2.964a2.293,2.293,0,0,1,0,4.025l-5.416,2.964a2.2,2.2,0,0,0-.909.912l-2.973,5.419a2.292,2.292,0,0,1-4.024,0L7.522,18.388a2.344,2.344,0,0,0-.909-.912L1.186,14.512a2.3,2.3,0,0,1,0-4.025L6.614,7.523a2.344,2.344,0,0,0,.909-.912l2.962-5.419a2.293,2.293,0,0,1,4.024,0" transform="translate(263 144)" fill="#fed58c"/>
      <path id="Fill_268" data-name="Fill 268" d="M14.511,1.194l2.961,5.419a2.344,2.344,0,0,0,.908.912l5.426,2.964a2.292,2.292,0,0,1,0,4.024L18.38,17.477a2.349,2.349,0,0,0-.908.911l-2.961,5.42a2.292,2.292,0,0,1-4.022,0l-2.961-5.42a2.3,2.3,0,0,0-.92-.911L1.194,14.512a2.292,2.292,0,0,1,0-4.024L6.608,7.524a2.3,2.3,0,0,0,.92-.912l2.961-5.419a2.291,2.291,0,0,1,4.022,0" transform="translate(849 468)" fill="#d9d8d6"/>
      <path id="Fill_269" data-name="Fill 269" d="M14.511,1.186l2.961,5.428a2.35,2.35,0,0,0,.92.909l5.414,2.962a2.292,2.292,0,0,1,0,4.024l-5.414,2.973a2.2,2.2,0,0,0-.92.909l-2.961,5.416a2.29,2.29,0,0,1-4.022,0L7.528,18.389a2.2,2.2,0,0,0-.92-.909L1.194,14.507a2.292,2.292,0,0,1,0-4.024L6.608,7.522a2.35,2.35,0,0,0,.92-.909l2.961-5.428a2.3,2.3,0,0,1,4.022,0" transform="translate(410 658)" fill="#d9d8d6"/>
      <path id="Fill_271" data-name="Fill 271" d="M14.511,1.193l2.961,5.42a2.352,2.352,0,0,0,.908.912l5.426,2.964a2.292,2.292,0,0,1,0,4.024L18.38,17.476a2.347,2.347,0,0,0-.908.913l-2.961,5.417a2.293,2.293,0,0,1-4.025,0L7.523,18.389a2.287,2.287,0,0,0-.912-.913L1.193,14.512a2.293,2.293,0,0,1,0-4.024L6.611,7.525a2.291,2.291,0,0,0,.912-.912l2.963-5.42a2.294,2.294,0,0,1,4.025,0" transform="translate(0 181)" fill="#ff911d"/>
      <path id="Fill_272" data-name="Fill 272" d="M14.516,1.193l2.962,5.42a2.352,2.352,0,0,0,.909.912l5.428,2.964a2.3,2.3,0,0,1,0,4.024l-5.428,2.965a2.341,2.341,0,0,0-.909.911l-2.962,5.419a2.292,2.292,0,0,1-4.024,0L7.519,18.388a2.195,2.195,0,0,0-.909-.911L1.195,14.512a2.292,2.292,0,0,1,0-4.024L6.611,7.525a2.2,2.2,0,0,0,.909-.912l2.973-5.42a2.293,2.293,0,0,1,4.024,0" transform="translate(844 61)" fill="#ff911d"/>
      <path id="Fill_273" data-name="Fill 273" d="M14.516,1.195l2.962,5.417a2.4,2.4,0,0,0,.909.909l5.428,2.962a2.31,2.31,0,0,1,0,4.036L18.386,17.48a2.32,2.32,0,0,0-.909.909l-2.962,5.417a2.291,2.291,0,0,1-4.024,0L7.519,18.389a2.246,2.246,0,0,0-.909-.909L1.195,14.518a2.3,2.3,0,0,1,0-4.036L6.611,7.52a2.32,2.32,0,0,0,.909-.909l2.973-5.417a2.291,2.291,0,0,1,4.024,0" transform="translate(506 748)" fill="#d9d8d6"/>
    </g>
  </g>
</svg>
