<svg xmlns="http://www.w3.org/2000/svg" xmlns:xlink="http://www.w3.org/1999/xlink" width="1204.57" height="972" viewBox="0 0 1204.57 972">
  <defs>
    <clipPath id="clip-path">
      <path id="Mask" d="M.388,690.328a89.647,89.647,0,0,0,19.855,65.119A87.827,87.827,0,0,0,79.857,787.3a89.988,89.988,0,0,0,14.831.136c15.29.845,192.914-15.013,244.338,91.2a169.429,169.429,0,0,0,272.356,42.533l74.372-67.056a233.9,233.9,0,0,1,127.09-61.279l139.63-20a250.72,250.72,0,0,0,27.263-4.005h.351c129.206-26.157,216.135-149.159,198.687-281.135s-133.283-227.609-264.753-218.58l-137.391-1.88A234.216,234.216,0,0,1,587.868,166.69c-11.649-16.675-24.755-40.162-26.292-44.549h-.135C520.419,35.121,426.941-13.511,333.01,3.3S167.817,98.22,158.867,194.183c-.162,1.608-13.483,238.441-13.483,238.441v1.035a236.77,236.77,0,0,1-67.172,149.86l-50.4,50.271A89.154,89.154,0,0,0,.388,690.328Z" transform="translate(0.57)" fill="#e0215d"/>
    </clipPath>
  </defs>
  <g id="Group_3" data-name="Group 3" transform="translate(-937 -2706)">
    <g id="Path" transform="translate(960 2706)">
      <path id="Mask-2" data-name="Mask" d="M.388,690.328a89.647,89.647,0,0,0,19.855,65.119A87.827,87.827,0,0,0,79.857,787.3a89.988,89.988,0,0,0,14.831.136c15.29.845,192.914-15.013,244.338,91.2a169.429,169.429,0,0,0,272.356,42.533l74.372-67.056a233.9,233.9,0,0,1,127.09-61.279l139.63-20a250.72,250.72,0,0,0,27.263-4.005h.351c129.206-26.157,216.135-149.159,198.687-281.135s-133.283-227.609-264.753-218.58l-137.391-1.88A234.216,234.216,0,0,1,587.868,166.69c-11.649-16.675-24.755-40.162-26.292-44.549h-.135C520.419,35.121,426.941-13.511,333.01,3.3S167.817,98.22,158.867,194.183c-.162,1.608-13.483,238.441-13.483,238.441v1.035a236.77,236.77,0,0,1-67.172,149.86l-50.4,50.271A89.154,89.154,0,0,0,.388,690.328Z" transform="translate(0.57)" fill="#e0215d"/>
      <g id="Path-2" data-name="Path" clip-path="url(#clip-path)">
        <path id="Path-3" data-name="Path" d="M.388,690.328a89.647,89.647,0,0,0,19.855,65.119A87.827,87.827,0,0,0,79.857,787.3a89.988,89.988,0,0,0,14.831.136c15.29.845,192.914-15.013,244.338,91.2a169.429,169.429,0,0,0,272.356,42.533l74.372-67.056a233.9,233.9,0,0,1,127.09-61.279l139.63-20a250.72,250.72,0,0,0,27.263-4.005h.351c129.206-26.157,216.135-149.159,198.687-281.135s-133.283-227.609-264.753-218.58l-137.391-1.88A234.216,234.216,0,0,1,587.868,166.69c-11.649-16.675-24.755-40.162-26.292-44.549h-.135C520.419,35.121,426.941-13.511,333.01,3.3S167.817,98.22,158.867,194.183c-.162,1.608-13.483,238.441-13.483,238.441v1.035a236.77,236.77,0,0,1-67.172,149.86l-50.4,50.271A89.154,89.154,0,0,0,.388,690.328Z" transform="matrix(-0.839, 0.545, -0.545, -0.839, 1483.859, 960.188)" fill="#b2073d"/>
      </g>
    </g>
    <g id="Group" transform="translate(1751 2801) rotate(180)">
      <path id="Fill_3" data-name="Fill 3" d="M-532.543,323.29C-346.812,433.425-81.676,481.981,0,492c-66.674-30.056-112.2-55.287-166.685-81.825-55.664-27.117-77.348-45.683-130.832-76.9A2473.029,2473.029,0,0,1-603.236,122.658c22.029-16.673,43.15-36.821,61.518-57.473C-628.066,75.026-734.706,26.6-797,0c25.5,81.736,41.121,173.769,31.87,253.826,17.508-13.554,50.935-34.772,68.439-48.326,51.588,48.03,118.285,90.933,164.147,117.79" transform="translate(17 -145) rotate(-180)" fill="#0091ff"/>
      <path id="Fill_4" data-name="Fill 4" d="M-32.913,18.18A16.5,16.5,0,0,0-14.819,32.913,16.5,16.5,0,0,0-.087,14.82,16.5,16.5,0,0,0-18.18.087,16.5,16.5,0,0,0-32.913,18.18" transform="translate(306 -513) rotate(-180)" fill="#111"/>
      <path id="Fill_5" data-name="Fill 5" d="M-32.913,18.182a16.5,16.5,0,0,0,18.1,14.73,16.5,16.5,0,0,0,14.73-18.1A16.5,16.5,0,0,0-18.182.087a16.5,16.5,0,0,0-14.73,18.1" transform="translate(569 -343) rotate(-180)" fill="#111"/>
      <path id="Fill_6" data-name="Fill 6" d="M-374.846,42.372v.017a26.1,26.1,0,0,0,6.3,14.653l10.771,6.642,2.508,1.554,293.62,181.126c39.827,23.479,87.359-32.393,45.171-58.037l-278.3-169.353-4.689-2.866h-.009l-15.128-9.2-.765-.464a43.7,43.7,0,0,0-7.763-3.966c-28.389-10.964-54.107,16.679-51.718,39.9" transform="translate(244 -290) rotate(-180)" fill="#6038f0"/>
      <g id="Group_29" data-name="Group 29" transform="translate(0 -23)">
        <path id="Fill_7" data-name="Fill 7" d="M-34,11.169l13.133,10.86,3.07,10.423L-15.323,34l4.046-13.277L0,13.873l-13.063.878Q-13.527,7.366-14.232,0c-2.4,4.618-4.89,9.36-7.03,14.106L-34,11.169" transform="translate(117 -344) rotate(-180)" fill="#fff"/>
        <path id="Fill_8" data-name="Fill 8" d="M-34,11.168l13.131,10.86L-17.8,32.454-15.323,34l4.043-13.276L0,13.872l-13.066.879Q-13.53,7.363-14.233,0c-2.4,4.617-4.888,9.359-7.027,14.106L-34,11.168" transform="translate(569 -110) rotate(-180)" fill="#fff"/>
        <path id="Fill_9" data-name="Fill 9" d="M-21.259,14.348C-19.119,9.519-16.633,4.7-14.232,0q.71,7.49,1.172,15L0,14.109l-11.277,6.967L-16.348,38l-4.515-15.6L-34,11.357l12.741,2.991" transform="translate(99 -203) rotate(-180)" fill="#fff"/>
        <path id="Fill_14" data-name="Fill 14" d="M-15,7.5A7.5,7.5,0,0,0-7.5,15,7.5,7.5,0,0,0,0,7.5,7.5,7.5,0,0,0-7.5,0,7.5,7.5,0,0,0-15,7.5" transform="translate(38 -280) rotate(-180)" fill="#f9d673"/>
        <path id="Fill_17" data-name="Fill 17" d="M-15,7.5A7.5,7.5,0,0,0-7.5,15,7.5,7.5,0,0,0,0,7.5,7.5,7.5,0,0,0-7.5,0,7.5,7.5,0,0,0-15,7.5" transform="translate(432) rotate(-180)" fill="#ffe471"/>
        <path id="Fill_18" data-name="Fill 18" d="M-15,7.5A7.5,7.5,0,0,0-7.5,15,7.5,7.5,0,0,0,0,7.5,7.5,7.5,0,0,0-7.5,0,7.5,7.5,0,0,0-15,7.5" transform="translate(0 -341) rotate(-180)" fill="#8b71ea"/>
      </g>
      <path id="Fill_10" data-name="Fill 10" d="M-5.959,1.946A2.737,2.737,0,0,0-3.494,4.937,2.836,2.836,0,0,0-.041,3.054,2.737,2.737,0,0,0-2.506.063,2.836,2.836,0,0,0-5.959,1.946" transform="translate(247 -97) rotate(-180)" fill="#231f20"/>
      <path id="Fill_11" data-name="Fill 11" d="M-29.078,32.112C-15.85,37.258-.974,45.821-.042,60.061.743,72.039-9.713,82.428-21.232,85.543s-23.734.677-35.338-2.1C-88.587,75.781-120.36,65.42-148.3,47.93c-7.6-4.755-15.993-10.88-20.144-19.113-3.511-6.965-4.372-21.263,3.745-25.7,8.272-4.52,25.4-3.258,34.489-1.578,14.566,2.694,28.889,7.278,42.766,12.416C-68.4,21-48.156,24.689-29.078,32.112" transform="translate(322 -117) rotate(-180)" fill="#ff8faf"/>
      <path id="Fill_12" data-name="Fill 12" d="M-59.989,98.656q.04,6.171.236,12.344c0-2.705,12.23-12.919,14.347-15.4,4.856-5.707,9.459-11.627,13.881-17.667q1.138-1.551,2.255-3.118c.135-.184.265-.371.4-.555.333-.467.67-.938,1-1.409,4.11-5.8,8.068-11.714,11.946-17.671l1.13-1.742q3.8-5.878,7.52-11.8c.1-.15.19-.3.286-.455.3-.475.6-.951.9-1.417,5.235-8.254,9.484-15.211,2.213-20.585a21.462,21.462,0,0,0-3.979-2.259c-8.936-4.023-17.868-7.946-26.986-11.439-.531-.2-1.058-.409-1.589-.609C-41.085,3.118-45.789,1.48-50.57,0q-1.613,8.066-2.94,16.183c-.094.55-.183,1.1-.272,1.651q-1.76,10.936-3.025,21.948c-.094.775-.178,1.551-.259,2.326q-1.76,15.964-2.463,32.015c-.045.888-.076,1.78-.112,2.668q-.422,10.924-.348,21.865" transform="translate(331 -135) rotate(-180)" fill="#6236ff"/>
      <path id="Fill_13" data-name="Fill 13" d="M-120.643,39.031C-98.221,60.143-73.764,78.743-50.818,99.28c9.744,8.723,24.386,19.947,38.28,14.1C.1,108.068,3.034,90.158-3.058,77.834S-21.265,57.545-32.837,50.177C-45.567,42.986-57.686,34.35-70.02,26.493Q-88.336,14.83-106.828,3.6c-6.1-3.7-15.871-5.567-21.787-.5-10.066,8.625-7.127,20.85,1.189,29.3q3.317,3.379,6.784,6.626" transform="translate(444 -50) rotate(-180)" fill="#ed9f94"/>
      <path id="Fill_15" data-name="Fill 15" d="M-15,7.5A7.5,7.5,0,0,0-7.5,15,7.5,7.5,0,0,0,0,7.5,7.5,7.5,0,0,0-7.5,0,7.5,7.5,0,0,0-15,7.5" transform="translate(593 -472) rotate(-180)" fill="#809ee8"/>
      <path id="Fill_19" data-name="Fill 19" d="M-50.789,6.048C-58.028,12.524-60.918,26.314-61,35.719c-.085,10.048,3.6,20.159,12.718,25.177a35.488,35.488,0,0,0,36.949-2.35C-1.523,51.505,1.41,37.815-.6,26.374c-1.82-10.39-8.351-19.513-18.242-23.35-10.4-4.035-23.045-4.943-31.952,3.024" transform="translate(240 -104) rotate(-180)" fill="#ed9f94"/>
      <path id="Fill_20" data-name="Fill 20" d="M-46,29.273-10.036,46,0,16.727-26.763,0-46,29.273" transform="translate(259 -149) rotate(-180)" fill="#ed9f94"/>
      <path id="Fill_21" data-name="Fill 21" d="M-158.532,84.324c6.008-9.68,9.662-21.112,14.466-31.22,5.694-11.98,11.973-23.237,17.9-35.106,2.313-4.63,3.343-13.9,7.593-16.686,5.26-3.452,16.72.774,21.79,2.777A278.9,278.9,0,0,1-3.83,64.639c8.607,8.48.723,21.189-4.339,32.19-6.773,14.719-16.933,26.014-25.679,39.331-13.551,20.634-30.067,38.422-42.907,59.934C-84.1,208.41-93.445,222.646-107.708,223c-12.377,0-22.185-10.116-28.529-19.913-7.48-11.55-17.016-20.55-26.853-30.39-8.211-8.217-16.579-16.648-21.634-27.136s-6.263-23.606-.132-33.495c4.892-7.886,13.525-12.527,19.885-19.265a52.881,52.881,0,0,0,6.439-8.478" transform="translate(226 -158) rotate(-180)" fill="#ed9f94"/>
      <path id="Fill_22" data-name="Fill 22" d="M-60.058,136.907q.835,4.692,1.741,9.362c.49,2.517,1,5.06,1.561,7.585,2.285,10.261,5.462,20.337,11.673,28.312,7.743,9.947,21.584,15.463,32.042,9.136C-.6,183.783.749,165.113-.273,149.654c-1.478-22.295-6.818-44.016-8.613-66.1C-10.2,67.458-12.2,51.176-16,35.531c-2.373-9.757-8.567-27.273-16.184-33.355-7.475-5.964-20,1.515-24.772,8.212-5.646,7.915-7.571,19.053-8.609,28.763-3.469,32.559-.234,65.525,5.512,97.756" transform="translate(198 -218) rotate(-180)" fill="#ed9f94"/>
      <path id="Fill_23" data-name="Fill 23" d="M-192,122.038c10.332,19.154,24.954,35.741,41.27,50.13,15.395,13.574,32.647,24.048,49.016,36.256,8.27,6.161,26.38,19.606,37.644,15.96,3.465-1.121,5.776-4.312,7.837-7.313,4.847-7.066,9.782-13.837,14.383-20.66A181.038,181.038,0,0,0-31.11,178.7a96.985,96.985,0,0,0,9.148-24.83s0-.012,0-.016q.175-.826.362-1.651c1.595-7.172,3.66-14.343,5.884-21.523.216-.692.433-1.388.654-2.081,5.942-18.942,12.809-37.938,15-57.16v0c.021-.163.041-.321.058-.484C-11.039,60.925-23.632,52.215-35.608,43.334a20.686,20.686,0,0,1-3.623,2.047,24.86,24.86,0,0,1-2.548.951,36.823,36.823,0,0,1-9.961,1.5q-1.749.05-3.518-.021c-1.029-.046-2.057-.121-3.082-.238a30.6,30.6,0,0,1-15.316-5.658C-82.238,35.374-85.44,23.9-86.231,13.13c-3.656-1.555-7.237-3.211-10.81-4.866-.7-.325-1.4-.647-2.095-.967-3.739-1.73-7.487-3.436-11.31-5C-112.415,1.484-114.4.717-116.421,0c-3.44,4.749-6.554,9.652-9.478,14.648-.283.479-.562.959-.841,1.442-2.628,4.553-5.114,9.181-7.558,13.83-.075.146-.154.292-.229.438q-2.6,4.985-5.2,9.982c-.391.75-.787,1.5-1.179,2.247-3.906,7.438-7.937,14.831-12.505,21.99-3.8,5.954-8.093,11.612-12.47,17.212C-170.5,87.7-175.2,93.543-179.5,99.61c-.5.7-.987,1.405-1.477,2.118A98.653,98.653,0,0,0-192,122.038" transform="translate(224 -152) rotate(-180)" fill="#6236ff"/>
      <path id="Fill_24" data-name="Fill 24" d="M-24.98,57.258a23.637,23.637,0,0,1,3.151-7.535C-16.178,41.215-6.876,35.5-2.17,26.262c2.4-4.7,3.126-10.609.553-15.216A17.922,17.922,0,0,0-7.908,4.919,32.334,32.334,0,0,0-21.773.086c-4.574-.489-8.852,1.2-13.148,2.746a83.556,83.556,0,0,0-18.817,9.592c-2.575,1.759-5.367,3.536-7.813,5.416-2.748,2.11-4.715,5.384-7.06,7.939-3.275,3.576-7.486,5.793-10,10.178a29.5,29.5,0,0,0-2.792,7.557A167.721,167.721,0,0,0-84.492,60.8c-.509,3.594-1.2,9.121,1.106,12.346a4.574,4.574,0,0,0,5.541,1.173,8.035,8.035,0,0,0,3.859-4.625,33.573,33.573,0,0,0,1.317-6.055c.795-4.62,3.67-8.85,6.138-12.737a.606.606,0,0,1,.277-.28c.316-.12.566.284.667.609,1.677,5.344,1.967,10.96,3.771,16.278a10.507,10.507,0,0,0,2.88,4.674,5.632,5.632,0,0,0,5.115,1.342c.318-.089,2.708-1.488,2.55-1.866a12.462,12.462,0,0,0,5.53,6.113,6.631,6.631,0,0,0,4.781.844,3.625,3.625,0,0,0,2.778-3.652c1.387,1.981,2.457,4.776,4.8,5.642a6.148,6.148,0,0,0,6.467-1.288,7.326,7.326,0,0,0,1.7-4.878,40.966,40.966,0,0,0-.49-5.264,35.659,35.659,0,0,1,.724-11.915" transform="translate(323 -435) rotate(-180)" fill="#ed9f94"/>
      <path id="Fill_25" data-name="Fill 25" d="M-82,109.667a9.088,9.088,0,0,0,3.611,1.2,23.478,23.478,0,0,0,4.815.008c22.543-1.718,43.934-10.9,62.783-23.711.72-.484,1.432-.978,2.145-1.479q4.422-3.1,8.646-6.44A185.1,185.1,0,0,0-26.542,27.38c-.364-.506-.737-1.007-1.11-1.5A182.255,182.255,0,0,0-47.511,3.352v0Q-49.275,1.649-51.089,0c-7.445,20.584-13.47,42.18-19.106,63.8-.17.656-.344,1.312-.513,1.973q-1.87,7.2-3.694,14.382c-.157.627-.319,1.25-.476,1.877-2.364,9.283-4.712,18.52-7.122,27.631" transform="translate(177 -220) rotate(-180)" fill="#6236ff"/>
      <path id="Fill_26" data-name="Fill 26" d="M-99.02,218c.381,0,.734-.01,1.077-.031a17.772,17.772,0,0,0,8.775-3.007,23.422,23.422,0,0,0,6.449-6.554,26.387,26.387,0,0,0,4.016-9.94c1.387-8.055-.339-16.942-5.431-27.967-6.054-13.116-13.715-20.875-22.773-23.062a24.529,24.529,0,0,0-5.735-.666c-4.238,0-8.725.966-14.55,3.132-.029-.376-.054-.748-.079-1.108v-.006c-.151-2.145-.322-4.365-.522-6.788.326-.269.648-.557.986-.879,3.313-3.156,5.717-7.7,7.351-13.892,1.914-7.24,2.445-14.817,2.959-22.144v-.021c.488-7,.993-14.229,2.714-21.113.062-.247.131-.527.209-.8,1.876,6.561,2.611,13.513,3.323,20.236l.1.916v.006c.123,1.148.249,2.334.381,3.5,1.119,9.811,2.914,20.049,8.42,28.46a31.8,31.8,0,0,0,9.24,9.163,23.817,23.817,0,0,0,12.766,3.986,20.324,20.324,0,0,0,3.815-.362l.042-.007h.005l.061-.01a28.581,28.581,0,0,0,7.206,13,19.493,19.493,0,0,0,5.631,3.938,18.094,18.094,0,0,0,4.433,1.372,18.468,18.468,0,0,0,3.177.275c9.814,0,18.333-7.786,22.423-15.5,3.026-5.7,4.59-11.942,5.72-17.292.8-.034,1.58-.051,2.331-.051,7.267,0,12.652,1.63,16.462,4.982,4.512,3.969,6.859,10.787,6.279,18.239A42.214,42.214,0,0,1-3.6,167.16c.693-.462,1.4-.945,2.162-1.476a41.012,41.012,0,0,0,1.349-7.555c.622-7.97-1.936-15.305-6.843-19.62-4.129-3.632-9.872-5.4-17.555-5.4-.644,0-1.315.012-1.995.037.258-1.27.5-2.551.744-3.79l.074-.386.064-.332c.4-2.08.816-4.227,1.268-6.314a65.755,65.755,0,0,1,4.85-14.843c-.406-.558-.811-1.1-1.119-1.5a65.914,65.914,0,0,0-5.364,15.991c-.437,2.016-.837,4.084-1.223,6.083v.006l-.116.6-.07.364c-.265,1.377-.539,2.8-.827,4.208-.917.057-1.894.135-2.985.238-9.289.894-17.008,4.11-24.472,7.221a.176.176,0,0,0-.046.017l-.2.084c-2.451,1.021-4.985,2.077-7.583,3.048a77.235,77.235,0,0,1-10.7,3.242,33.93,33.93,0,0,1-.617-10.622c.783-7.551,3.456-14.872,6.04-21.953l.013-.037.006-.017a144.276,144.276,0,0,0,4.783-14.726c2.493-10.114,2.265-19.085-.677-26.662a28.831,28.831,0,0,0-6.216-9.693,24.84,24.84,0,0,0-9.03-5.944,24.855,24.855,0,0,1-2.555.951c7.057,1.792,13.281,7.65,16.244,15.29,2.817,7.252,3.022,15.886.609,25.661a141.715,141.715,0,0,1-4.685,14.434l-.049.133-.009.023c-2.619,7.181-5.328,14.607-6.137,22.362a35.355,35.355,0,0,0,.66,11.135h0a.052.052,0,0,0-.02,0,18.69,18.69,0,0,1-3.5.331c-9.223,0-16.868-6.678-20.613-12.4-5.315-8.118-7.059-18.129-8.153-27.738-.147-1.28-.3-2.678-.481-4.4l-.006-.06c-.807-7.6-1.641-15.449-4.1-22.818a40.536,40.536,0,0,1,9.476-15.257,27.347,27.347,0,0,1,7.256-5.223c-1.091-.049-2.1-.126-3.089-.238a32.556,32.556,0,0,0-8.551,7.831,43.713,43.713,0,0,0-5.968,10.462C-117,69.156-123.114,60.7-132.818,51.3c-2.386-2.309-4.995-4.622-7.753-6.875a17.193,17.193,0,0,0,4.553-11.054,35.537,35.537,0,0,0-1.835-13.075c-.731-.339-1.417-.656-2.1-.968,1.712,4.882,4.954,16.995-1.925,24.043-3.525-2.813-7.43-5.656-11.605-8.448-4.1-2.742-8.577-5.514-13.3-8.239-3.6-2.082-7.447-4.193-11.422-6.274-.594-.314-1.126-.6-1.624-.864-2.554-5.677-4.565-10.8-3.29-15.995A11.619,11.619,0,0,1-181.958.609l-.413-.16-.009,0c-.377-.147-.767-.3-1.152-.445a13.393,13.393,0,0,0-1.21,3.145,17.019,17.019,0,0,0-.01,7.659,39.819,39.819,0,0,0,2.53,7.452c-2.773-1.481-5.768-3.027-8.872-4.31a34.415,34.415,0,0,0-9.354-2.624c-.093.55-.182,1.108-.268,1.649h0v0c6.32.641,13.758,4.634,19.189,7.549l.019.01.067.036c.105.057.214.116.322.172.031.069.063.138.095.208.041.089.082.179.122.269.436.965.9,1.989,1.319,2.97,2.768,6.435,3.916,14.822-1.161,19.061a9.173,9.173,0,0,1-6.051,2.113c-4.673,0-10.216-2.886-14.465-7.532-.808-.878-1.634-1.85-2.452-2.891-.091.765-.175,1.526-.257,2.328.522.624,1.018,1.192,1.476,1.689a27.7,27.7,0,0,0,7.4,5.761,18.218,18.218,0,0,0,8.348,2.3,10.743,10.743,0,0,0,7.077-2.487,10.667,10.667,0,0,0,2.5-3.038c.086-.16.175-.324.254-.491a15.835,15.835,0,0,0,1.246-8.547,30.45,30.45,0,0,0-2.38-8.921c-.213-.5-.441-1.012-.661-1.506,3.861,2.024,7.59,4.076,11.082,6.095,4.759,2.745,9.218,5.509,13.254,8.214s7.831,5.451,11.238,8.16c-.04.032-.085.067-.13.1-4.415,3.416-10.424,3.658-16.236,3.892h-.024l-.173.007c-.789.031-1.605.063-2.407.106-.265.013-.525.025-.781.041a62.911,62.911,0,0,0-17.759,3.742A67.137,67.137,0,0,0-199.8,63.2a65.358,65.358,0,0,0-6.607,6.107c-.033.661-.059,1.336-.083,1.988-.009.23-.017.456-.026.682a65.631,65.631,0,0,1,24.694-17.342,60.969,60.969,0,0,1,18.6-4.289c.128-.014.26-.022.387-.03l.056,0c1.014-.062,2.071-.106,3.093-.149h.006l.223-.009c6.084-.242,12.374-.492,17.217-4.238.142-.106.278-.218.41-.327l.024-.02c2.8,2.279,5.432,4.61,7.827,6.929,9.693,9.39,15.741,17.81,19.033,26.5.19.509.344.935.484,1.338-.354,1.052-.67,2.134-.94,3.217-1.76,7.035-2.268,14.338-2.759,21.4l-.005.074c-.508,7.234-1.033,14.714-2.9,21.782-1.556,5.881-3.81,10.17-6.892,13.112l-.008.008c-1.12-12.98-2.684-26.035-4.647-38.8-.146-.942-.29-1.907-.43-2.841l0-.015C-134.99,85.225-137,71.737-149.417,64.038a17.125,17.125,0,0,0-9.1-2.748,16.106,16.106,0,0,0-5.885,1.137,22.85,22.85,0,0,0-8.975,6.78c-.379.455-.74.914-1.074,1.364l-.12.164-.008.011c-.085.116-.181.247-.273.376a30.329,30.329,0,0,0-4.446,9.337c-3.1,11.261-1.522,24.239,4.705,38.573,4.991,11.477,11.1,19.247,18.689,23.754a28.328,28.328,0,0,0,14.28,3.918,21.844,21.844,0,0,0,12.25-3.517c.167,2.064.31,3.936.435,5.724q.028.4.056.8t.057.819c-1.74.682-3.494,1.416-5.189,2.125l-.01,0-.287.12-.3.128c-1.157.486-2.352.988-3.524,1.462-10.946,4.427-21.422,6.672-31.138,6.672a53.751,53.751,0,0,1-15.673-2.225c-18.875-5.757-33.835-25.576-35.572-47.125-.463.65-.933,1.324-1.48,2.12a58.023,58.023,0,0,0,2.338,10.937A58.987,58.987,0,0,0-215.2,135.2c6.83,12.487,17.4,21.44,29.771,25.21a55.337,55.337,0,0,0,16.153,2.3c9.931,0,20.619-2.286,31.768-6.8,1.286-.518,2.607-1.071,3.849-1.593,1.531-.642,3.262-1.369,4.955-2.04q.05.738.1,1.477l0,.045q.047.722.1,1.444v.008c.759,11.611,1.545,23.616,4.266,35.136,1.218,5.167,3.391,12.724,8.174,18.672a25.478,25.478,0,0,0,7.909,6.593A19.86,19.86,0,0,0-99.02,218Zm-13.605-69.55a22.8,22.8,0,0,1,5.327.613c8.534,2.062,15.818,9.511,21.65,22.14,4.944,10.708,6.628,19.282,5.3,26.982-1.432,8.336-8.121,17.519-17.7,18.12-.313.019-.624.029-.926.029a18.333,18.333,0,0,1-8.447-2.214,23.756,23.756,0,0,1-7.351-6.108c-4.571-5.678-6.671-13-7.853-18.01-2.687-11.38-3.467-23.3-4.222-34.833v-.011l0-.024-.026-.4-.023-.355c-.049-.761-.113-1.759-.18-2.735C-121.221,149.436-116.765,148.45-112.625,148.45Zm84.065-13.525a63.108,63.108,0,0,1-5.465,16.416c-3.857,7.275-11.828,14.615-20.939,14.615a16.937,16.937,0,0,1-2.9-.251,16.708,16.708,0,0,1-4.354-1.4,18.473,18.473,0,0,1-5.519-4.143A27.462,27.462,0,0,1-73.8,148.7a78.315,78.315,0,0,0,9.79-2.9c2.651-.958,5.255-2.026,7.694-3.038l.363-.15.177-.074.008,0,.012-.005.1-.04.01,0,.087-.036.009,0q.245-.1.491-.2l.005,0c7.7-3.212,14.968-6.246,24.028-7.118C-30.081,135.041-29.3,134.976-28.56,134.924Zm-129.968-71.96a15.5,15.5,0,0,1,8.23,2.492c11.762,7.293,13.713,20.4,15.6,33.068.156,1.054.292,1.961.43,2.855,2.016,13.083,3.61,26.5,4.738,39.866a20.025,20.025,0,0,1-12.112,3.728,26.964,26.964,0,0,1-13.407-3.623c-7.276-4.326-13.167-11.843-18.01-22.982-6.07-13.976-7.627-26.581-4.63-37.463,2.125-7.7,7.71-14.5,13.9-16.925A14.4,14.4,0,0,1-158.528,62.964Z" transform="translate(183 -141) rotate(-180)" fill="#efe8ea"/>
      <path id="Fill_27" data-name="Fill 27" d="M-32.755,58.649C-40.949,37.632-51.887,15.888-71.592,5.038-78.407,1.286-86.34-.986-93.984.42c-22.454,4.126-25.67,23.716-24.921,44.048,1.145,31.2,8.3,60.663,13.771,91.062,4.819,26.8,11.9,54.057,28.749,76.006,4.555,5.932,9.511,11.7,15.736,15.825a40.888,40.888,0,0,0,36.207,4.206c9.583-3.548,20.6-12.506,23.461-22.837,3.127-11.277-2.1-25.625-3.478-37.09a463.609,463.609,0,0,0-28.3-112.992" transform="translate(358 -93) rotate(-180)" fill="#7e5ddb"/>
      <path id="Fill_28" data-name="Fill 28" d="M-110.6,92.355c-.956-2.781-.308-5.766,2.973-8.715,14.259-12.8,30.113-23.9,43.1-38.087,6.1-6.659,11.18-13.326,13.938-21.895,2.595-8.045,9.533-14.573,16.462-19.15A29.135,29.135,0,0,1-26.542.726c4.233-1.271,9.083-.95,12.722,1.567,3.092,2.14,5,5.575,6.7,8.94C-.372,24.655,2.276,49.2-2.248,63.7-4.631,71.348-12.512,75.624-19.7,79.113q-9.872,4.8-19.753,9.6c-3.559,1.729-5.718,4.475-9.1,6.349a98.181,98.181,0,0,1-18.968,8.047c-7.211,2.206-14.832,3.577-22.3,2.538-6.533-.906-18.44-6.5-20.779-13.291" transform="translate(455 -300) rotate(-180)" fill="#ed9f94"/>
      <path id="Fill_29" data-name="Fill 29" d="M-94.851,223.607a1.232,1.232,0,0,1-.137-.752c7.624-51.268,9.91-103.1,17.535-154.385,3.619-24.342,9.343-51.25,29.527-65.322,4.16-2.9,13.348-4.406,17.712-1.822C-8.32,14.29.882,42.047-.066,67.48S-10.141,117.2-16.812,141.763c-8.4,30.929-18,62.5-22.634,94.237-4.988-1.731-52.4-6.485-55.4-12.393" transform="translate(414 -96) rotate(-180)" fill="#170e36"/>
      <path id="Fill_30" data-name="Fill 30" d="M-166.263,23.174c-2.23,10.242,1.1,21.807,3.3,31.563,7.062,31.434,21.507,59.8,35.809,87.772q11.6,22.681,23.191,45.362c9.306,18.2,21.3,41.092,41.563,48.967,19.355,7.522,50.967-5.513,58.542-24.818,11.286-28.767-4.444-56.243-18.118-80.8C-44.7,90.408-68.6,46.712-104.323,16.029-111.988,9.442-120.212,3.113-129.882.684c-10.791-2.71-24.428,2.877-31.8,12.473a24.9,24.9,0,0,0-4.584,10.017" transform="translate(296 -148) rotate(-180)" fill="#170e36"/>
      <path id="Fill_31" data-name="Fill 31" d="M-114.69,126.808c12.239-14.136,30.6-21.789,41.18-38.132,3.251-5.018,7.4-11.806,8.125-17.866.783-6.536-1.34-14.132-2.358-20.637-1.429-9.18-2.857-18.581-1.1-27.707s7.356-18.077,16.1-21.252c9.041-3.281,19.559.414,26.371,7.195s10.452,16.118,12.655,25.465,3.149,18.956,5.558,28.25c3.1,11.965,13.454,27.884,4.744,39.681-4.44,6.016-12.031,8.584-18.9,11.563-13.071,5.68-24.854,13.9-37.5,20.465A164.176,164.176,0,0,1-96.78,147.7c-3.6.874-7.316,1.633-10.987,1.147a16.793,16.793,0,0,1-11.956-7.759,7.173,7.173,0,0,1-1.269-4.034,8.442,8.442,0,0,1,1.575-3.915,52.1,52.1,0,0,1,4.728-6.333" transform="translate(368 -313) rotate(-180)" fill="#e0857d"/>
      <path id="Fill_32" data-name="Fill 32" d="M-68.7,224.873c-2.734-9.211-8.574-35.927-8.891-38.978a292.71,292.71,0,0,0-7.212-39.608c-6.944-28.521-14.675-57.552-14.169-87.158C-98.6,37.164-91.914-6.805-60.679.894c9.163,2.258,16.6,9.045,22.317,16.6C-19.253,42.715-17.328,75.209-14.5,105.535Q-9.514,158.971-.006,211.849c.523,2.9-31.033,11.241-34.308,11.985-10.772,2.442-22.15,4.366-33.16,4.15-.215,0-.655-1.168-1.231-3.11" transform="translate(372 -151) rotate(-180)" fill="#170e36"/>
      <g id="Group_26" data-name="Group 26" transform="translate(274 -123)">
        <path id="Fill_33" data-name="Fill 33" d="M-5.465,14a.8.8,0,0,0,.514-.186.851.851,0,0,0,.123-1.178A6.814,6.814,0,0,1-6.311,9.954a2.1,2.1,0,0,1,.73-2.174,1.068,1.068,0,0,1,1.007.047.654.654,0,0,1,.368.5.83.83,0,0,0,.7.792.815.815,0,0,0,.892-.549L-.047,1.116A.843.843,0,0,0-.546.048.814.814,0,0,0-1.59.559l-2.034,5.9c-.05-.033-.1-.065-.156-.1a2.671,2.671,0,0,0-2.607-.039,3.714,3.714,0,0,0-1.527,3.969,8.23,8.23,0,0,0,1.812,3.4A.81.81,0,0,0-5.465,14" transform="translate(8) rotate(-180)" fill="#231f20"/>
        <path id="Fill_34" data-name="Fill 34" d="M-.025,4.037a2.183,2.183,0,0,1-.061.287C-1.54,9.441-9.465,10.161-13.393,7.445-15.684,5.862-18.712,3.23-15.806.766-13.814-.923-9.5.86-6.9.438A13.072,13.072,0,0,1-3.56.021,4.024,4.024,0,0,1-.069,3.054a2.833,2.833,0,0,1,.044.982" transform="translate(0 -16) rotate(-180)" fill="#fff"/>
      </g>
      <g id="Group_25" data-name="Group 25" transform="translate(261 -117)">
        <path id="Fill_35" data-name="Fill 35" d="M-3.845,2.065c-.426,1.36.055,2.656,1.073,2.9s2.19-.667,2.616-2.027S-.21.279-1.229.039s-2.19.667-2.616,2.027" transform="translate(7 -9) rotate(-180)" fill="#231f20"/>
        <path id="Fill_40" data-name="Fill 40" d="M-8.729,4.261A5.312,5.312,0,0,1-10.611,2.8,1.852,1.852,0,0,1-10.635.566,2.333,2.333,0,0,1-8.883,0C-5.876-.012-.316,2.5-.015,6.133c.4,4.767-7.134-.994-8.714-1.872" transform="rotate(-180)" fill="#231f20"/>
      </g>
      <path id="Fill_36" data-name="Fill 36" d="M-3.845,2.065c-.426,1.359.055,2.656,1.074,2.9s2.19-.667,2.616-2.027S-.21.279-1.229.039s-2.19.667-2.616,2.027" transform="translate(288 -121) rotate(-180)" fill="#231f20"/>
      <path id="Fill_37" data-name="Fill 37" d="M-33.659,57.735c-1.931-.964-1.688-3.843-3.037-5.519-1.909-2.37-5.966-1.361-8.409-3.186-2.241-1.675-2.244-4.965-1.9-7.728s.693-5.931-1.2-7.988c-.556-.6-1.265-1.054-1.821-1.658-2.179-2.368-1.345-6.128-.1-9.086,1.232-2.929,1.668-5.466-.386-8.18-.877-1.159-3.35-2.067-4.694-1.374a4.251,4.251,0,0,1-1.973.761A1.989,1.989,0,0,1-58.9,12.264a4.048,4.048,0,0,1,.215-2.393,9.042,9.042,0,0,1,1.275-2.4,11.675,11.675,0,0,0,1.56-2.223,10.317,10.317,0,0,0,.509-2.509c1.11-7.079,12.67,1.465,14.687,4.38,1.052,1.519,3.82,3.363,4.1,5.137.219,1.244-.646,2.518-.321,3.739.476,1.788,2.857,2.021,4.649,2.53a8.1,8.1,0,0,1,4.69,3.595c1.605,2.692,1.678,6.379,4.178,8.285,1.487,1.134,3.468,1.32,5.267,1.847A26.978,26.978,0,0,1-13.243,34.4c1.821.953,3.783,2.06,4.52,3.967.552,1.428.319,3.112,1.1,4.43.9,1.522,2.809,2.047,4.452,2.724S.216,47.561-.022,49.31c-.5,3.649-3.121,7.443-6.82,7.731-2.047.159-4.137-.544-6.134-.074-2.675.631-4.538,3.213-7.207,3.865-2.909.71-5.811-1.047-8.788-1.384-1.618-.183-4-.247-4.688-1.714" transform="translate(201 -124) rotate(-180)" fill="#231f20"/>
      <path id="Fill_38" data-name="Fill 38" d="M-11.953,5.27c-1.311,1.656-6.343,6.53-4.733,8.612,2.09,2.7,6.971-.273,9.27-.821,2.226-.53,5.886-1.035,7.057-3.306,1.344-2.607-1.4-5.608-3.146-7.3A7.825,7.825,0,0,0-7.165.092C-10.8-.659-10.441,3.364-11.953,5.27" transform="translate(245 -152) rotate(-180)" fill="#231f20"/>
      <path id="Fill_39" data-name="Fill 39" d="M-23,11.5A11.5,11.5,0,0,0-11.5,23,11.5,11.5,0,0,0,0,11.5,11.5,11.5,0,0,0-11.5,0,11.5,11.5,0,0,0-23,11.5" transform="translate(238 -134) rotate(-180)" fill="#ed9f94"/>
      <path id="Fill_41" data-name="Fill 41" d="M-8.729,4.261A5.316,5.316,0,0,1-10.611,2.8,1.853,1.853,0,0,1-10.635.566,2.333,2.333,0,0,1-8.883,0C-5.876-.012-.316,2.5-.015,6.133c.4,4.767-7.134-.994-8.714-1.872" transform="translate(281 -113) rotate(-180)" fill="#231f20"/>
      <path id="Fill_42" data-name="Fill 42" d="M-23,8.852c8.2.812,15.969-1.763,23-6.336A32.535,32.535,0,0,1-17.321,0L-23,8.852" transform="translate(276 -160) rotate(-180)" fill="#231f20"/>
      <path id="Fill_43" data-name="Fill 43" d="M-22.159,19a.851.851,0,0,0,.6-.247,121.176,121.176,0,0,1,11.227-9.5l10.015-7.8A.8.8,0,0,0-.186.3.859.859,0,0,0-1.368.18l-10.015,7.8a122.245,122.245,0,0,0-11.379,9.637.8.8,0,0,0,.018,1.151.853.853,0,0,0,.586.23" transform="translate(267 -167) rotate(-180)" fill="#231f20"/>
      <path id="Fill_44" data-name="Fill 44" d="M-61,19.2l.443.593c3.028-1.185,6.357-.965,9.538-.474,9.5,1.465,18.082,5.727,25.9,11.311,2.125,1.519,4.2,3.111,6.233,4.745,1.793,1.435,3.562,2.9,5.326,4.377.174.148.352.292.526.44,1.222,1.02,4.614,4.995,6.241,4.8,1.872-.229,3.637-5.49,4.382-7.091,1.334-2.84,2.539-5.884,2.4-9.033C-.165,25.5-1.846,22.384-3.83,19.688a31.438,31.438,0,0,0-4.079-4.525,38.5,38.5,0,0,0-3.3-2.709A62.9,62.9,0,0,0-20.4,6.959C-26.658,3.814-33.591.377-40.69.017-47.043-.3-53.2,3.882-56.515,9.228A53.112,53.112,0,0,0-61,19.2" transform="translate(231 -91) rotate(-180)" fill="#809ee8"/>
      <path id="Fill_45" data-name="Fill 45" d="M-52.138,14.882c1.3,2.682,5.377,10.157,7.8,9.714,10.519-1.921,28.988,5.848,32.775,8.315C-8,35.228-3.342,37.283,0,40A81.435,81.435,0,0,0-8.353,26.31c-4.4-5.88-8.848-11.8-14.362-16.677S-34.96.956-42.3.114c-4.091-.47-8.981.448-10.813,4.107-1.7,3.383-.734,7.153.97,10.661" transform="translate(248 -87) rotate(-180)" fill="#efe8ea"/>
      <path id="Fill_46" data-name="Fill 46" d="M-22.975,111h.035a.838.838,0,0,0,.809-.867C-23.61,73.917-15.982,36.24-.074,1.176A.83.83,0,0,0-.5.073a.848.848,0,0,0-1.116.42c-16.015,35.3-23.693,73.234-22.2,109.706a.84.84,0,0,0,.843.8" transform="translate(229 -219) rotate(-180)" fill="#231f20"/>
      <path id="Fill_47" data-name="Fill 47" d="M-25.172,55a.827.827,0,0,0,.778-.551A437.953,437.953,0,0,1-5.517,9.747C-3.938,6.521-2.451,3.668-.241,1.426a.842.842,0,0,0,0-1.182.821.821,0,0,0-1.17,0C-3.8,2.668-5.355,5.646-7,9.005A439.7,439.7,0,0,0-25.95,53.88a.838.838,0,0,0,.5,1.07.815.815,0,0,0,.282.05" transform="translate(334 -154) rotate(-180)" fill="#231f20"/>
      <path id="Fill_48" data-name="Fill 48" d="M-14.625,134a.877.877,0,0,0,.185-.022A50.6,50.6,0,0,0-.428,128.684a.836.836,0,0,0,.409-.91q-7.167-32.831-13.67-63.557Q-20.247,33.488-27.358.657A.827.827,0,0,0-28.347.02a.832.832,0,0,0-.633.994q7.164,32.832,13.669,63.552,6.492,30.444,13.536,62.955a49,49,0,0,1-13.035,4.83.836.836,0,0,0-.624,1,.835.835,0,0,0,.808.65" transform="translate(368 -233) rotate(-180)" fill="#231f20"/>
      <path id="Fill_49" data-name="Fill 49" d="M-3.288,17a.732.732,0,0,0,.673-.581A76.23,76.23,0,0,0,0,.914.815.815,0,0,0-.656,0,.762.762,0,0,0-1.42.785a74.141,74.141,0,0,1-2.545,15.1.9.9,0,0,0,.451,1.073A.61.61,0,0,0-3.288,17" transform="translate(389 -233) rotate(-180)" fill="#231f20"/>
      <path id="Fill_50" data-name="Fill 50" d="M-130.867,69.747c2.732-5.349,6.071-8.581,11.076-11.954,7.12-4.8,14.059-9.708,21.39-14.151,3.432-2.078,6.908-4.2,9.64-7.135a43.8,43.8,0,0,0,5.82-8.744q3.027-5.471,6.062-10.933c1.934-3.484,4.829-7.489,8.767-6.963a9.313,9.313,0,0,1,4.459,2.365,65.669,65.669,0,0,1,9.79,9.894,6.2,6.2,0,0,0,2.811,2.392,5.842,5.842,0,0,0,3.036-.208c6.807-1.733,13.975-4.244,18.068-9.969,2.194-3.072,3.3-6.817,5.49-9.9S-18.269-1.034-14.8.451c6.184,2.644,4.48,12.665,5.64,17.82.939,4.178,3.39,7.639,4.619,11.658,1.178,3.85,2.017,7.7,3.446,11.547A13.069,13.069,0,0,1,0,46.1a4.437,4.437,0,0,1-2.178,3.988c-2.751,5.331-7.223,7.033-12.859,9.045S-26.653,62-32.394,63.69A62.06,62.06,0,0,0-57.661,78.323c-3.873,3.7-7.336,7.966-11.94,10.7-5.093,3.024-11.133,3.912-17,4.655-11.283,1.428-23.029,2.493-33.783-1.211-4.829-1.667-9.627-4.593-11.627-9.31-1.806-4.266-.965-9.288,1.145-13.413" transform="translate(360 -370) rotate(-180)" fill="#efe8ea"/>
      <path id="Fill_51" data-name="Fill 51" d="M-118.975,78.372c-.687-2.349-1.409-4.764-1.506-5.085-1.488-5,.41-10.552,3.342-14.658,3.294-4.6,7.966-7.976,12.554-11.263q11.368-8.141,22.74-16.286C-75.864,26.8-68.5,23.353-65.19,16.212c1.524-3.293,2.065-6.829,3.818-10.177C-60.091,3.59-58.462,1-55.833.225c3.743-1.1,7.341,2,9.829,5.026a75.584,75.584,0,0,1,6.05,8.471c3.034,4.933,7.345,8.643,13.462,8.141,7.737-.636,24.51-16.244,24.832-.538.088,4.075-.348,8.359.022,12.407C-1.352,36.89.017,39.879,0,43.109c-.035,7.562-6.839,13.3-13.664,16.4-10.441,4.729-22.189,5.965-32.547,10.885-6.834,3.243-12.894,8.016-19.825,11.045-8.5,3.71-17.9,4.631-27.135,5.258-8.389.574-17.376.8-24.541-3.652.092.058-.564-2.273-1.264-4.671" transform="translate(453 -320) rotate(-180)" fill="#efe8ea"/>
      <path id="Fill_52" data-name="Fill 52" d="M-2.181,52.315c-4.727-7.941-11.6-14.363-18.381-20.669-5.522-5.137-11.332-9.927-16.916-14.981-5.051-4.576-9.3-9.95-14.594-14.36A9.461,9.461,0,0,0-55.832.1a3.463,3.463,0,0,0-3.835,1.429,4.553,4.553,0,0,0-.2,2.871c1.642,9.847,9.321,17.426,15.225,25.005,1.234,1.586-1.98,2.992-2.472,4.824-.408,1.515-.471,3.161-1.283,4.506-1.127,1.865-3.493,2.8-4.412,4.773-.834,1.792-.24,3.962-.923,5.815-.546,1.482-1.833,2.566-2.61,3.943-1.243,2.194-1.07,4.917-.4,7.34,2.455,8.763,10.489,14.649,18.012,19.84,9.446,6.52,24.906,13.974,34.28,2.828C-.783,78.92.012,72.861-.113,67.187-.241,61.115.93,57.543-2.181,52.315" transform="translate(543) rotate(-180)" fill="#ed9f94"/>
      <path id="Fill_53" data-name="Fill 53" d="M-4.7,27A4.721,4.721,0,0,0-.642,24.943a5.238,5.238,0,0,0,.4-4.168,15.387,15.387,0,0,0-3.861-6.079A116.678,116.678,0,0,0-19.937.179a.879.879,0,0,0-1.232.17A.883.883,0,0,0-21,1.582a114.867,114.867,0,0,1,15.591,14.3,13.912,13.912,0,0,1,3.465,5.358,3.651,3.651,0,0,1-.192,2.773,3.028,3.028,0,0,1-2.694,1.227A7.523,7.523,0,0,1-8.215,24.1a42.511,42.511,0,0,1-7.743-6.065l-8.57-7.847a.877.877,0,0,0-1.241.056.88.88,0,0,0,.057,1.244l8.566,7.847a43.923,43.923,0,0,0,8.079,6.3A9.417,9.417,0,0,0-4.89,27l.192,0" transform="translate(564 -30) rotate(-180)" fill="#231f20"/>
      <path id="Fill_54" data-name="Fill 54" d="M-4.912,17a4.738,4.738,0,0,0,1.975-.418A5.423,5.423,0,0,0,0,11.525,13.325,13.325,0,0,0-1.426,6.27a.928.928,0,0,0-1.2-.476.881.881,0,0,0-.495,1.164,11.889,11.889,0,0,1,1.285,4.572,3.739,3.739,0,0,1-1.88,3.443c-1.407.639-3.287.069-5.748-1.744A83.967,83.967,0,0,1-23.376.32.94.94,0,0,0-24.67.206a.871.871,0,0,0-.118,1.252A85.966,85.966,0,0,0-10.569,14.644C-9.684,15.3-7.373,17-4.912,17" transform="translate(572 -48) rotate(-180)" fill="#231f20"/>
      <path id="Fill_55" data-name="Fill 55" d="M-5.872,15a5.785,5.785,0,0,0,4.509-1.9C.084,11.391.381,8.864-.482,5.585a.877.877,0,0,0-1.073-.63.883.883,0,0,0-.628,1.08c.7,2.686.528,4.676-.523,5.915-1.321,1.56-3.815,1.568-5.6.769-2.054-.92-3.689-2.78-5.132-4.422l-7.024-8A.877.877,0,0,0-21.7.221a.893.893,0,0,0-.078,1.248l7.029,8c1.561,1.777,3.327,3.791,5.734,4.868A7.8,7.8,0,0,0-5.872,15" transform="translate(579 -58) rotate(-180)" fill="#231f20"/>
      <path id="Fill_56" data-name="Fill 56" d="M-11.242,4.285C-13.47,2.507-15.827.67-18.651.156A17.631,17.631,0,0,0-24.979.55L-36.065,2.6c-5.376.994-9.125,3.342-13.683,6.349-1.3.856-2.668,1.841-3.113,3.312a4.35,4.35,0,0,0,1.894,4.587,8.975,8.975,0,0,0,5.118,1.334c5.287.026,10.673-2.221,15.725-.7,3.833,1.154,6.662,4.252,9.89,6.588A27.694,27.694,0,0,0-10.308,28.6a10.2,10.2,0,0,0,4.745.2c3.371-.839,5.416-4.433,5.55-7.847.325-8.461-5.3-11.938-11.229-16.667" transform="translate(542 -39) rotate(-180)" fill="#ed9f94"/>
      <path id="Fill_57" data-name="Fill 57" d="M-17.114,20a.886.886,0,0,0,.505-.157,14.562,14.562,0,0,0,6.079-9.8l.009-.068a1.761,1.761,0,0,1,.141-.583A1.869,1.869,0,0,1-9.611,9,18.785,18.785,0,0,0-.134,1.346.876.876,0,0,0-.42.133.891.891,0,0,0-1.642.417a16.97,16.97,0,0,1-8.545,6.911,3.156,3.156,0,0,0-1.67,1.089,3.031,3.031,0,0,0-.422,1.32l-.009.064a12.777,12.777,0,0,1-5.332,8.594.882.882,0,0,0-.224,1.226.886.886,0,0,0,.73.379" transform="translate(544 -67) rotate(-180)" fill="#231f20"/>
      <path id="Fill_58" data-name="Fill 58" d="M0,33H-104V0H0Z" transform="translate(39 -659) rotate(-180)" fill="#6774ff"/>
      <path id="Fill_59" data-name="Fill 59" d="M0,57H-104V0H0Z" transform="translate(188 -635) rotate(-180)" fill="#fa6400"/>
      <path id="Fill_60" data-name="Fill 60" d="M0,96H-104V0H0Z" transform="translate(338 -596) rotate(-180)" fill="#b620e0"/>
      <path id="Fill_61" data-name="Fill 61" d="M0,164H-104V0H0Z" transform="translate(489 -528) rotate(-180)" fill="#32c5ff"/>
      <path id="Fill_62" data-name="Fill 62" d="M0,257H-104V0H0Z" transform="translate(644 -435) rotate(-180)" fill="#01b861"/>
      <path id="Fill_63" data-name="Fill 63" d="M-33,0q.832,4.707,1.735,9.391c.488,2.524.992,5.076,1.555,7.609Q-14.821,15.387,0,13.262C-11.139,8.2-21.382,3.409-33,0" transform="translate(226 -355) rotate(-180)" fill="#231f20"/>
      <path id="Fill_64" data-name="Fill 64" d="M-80.966,18.81C-68.511,10.352-55.157,2.32-40.262.3-18.711-2.613,15.4,15.812-7.73,38.976-14.109,45.366-22.6,50.135-31.052,54.7q-21.327,11.5-43.221,21.893c-15.416,7.324-31.141,14.525-45.986,22.765-5.859,3.255-12.336,6.616-18.917,5.385-4.38-.819-8.194-3.644-11.016-7.107-5.844-7.178-12.73-19.205-2.753-25.515,7.855-4.968,15.751-9.335,22.709-15.472q7.7-6.788,15.726-13.192c10.84-8.67,22.063-16.854,33.542-24.643" transform="translate(199 -366) rotate(-180)" fill="#ed9f94"/>
      <path id="Fill_65" data-name="Fill 65" d="M-2.657,27a.646.646,0,0,0,.237-.044A.87.87,0,0,0-1.992,25.9a22.545,22.545,0,0,1-.575-6.9l.1-5.756c.085-4.678.318-8.8,2.321-11.915A.922.922,0,0,0-.282.166a.639.639,0,0,0-.989.166C-3.527,3.839-3.785,8.237-3.875,13.2l-.1,5.756a24.346,24.346,0,0,0,.657,7.495A.721.721,0,0,0-2.657,27" transform="translate(371 -481) rotate(-180)" fill="#231f20"/>
      <path id="Fill_66" data-name="Fill 66" d="M-2.676,27A.4.4,0,0,0-2.6,27a.806.806,0,0,0,.647-.907C-2.618,18.44-3.441,8.916-.076,1.2A.885.885,0,0,0-.4.088a.681.681,0,0,0-.969.368C-4.919,8.6-4.073,18.392-3.394,26.255A.768.768,0,0,0-2.676,27" transform="translate(358 -483) rotate(-180)" fill="#231f20"/>
      <path id="Fill_67" data-name="Fill 67" d="M-4.951,10A4.506,4.506,0,0,0-1.14,7.765,8.317,8.317,0,0,0-.229,1.519a.849.849,0,0,0-.7-.678L-1.094.817q-.656-.1-1.3-.2H-2.4C-3.944.385-5.407.164-6.983,0a.788.788,0,0,0-.082,0,.854.854,0,0,0-.83.79A21.375,21.375,0,0,0-7,9.153a.869.869,0,0,0,.556.6A4.829,4.829,0,0,0-4.951,10ZM-6.3,1.867c1.145.131,2.243.3,3.406.473l.263.04.43.065h.006l.436.066a6.177,6.177,0,0,1-.77,4.248A2.865,2.865,0,0,1-4.952,8.221a2.981,2.981,0,0,1-.564-.056A19.973,19.973,0,0,1-6.3,1.867Z" transform="translate(400 -499) rotate(-180)" fill="#231f20"/>
      <path id="Fill_68" data-name="Fill 68" d="M-3.189,9A.825.825,0,0,0-2.4,8.326,32.758,32.758,0,0,1-.08,1.227.876.876,0,0,0-.457.087.788.788,0,0,0-1.536.48,34.748,34.748,0,0,0-3.982,7.964a.861.861,0,0,0,.621,1.018A.735.735,0,0,0-3.189,9" transform="translate(384 -477) rotate(-180)" fill="#231f20"/>
      <path id="Fill_69" data-name="Fill 69" d="M-43.163,50a.831.831,0,0,0,.783-.554A88.99,88.99,0,0,1-.449,1.581.838.838,0,0,0-.1.45.835.835,0,0,0-1.223.1,90.689,90.689,0,0,0-43.951,48.873a.841.841,0,0,0,.5,1.074.824.824,0,0,0,.288.053" transform="translate(367 -390) rotate(-180)" fill="#231f20"/>
      <path id="Fill_70" data-name="Fill 70" d="M-.819,42a1.106,1.106,0,0,0,.165-.018A.831.831,0,0,0-.017,41a78.976,78.976,0,0,0-14.345-31.8c-.512-.686-1.084-1.411-1.787-2.278A26.525,26.525,0,0,0-23.792.1.812.812,0,0,0-24.9.439a.834.834,0,0,0,.334,1.121,25.468,25.468,0,0,1,7.157,6.429c.69.849,1.245,1.552,1.748,2.225A77.376,77.376,0,0,1-1.622,41.336a.823.823,0,0,0,.8.664" transform="translate(423 -404) rotate(-180)" fill="#231f20"/>
      <path id="Fill_71" data-name="Fill 71" d="M-27.161,22a.842.842,0,0,0,.368-.089A86.666,86.666,0,0,0-.206,1.4.85.85,0,0,0-.286.209.828.828,0,0,0-1.465.29,84.988,84.988,0,0,1-27.533,20.4a.848.848,0,0,0-.381,1.129.839.839,0,0,0,.753.473" transform="translate(411 -393) rotate(-180)" fill="#231f20"/>
      <path id="Fill_72" data-name="Fill 72" d="M-49.168,45a.83.83,0,0,0,.735-.45c7.2-13.824,19.061-25.738,38.457-38.635C-7.23,4.091-4.021,2.107-.725,1.679A.837.837,0,0,0-.007.738.834.834,0,0,0-.936.007c-3.649.473-7.051,2.573-9.951,4.5C-24.113,13.3-40.5,25.705-49.9,43.765a.847.847,0,0,0,.348,1.137.807.807,0,0,0,.387.1" transform="translate(453 -343) rotate(-180)" fill="#231f20"/>
      <path id="Fill_73" data-name="Fill 73" d="M-.815,40a.793.793,0,0,0,.2-.027.837.837,0,0,0,.589-1.013,159.766,159.766,0,0,0-5.04-16.517,70.165,70.165,0,0,0-3.81-8.831,32.875,32.875,0,0,0-5.879-8.159A21.5,21.5,0,0,0-23.979.027a.815.815,0,0,0-.993.593A.841.841,0,0,0-24.4,1.645a19.786,19.786,0,0,1,8.515,5.01A31.184,31.184,0,0,1-10.3,14.413a68.07,68.07,0,0,1,3.716,8.619A157.723,157.723,0,0,1-1.6,39.372.82.82,0,0,0-.815,40" transform="translate(512 -353) rotate(-180)" fill="#231f20"/>
      <path id="Fill_74" data-name="Fill 74" d="M-33.172,30a.812.812,0,0,0,.429-.119,150.939,150.939,0,0,0,17.511-12.1A73.611,73.611,0,0,0-.134,1.288.836.836,0,0,0-.379.135.824.824,0,0,0-1.522.377,71.793,71.793,0,0,1-16.283,16.489,149.208,149.208,0,0,1-33.6,28.459a.834.834,0,0,0-.28,1.14.825.825,0,0,0,.709.4" transform="translate(489 -338) rotate(-180)" fill="#231f20"/>
      <path id="Fill_75" data-name="Fill 75" d="M-139.492,52.2a13.327,13.327,0,0,1-.878-1.252c-2.523-4.052,3.057-14.113,7.291-15.44,2.677-.842,5.447,1.208,6.955,3.571s2.329,5.167,4.164,7.292c3.273,3.783,8.852,4.448,13.854,4.334a73,73,0,0,0,35.54-10.268c5.156-3.082,9.915-6.794,15.137-9.757,7.974-4.523,16.848-7.191,25.242-10.881s16.629-8.716,21.5-16.48a7.512,7.512,0,0,1,2.5-2.9C-3.625-2.014-1.022,6.791-.345,9.776a9.17,9.17,0,0,1,.114,4.471C-1.6,19.136-11.417,22.755-15.45,24.911a179.61,179.61,0,0,1-19.944,9.139c-5.632,2.174-11.423,4.083-16.548,7.27-4.287,2.667-7.992,6.155-12.028,9.188a69.174,69.174,0,0,1-63.371,9.766c-4.239-1.49-9.227-4.343-12.151-8.077" transform="translate(355 -409) rotate(-180)" fill="#231f20"/>
      <path id="Fill_76" data-name="Fill 76" d="M-124.612,34.365a8.848,8.848,0,0,0-1.334,3.445c-.367,2.819,1.193,5.515,2.933,7.774,13.291,17.224,47.783,10.059,63.892.171,12.372-7.594,25.332-9.608,38.693-14.922a112.262,112.262,0,0,0,16.7-7.73A7.975,7.975,0,0,0-.622,20.315a8.362,8.362,0,0,0,.517-4.771C-.348,12.9-.1,1.882-2.341.394c-2.871-1.9-6.241,3.594-7.443,5.3C-19.624,19.623-36.06,18.214-50.124,24.7c-14.854,6.85-26.621,20.012-44.205,20.292-7.818.123-15.4-2.854-18.6-10.378-.994-2.329-1.882-5.279-4.368-5.843-2.443-.547-4.554,1.672-6.016,3.686-.446.617-.9,1.252-1.294,1.908" transform="translate(452 -357) rotate(-180)" fill="#231f20"/>
      <path id="Fill_77" data-name="Fill 77" d="M0,18H-17V0H0Z" transform="translate(26 -504) rotate(-180)" fill="#7e5ddb"/>
      <path id="Fill_78" data-name="Fill 78" d="M0,18H-17V0H0Z" transform="translate(59 -468) rotate(-180)" fill="#7e5ddb"/>
      <path id="Fill_79" data-name="Fill 79" d="M0,18H-17V0H0Z" transform="translate(43 -521) rotate(-180)" fill="#7e5ddb"/>
      <path id="Fill_80" data-name="Fill 80" d="M0,18H-17V0H0Z" transform="translate(43 -485) rotate(-180)" fill="#7e5ddb"/>
    </g>
  </g>
</svg>
