<?xml version="1.0" encoding="UTF-8"?>
<svg width="77px" height="77px" viewBox="0 0 77 77" version="1.1" xmlns="http://www.w3.org/2000/svg" xmlns:xlink="http://www.w3.org/1999/xlink">
    <!-- Generator: Sketch 53.2 (72643) - https://sketchapp.com -->
    <title>youtube (1)</title>
    <desc>Created with Sketch.</desc>
    <defs>
        <linearGradient x1="22.7485175%" y1="-2.50096186%" x2="94.8037641%" y2="136.315686%" id="linearGradient-1">
            <stop stop-color="#0E88F1" offset="0%"></stop>
            <stop stop-color="#2191F2" offset="18.75%"></stop>
            <stop stop-color="#1C85E0" offset="40.41%"></stop>
            <stop stop-color="#2C8CE0" offset="63.53%"></stop>
            <stop stop-color="#2A92ED" offset="87.5%"></stop>
            <stop stop-color="#128AF1" offset="100%"></stop>
        </linearGradient>
        <linearGradient x1="49.9996672%" y1="41.2557065%" x2="49.9996672%" y2="119.349096%" id="linearGradient-2">
            <stop stop-color="#A1B5D8" stop-opacity="0" offset="0%"></stop>
            <stop stop-color="#90A2BD" stop-opacity="0.309804" offset="30.94%"></stop>
            <stop stop-color="#7C8B9C" stop-opacity="0.756863" offset="75.54%"></stop>
            <stop stop-color="#748290" offset="100%"></stop>
        </linearGradient>
        <linearGradient x1="78.529843%" y1="69.6847536%" x2="-6.8215864%" y2="-5.39968129%" id="linearGradient-3">
            <stop stop-color="#A1B5D8" stop-opacity="0" offset="0%"></stop>
            <stop stop-color="#07295A" stop-opacity="0.309804" offset="30.94%"></stop>
            <stop stop-color="#154479" stop-opacity="0.756863" offset="75.54%"></stop>
            <stop stop-color="#135495" offset="100%"></stop>
        </linearGradient>
        <linearGradient x1="43.8987244%" y1="37.7215842%" x2="58.7142975%" y2="67.6813242%" id="linearGradient-4">
            <stop stop-color="#E52D27" offset="0%"></stop>
            <stop stop-color="#B31217" offset="100%"></stop>
        </linearGradient>
    </defs>
    <g id="Page-1" stroke="none" stroke-width="1" fill="none" fill-rule="evenodd">
        <g id="Wadoox" transform="translate(-511.000000, -1307.000000)" fill-rule="nonzero">
            <g id="Group-14" transform="translate(358.000000, 1207.000000)">
                <g id="youtube-(1)" transform="translate(153.000000, 100.000000)">
                    <path d="M63.2275085,75.6817322 C46.7591477,77.4394226 30.2408523,77.4394226 13.7724915,75.6817322 C7.20582573,74.9808884 2.0191116,69.7941743 1.31826782,63.2269211 C-0.439422607,46.7585601 -0.439422607,30.2408523 1.31826782,13.7724915 C2.0191116,7.20582573 7.20582573,2.0191116 13.7724915,1.31826782 C30.2408523,-0.439422607 46.7585601,-0.439422607 63.2269211,1.31826782 C69.7941743,2.0191116 74.9808884,7.20582573 75.6817322,13.7724915 C77.4394226,30.2408523 77.4394226,46.7585601 75.6817322,63.2269211 C74.9808884,69.7941743 69.7947617,74.9808884 63.2275085,75.6817322 Z" id="Path" fill="url(#linearGradient-1)"></path>
                    <path d="M71.4937058,16.5576553 C70.8721695,10.730606 66.2699814,6.12783054 60.4423447,5.50570679 C45.8286057,3.94657905 31.1713943,3.94657905 16.5576553,5.50570679 C10.730606,6.12783054 6.12783054,10.730606 5.50570679,16.5576553 C3.94657905,31.1713943 3.94657905,45.8286057 5.50570679,60.4417573 C6.12783054,66.269394 10.730606,70.8721695 16.5576553,71.4937058 C31.1713943,73.0534209 45.8286057,73.0534209 60.4417573,71.4937058 C66.269394,70.8721695 70.8721695,66.269394 71.4937058,60.4417573 C73.0534209,45.8286057 73.0534209,31.1713943 71.4937058,16.5576553 L71.4937058,16.5576553 Z" id="Path" fill="#0091FF"></path>
                    <path d="M1.15377808,61.6307832 C1.20664986,62.1630249 1.26128391,62.6952666 1.31826782,63.2275085 C2.0191116,69.7941743 7.20582573,74.9808884 13.7730789,75.6817322 C30.2414399,77.4394226 46.7591477,77.4394226 63.2275085,75.6817322 C69.7947617,74.9808884 74.9808884,69.7941743 75.6817322,63.2275085 C75.7387161,62.6952666 75.7933501,62.1630249 75.8468093,61.6307832 L1.15377808,61.6307832 Z" id="Path" fill="url(#linearGradient-2)"></path>
                    <path d="M63.2275085,75.6817322 C69.7947617,74.9808884 74.9808884,69.7941743 75.6817322,63.2269211 C76.4507217,56.0257949 76.8830947,48.8152695 76.9794387,41.6029815 L60.2531814,24.8773117 C59.39431,23.8128281 58.6176834,23.7141343 57.0080337,23.3998413 C55.703865,23.1448823 54.3697358,22.9709931 53.042656,22.9187088 C48.799408,22.7512817 44.5532227,22.5920791 40.3070374,22.5515442 C34.0722886,22.4922104 27.8363647,22.5127715 21.6262893,23.2341767 C18.9486313,23.5449448 16.1182327,25.6451264 15.8145142,28.5078354 C15.6588364,29.9788437 15.3886032,31.4416275 15.3045959,32.9161606 C14.9973526,38.2861633 14.9333191,43.6532288 15.6840972,49.0020828 C15.9355317,50.7932587 16.2122268,51.61277 17.4194641,52.6114578 L41.7845078,76.9765015 C48.9356995,76.8748703 56.0863037,76.4436721 63.2275085,75.6817322 L63.2275085,75.6817322 Z" id="Path" fill="url(#linearGradient-3)"></path>
                    <path d="M39.8194428,55.0735168 C33.6040801,54.8649673 28.7933426,54.7462998 23.9884795,54.517189 C22.5221709,54.4466934 21.0129776,54.2475434 19.6242141,53.7963715 C17.0681611,52.9668731 15.6100769,51.0975647 15.2311631,48.3981704 C14.4803848,43.0493164 14.5444184,37.682251 14.8516616,32.3122483 C14.9362564,30.8377151 15.2064895,29.3749314 15.3621674,27.9039231 C15.664711,25.0412139 18.495697,22.9404449 21.173355,22.6302642 C27.384018,21.9088593 33.6193542,21.8882981 39.8546905,21.9476318 C44.1008759,21.9881668 48.3464737,22.1473694 52.5897217,22.3147964 C53.9168015,22.3670806 55.2509307,22.5415573 56.5550996,22.795929 C59.4289703,23.3569565 61.0914917,25.1545945 61.5978852,28.041977 C62.2828674,31.9486084 62.4620437,35.8928374 62.3181152,39.8388291 C62.2094345,42.8254929 61.9016037,45.807457 61.5920105,48.7823716 C61.2501069,52.0657043 58.4073716,54.0102081 55.8472061,54.1788101 C50.0448303,54.5612488 44.2359924,54.8326568 39.8194428,55.0735168 L39.8194428,55.0735168 Z" id="Path" fill="url(#linearGradient-4)"></path>
                    <path d="M33.9583206,45.7639846 C37.9706955,43.3007507 41.8849639,40.8962632 45.9167251,38.4206924 C41.8931885,35.9480591 37.9795074,33.5429839 33.9583206,31.072113 L33.9583206,45.7639846 Z" id="Path" fill="#FFFFFF"></path>
                </g>
            </g>
        </g>
    </g>
</svg>