<?xml version="1.0" encoding="UTF-8"?>
<svg width="91px" height="83px" viewBox="0 0 91 83" version="1.1" xmlns="http://www.w3.org/2000/svg" xmlns:xlink="http://www.w3.org/1999/xlink">
    <!-- Generator: Sketch 53.2 (72643) - https://sketchapp.com -->
    <title>youtube (1)</title>
    <desc>Created with Sketch.</desc>
    <defs>
        <filter x="-122.7%" y="-114.9%" width="345.5%" height="329.8%" filterUnits="objectBoundingBox" id="filter-1">
            <feOffset dx="8" dy="7" in="SourceAlpha" result="shadowOffsetOuter1"></feOffset>
            <feGaussianBlur stdDeviation="10" in="shadowOffsetOuter1" result="shadowBlurOuter1"></feGaussianBlur>
            <feColorMatrix values="0 0 0 0 0   0 0 0 0 0   0 0 0 0 0  0 0 0 0.5 0" type="matrix" in="shadowBlurOuter1" result="shadowMatrixOuter1"></feColorMatrix>
            <feMerge>
                <feMergeNode in="shadowMatrixOuter1"></feMergeNode>
                <feMergeNode in="SourceGraphic"></feMergeNode>
            </feMerge>
        </filter>
    </defs>
    <g id="Page-1" stroke="none" stroke-width="1" fill="none" fill-rule="evenodd">
        <g id="Wadoox" transform="translate(-922.000000, -1308.000000)">
            <g id="Group-13" transform="translate(769.000000, 1207.000000)">
                <g id="youtube-(1)" transform="translate(153.000000, 101.000000)">
                    <path d="M63.2275085,75.6817322 C46.7591477,77.4394226 30.2408523,77.4394226 13.7724915,75.6817322 C7.20582573,74.9808884 2.0191116,69.7941743 1.31826782,63.2269211 C-0.439422607,46.7585601 -0.439422607,30.2408523 1.31826782,13.7724915 C2.0191116,7.20582573 7.20582573,2.0191116 13.7724915,1.31826782 C30.2408523,-0.439422607 46.7585601,-0.439422607 63.2269211,1.31826782 C69.7941743,2.0191116 74.9808884,7.20582573 75.6817322,13.7724915 C77.4394226,30.2408523 77.4394226,46.7585601 75.6817322,63.2269211 C74.9808884,69.7941743 69.7947617,74.9808884 63.2275085,75.6817322 Z" id="Path" fill="#D91754"></path>
                    <path d="M71.4937058,16.5576553 C70.8721695,10.730606 66.2699814,6.12783054 60.4423447,5.50570679 C45.8286057,3.94657905 31.1713943,3.94657905 16.5576553,5.50570679 C10.730606,6.12783054 6.12783054,10.730606 5.50570679,16.5576553 C3.94657905,31.1713943 3.94657905,45.8286057 5.50570679,60.4417573 C6.12783054,66.269394 10.730606,70.8721695 16.5576553,71.4937058 C31.1713943,73.0534209 45.8286057,73.0534209 60.4417573,71.4937058 C66.269394,70.8721695 70.8721695,66.269394 71.4937058,60.4417573 C73.0534209,45.8286057 73.0534209,31.1713943 71.4937058,16.5576553 L71.4937058,16.5576553 Z" id="Path" fill="#E0215D" fill-rule="nonzero"></path>
                    <g id="megaphone-(1)" filter="url(#filter-1)" transform="translate(38.466252, 38.466252) rotate(-315.000000) translate(-38.466252, -38.466252) translate(16.466252, 14.966252)" fill-rule="nonzero">
                        <path d="M23.8152194,37.3143452 L21.905532,39.347743 C21.3777391,39.9097267 20.5235502,39.9097267 19.9958447,39.347743 C19.4680518,38.7857594 19.4680518,37.8762357 19.9958447,37.3143452 L21.905532,35.2809473 C22.4323634,34.7199874 22.4323634,33.8085092 21.905532,33.2475494 L20.1496896,31.3779625 C19.6218967,30.8159789 19.6218967,29.9064552 20.1496896,29.3445646 C20.6774825,28.782581 21.5316714,28.782581 22.0593769,29.3445646 L23.8152194,31.2141515 C25.3949269,32.8960071 25.3949269,35.6323034 23.8152194,37.3143452 Z" id="Path" fill="#FFFFFF"></path>
                        <path d="M26.5954402,46.1584064 L26.5954402,46.1584064 C25.5227827,47.2805312 23.7836481,47.2805312 22.7110795,46.1584064 L13,35.9994847 L16.8843607,31.9358974 L26.5954402,42.0948191 C27.6681866,43.2169439 27.6681866,45.0362816 26.5954402,46.1584064 Z" id="Path" fill="#FFFFFF"></path>
                        <path d="M12.6079065,24.3610334 L18.6805972,30.483782 L18.5630491,34.3153817 L11.7068838,41.2280632 C10.0810259,42.8673232 7.4168714,42.8279079 5.79101356,41.1884671 L1.873192,37.2383505 C0.266880684,35.6187981 0.286427202,32.9919863 1.91246437,31.3527263 L8.76862967,24.4400448 L12.6079065,24.3610334 Z" id="Path" fill="#0091FF"></path>
                        <g id="Group" transform="translate(29.200000, -0.000000)">
                            <path d="M1.41485385,5.76576873 C0.660896154,5.76670174 0.0484769231,5.12078412 0.0484769231,4.3246531 L0.0475923077,1.44130223 C0.0474153846,0.644984615 0.65895,-5.97509548e-11 1.41396923,-5.97509548e-11 C2.16792692,-0.000933002541 2.78034615,0.644984615 2.78034615,1.44111563 L2.78123077,4.3244665 C2.78131923,5.12078412 2.16987308,5.76576873 1.41485385,5.76576873 Z" id="Path" fill="#FFFFFF"></path>
                            <path d="M12.3474615,14.4139553 L9.61364615,14.4130223 C8.85871538,14.4130223 8.24620769,13.7671047 8.24726923,12.9719067 C8.24726923,12.1756824 8.85880385,11.5307911 9.61364615,11.5307911 L12.3474615,11.5317241 C13.1023923,11.5317241 13.7149,12.1776417 13.7138385,12.9728397 C13.7138385,13.7689707 13.1023923,14.4139553 12.3474615,14.4139553 Z" id="Path" fill="#FFFFFF"></path>
                            <path d="M10.5987538,3.10036725 C11.1398731,3.67108486 11.1399615,4.56798015 10.5987538,5.13869777 L7.69978077,8.1962402 C7.15857308,8.76705112 6.30819231,8.76695782 5.76716154,8.1962402 C5.22595385,7.62542928 5.22595385,6.7286273 5.76716154,6.15790968 L8.66613462,3.10036725 C9.20725385,2.52955633 10.0575462,2.52955633 10.5987538,3.10036725 Z" id="Path" fill="#0091FF"></path>
                        </g>
                        <path d="M23.1050383,5.85162547 L36.8099871,19.797562 C37.2016031,20.1960642 37.6909887,24.39967 38.2,24.4794616 L34.3431644,25.2963456 C28.6261974,26.4518197 23.2029872,29.6594435 19.5222443,33.4049084 L19.1894155,33.7435897 L9.4,23.7821283 L9.73282884,23.443447 C13.6094693,19.4986397 16.4678184,14.2788077 17.6424873,8.302095 L18.4451658,4.21794872 L23.1050383,5.85162547 Z" id="Path" fill="#FFFFFF"></path>
                        <path d="M11.9834549,31.1490479 C12.538803,31.7067679 12.5388938,32.5832372 11.9834549,33.1409573 L10.000017,35.1329578 C9.44457816,35.690769 8.57183644,35.6906779 8.01657915,35.1329578 C7.46114028,34.5751466 7.46114028,33.6987685 8.01657915,33.1410484 L10.000017,31.149139 C10.5554559,30.5913278 11.4281068,30.5913278 11.9834549,31.1490479 Z" id="Path" fill="#E1E4FB"></path>
                        <path d="M30.2696404,13.2564103 L36.8626243,20.2563797 C37.2394105,20.6564251 37.7102641,24.8763083 38.2,24.9564089 L34.4892156,25.7764561 C28.9887395,26.9364045 23.7708962,30.1564491 20.2295364,33.9164175 L19.9093111,34.2564103 L15.2,29.2563928 L30.2696404,13.2564103 Z" id="Path" fill="#FFFFFF"></path>
                        <path d="M12.0008849,31.3333333 C12.5329949,31.8677062 12.5330819,32.7074849 12.0008849,33.2418578 L10.1004425,35.1504696 C9.56824549,35.6849299 8.73202298,35.6848425 8.2,35.1504696 L12.0008849,31.3333333 Z" id="Path" fill="#C5C9F7"></path>
                        <path d="M23.1418896,2.0267197 L40.98232,19.9522446 C42.07256,21.0476847 42.07256,22.8402646 40.98232,23.9357047 C40.8633699,24.0552222 40.7047698,24.1348093 40.5460789,24.2144877 C39.911769,24.6528096 39.1585997,24.8120751 38.4250287,24.6327533 C37.9097596,24.5531661 37.4141795,24.3340963 37.0176791,23.9357047 L19.1772487,6.01008865 C18.7212279,5.55189273 18.5032888,4.97436167 18.423898,4.37686544 C18.3446886,3.77936922 18.4637295,3.18169066 18.7609686,2.64408992 C18.8996984,2.42492896 18.9987781,2.20595034 19.1772487,2.02662854 C20.2674886,0.931279568 22.0516496,0.931279568 23.1418896,2.0267197 Z" id="Path" fill="#0091FF"></path>
                        <path d="M31.992854,10.8461538 L40.9765013,19.9025611 C42.0744996,21.0094522 42.0744996,22.8207705 40.9765013,23.9276617 C40.8567047,24.0484285 40.6969759,24.1288476 40.5371558,24.2093588 C39.898332,24.6522627 39.1398031,24.813193 38.4010118,24.6319967 C37.882076,24.5515776 37.3829693,24.3302178 36.9836473,23.9276617 L28,14.8712544 L31.992854,10.8461538 Z" id="Path" fill="#0091FF"></path>
                    </g>
                </g>
            </g>
        </g>
    </g>
</svg>